<svg width="127" height="226" viewBox="0 0 127 226" fill="none" xmlns="http://www.w3.org/2000/svg">
<path d="M3.32369 172.4L3.32127 172.399C3.06267 172.276 2.83143 172.081 2.6785 171.87C2.52828 171.662 2.5 171.508 2.5 171.431V60.5443C2.5 28.4664 29.2086 2.5 61.6581 2.5H65.3167C97.7232 2.5 123.676 28.4243 123.676 60.5443V171.431C123.676 171.771 123.596 172.011 123.512 172.154C123.439 172.279 123.347 172.363 123.203 172.422L123.194 172.425C123.096 172.466 123.038 172.488 122.999 172.503C122.994 172.504 122.99 172.506 122.986 172.507C122.981 172.507 122.976 172.507 122.97 172.507C122.675 172.507 122.392 172.394 122.182 172.185L110.311 160.408L108.55 158.661L106.79 160.408L94.9181 172.185C94.4845 172.615 93.7749 172.615 93.3414 172.185L81.4699 160.408L79.7093 158.661L77.9486 160.408L66.0765 172.185L67.7664 173.889L66.0764 172.185C65.6429 172.615 64.9319 172.615 64.4983 172.185L64.4981 172.185L52.6239 160.408L50.8637 158.662L49.1032 160.408L37.2259 172.185L37.2255 172.185C36.7919 172.615 36.0702 172.615 35.6367 172.185L35.6348 172.183L23.4709 160.141L21.8974 158.583L20.1609 159.957L4.60439 172.265L4.60067 172.268C4.28014 172.522 3.72126 172.591 3.32369 172.4Z" fill="url(#paint0_linear_190_695)" stroke="black" stroke-width="5"/>
<path d="M28.7109 198.202V207H25.7476V195.905H28.5264L28.7109 198.202ZM28.3008 201.063H27.4805C27.4805 200.291 27.5728 199.58 27.7573 198.93C27.9487 198.274 28.2256 197.707 28.5879 197.228C28.957 196.743 29.4116 196.367 29.9517 196.1C30.4917 195.833 31.1172 195.7 31.8281 195.7C32.3203 195.7 32.7715 195.775 33.1816 195.926C33.5918 196.069 33.9438 196.298 34.2378 196.613C34.5386 196.92 34.771 197.324 34.9351 197.823C35.0991 198.315 35.1812 198.906 35.1812 199.597V207H32.228V199.925C32.228 199.419 32.1597 199.029 32.0229 198.756C31.8862 198.482 31.6914 198.291 31.4385 198.182C31.1924 198.072 30.895 198.018 30.5464 198.018C30.1636 198.018 29.8286 198.096 29.5415 198.253C29.2612 198.411 29.0288 198.629 28.8442 198.91C28.6597 199.183 28.5229 199.504 28.4341 199.874C28.3452 200.243 28.3008 200.639 28.3008 201.063ZM34.9043 200.725L33.8481 200.858C33.8481 200.133 33.937 199.46 34.1147 198.838C34.2993 198.216 34.5693 197.669 34.9248 197.197C35.2871 196.726 35.7349 196.36 36.2681 196.1C36.8013 195.833 37.4165 195.7 38.1138 195.7C38.647 195.7 39.1323 195.779 39.5698 195.936C40.0073 196.086 40.3799 196.329 40.6875 196.664C41.002 196.992 41.2412 197.423 41.4053 197.956C41.5762 198.489 41.6616 199.142 41.6616 199.915V207H38.6982V199.915C38.6982 199.402 38.6299 199.012 38.4932 198.746C38.3633 198.472 38.1719 198.284 37.9189 198.182C37.6729 198.072 37.3789 198.018 37.0371 198.018C36.6816 198.018 36.3706 198.089 36.104 198.233C35.8374 198.37 35.6152 198.561 35.4375 198.807C35.2598 199.053 35.1265 199.34 35.0376 199.668C34.9487 199.99 34.9043 200.342 34.9043 200.725ZM47.0654 195.905V207H44.1021V195.905H47.0654ZM43.9175 193.014C43.9175 192.583 44.0679 192.228 44.3687 191.947C44.6694 191.667 45.0728 191.527 45.5786 191.527C46.0776 191.527 46.4775 191.667 46.7783 191.947C47.0859 192.228 47.2397 192.583 47.2397 193.014C47.2397 193.444 47.0859 193.8 46.7783 194.08C46.4775 194.36 46.0776 194.5 45.5786 194.5C45.0728 194.5 44.6694 194.36 44.3687 194.08C44.0679 193.8 43.9175 193.444 43.9175 193.014ZM52.3975 198.274V207H49.4443V195.905H52.2129L52.3975 198.274ZM51.9668 201.063H51.167C51.167 200.243 51.2729 199.504 51.4849 198.848C51.6968 198.185 51.9941 197.621 52.377 197.156C52.7598 196.685 53.2144 196.326 53.7407 196.08C54.2739 195.827 54.8687 195.7 55.5249 195.7C56.0444 195.7 56.5195 195.775 56.9502 195.926C57.3809 196.076 57.75 196.315 58.0576 196.644C58.3721 196.972 58.6113 197.406 58.7754 197.946C58.9463 198.486 59.0317 199.146 59.0317 199.925V207H56.0581V199.915C56.0581 199.422 55.9897 199.04 55.853 198.766C55.7163 198.493 55.5146 198.301 55.248 198.192C54.9883 198.076 54.667 198.018 54.2842 198.018C53.8877 198.018 53.5425 198.096 53.2485 198.253C52.9614 198.411 52.7222 198.629 52.5308 198.91C52.3462 199.183 52.2061 199.504 52.1104 199.874C52.0146 200.243 51.9668 200.639 51.9668 201.063ZM67.8398 204.344V195.905H70.793V207H68.0142L67.8398 204.344ZM68.168 202.068L69.0396 202.047C69.0396 202.786 68.9541 203.473 68.7832 204.108C68.6123 204.737 68.356 205.284 68.0142 205.749C67.6724 206.207 67.2417 206.566 66.7222 206.826C66.2026 207.079 65.5908 207.205 64.8867 207.205C64.3467 207.205 63.8477 207.13 63.3896 206.979C62.9385 206.822 62.5488 206.58 62.2207 206.251C61.8994 205.917 61.6465 205.489 61.4619 204.97C61.2842 204.443 61.1953 203.811 61.1953 203.073V195.905H64.1484V203.093C64.1484 203.421 64.186 203.698 64.2612 203.924C64.3433 204.149 64.4561 204.334 64.5996 204.478C64.7432 204.621 64.9106 204.724 65.1021 204.785C65.3003 204.847 65.519 204.877 65.7583 204.877C66.3667 204.877 66.8452 204.754 67.1938 204.508C67.5493 204.262 67.7988 203.927 67.9424 203.503C68.0928 203.073 68.168 202.594 68.168 202.068ZM78.4834 195.905V197.997H72.0234V195.905H78.4834ZM73.623 193.167H76.5762V203.657C76.5762 203.979 76.6172 204.225 76.6992 204.396C76.7881 204.566 76.918 204.686 77.0889 204.754C77.2598 204.816 77.4751 204.847 77.7349 204.847C77.9194 204.847 78.0835 204.84 78.2271 204.826C78.3774 204.806 78.5039 204.785 78.6064 204.765L78.6167 206.938C78.3638 207.021 78.0903 207.085 77.7964 207.133C77.5024 207.181 77.1777 207.205 76.8223 207.205C76.1729 207.205 75.6055 207.099 75.1201 206.887C74.6416 206.668 74.2725 206.32 74.0127 205.841C73.7529 205.363 73.623 204.734 73.623 203.955V193.167ZM79.4268 201.565V201.35C79.4268 200.537 79.543 199.788 79.7754 199.104C80.0078 198.414 80.3462 197.816 80.7905 197.31C81.2349 196.804 81.7817 196.411 82.4312 196.131C83.0806 195.844 83.8257 195.7 84.6665 195.7C85.5073 195.7 86.2559 195.844 86.9121 196.131C87.5684 196.411 88.1187 196.804 88.563 197.31C89.0142 197.816 89.356 198.414 89.5884 199.104C89.8208 199.788 89.937 200.537 89.937 201.35V201.565C89.937 202.372 89.8208 203.121 89.5884 203.811C89.356 204.495 89.0142 205.093 88.563 205.605C88.1187 206.111 87.5718 206.504 86.9224 206.785C86.2729 207.065 85.5278 207.205 84.687 207.205C83.8462 207.205 83.0977 207.065 82.4414 206.785C81.792 206.504 81.2417 206.111 80.7905 205.605C80.3462 205.093 80.0078 204.495 79.7754 203.811C79.543 203.121 79.4268 202.372 79.4268 201.565ZM82.3799 201.35V201.565C82.3799 202.03 82.4209 202.464 82.5029 202.868C82.585 203.271 82.7148 203.626 82.8926 203.934C83.0771 204.235 83.3164 204.471 83.6104 204.642C83.9043 204.812 84.2632 204.898 84.687 204.898C85.0972 204.898 85.4492 204.812 85.7432 204.642C86.0371 204.471 86.2729 204.235 86.4507 203.934C86.6284 203.626 86.7583 203.271 86.8403 202.868C86.9292 202.464 86.9736 202.03 86.9736 201.565V201.35C86.9736 200.899 86.9292 200.475 86.8403 200.079C86.7583 199.675 86.625 199.32 86.4404 199.012C86.2627 198.698 86.0269 198.452 85.7329 198.274C85.439 198.096 85.0835 198.007 84.6665 198.007C84.2495 198.007 83.894 198.096 83.6001 198.274C83.313 198.452 83.0771 198.698 82.8926 199.012C82.7148 199.32 82.585 199.675 82.5029 200.079C82.4209 200.475 82.3799 200.899 82.3799 201.35ZM97.7505 203.934C97.7505 203.722 97.689 203.531 97.5659 203.36C97.4429 203.189 97.2139 203.032 96.8789 202.888C96.5508 202.738 96.0757 202.601 95.4536 202.478C94.8931 202.355 94.3701 202.201 93.8848 202.017C93.4062 201.825 92.9893 201.596 92.6338 201.33C92.2852 201.063 92.0117 200.749 91.8135 200.386C91.6152 200.017 91.5161 199.597 91.5161 199.125C91.5161 198.66 91.6152 198.223 91.8135 197.812C92.0186 197.402 92.3091 197.04 92.6851 196.726C93.0679 196.404 93.5327 196.155 94.0796 195.977C94.6333 195.792 95.2554 195.7 95.9458 195.7C96.9097 195.7 97.7368 195.854 98.4272 196.162C99.1245 196.469 99.6577 196.893 100.027 197.433C100.403 197.966 100.591 198.575 100.591 199.258H97.6377C97.6377 198.971 97.5762 198.715 97.4531 198.489C97.3369 198.257 97.1523 198.076 96.8994 197.946C96.6533 197.809 96.332 197.741 95.9355 197.741C95.6074 197.741 95.3237 197.799 95.0845 197.915C94.8452 198.024 94.6606 198.175 94.5308 198.366C94.4077 198.551 94.3462 198.756 94.3462 198.981C94.3462 199.152 94.3804 199.306 94.4487 199.443C94.5239 199.573 94.6436 199.692 94.8076 199.802C94.9717 199.911 95.1836 200.014 95.4434 200.109C95.71 200.198 96.0381 200.28 96.4277 200.355C97.2275 200.52 97.9419 200.735 98.5708 201.001C99.1997 201.261 99.6987 201.617 100.068 202.068C100.437 202.512 100.622 203.097 100.622 203.821C100.622 204.313 100.512 204.765 100.293 205.175C100.075 205.585 99.7603 205.944 99.3501 206.251C98.9399 206.552 98.4478 206.788 97.8735 206.959C97.3062 207.123 96.667 207.205 95.9561 207.205C94.9238 207.205 94.0488 207.021 93.3311 206.651C92.6201 206.282 92.0801 205.814 91.7109 205.247C91.3486 204.672 91.1675 204.084 91.1675 203.483H93.9668C93.9805 203.886 94.083 204.211 94.2744 204.457C94.4727 204.703 94.7222 204.881 95.0229 204.99C95.3306 205.1 95.6621 205.154 96.0176 205.154C96.4004 205.154 96.7183 205.103 96.9712 205C97.2241 204.891 97.4155 204.748 97.5454 204.57C97.6821 204.385 97.7505 204.173 97.7505 203.934Z" fill="#D9CD2B"/>
<defs>
<linearGradient id="paint0_linear_190_695" x1="63.0882" y1="0" x2="63.0882" y2="175.009" gradientUnits="userSpaceOnUse">
<stop stop-color="#7D00FF"/>
<stop offset="1" stop-color="#7D00FF" stop-opacity="0"/>
</linearGradient>
</defs>
</svg>
