<svg width="127" height="231" viewBox="0 0 127 231" fill="none" xmlns="http://www.w3.org/2000/svg">
<path d="M3.32369 172.4L3.32127 172.399C3.06267 172.276 2.83143 172.081 2.6785 171.87C2.52828 171.662 2.5 171.508 2.5 171.431V60.5443C2.5 28.4664 29.2086 2.5 61.6581 2.5H65.3167C97.7232 2.5 123.676 28.4243 123.676 60.5443V171.431C123.676 171.771 123.596 172.011 123.512 172.154C123.439 172.279 123.347 172.363 123.203 172.422L123.194 172.425C123.096 172.466 123.038 172.488 122.999 172.503C122.994 172.504 122.99 172.506 122.986 172.507C122.981 172.507 122.976 172.507 122.97 172.507C122.675 172.507 122.392 172.394 122.182 172.185L110.311 160.408L108.55 158.661L106.79 160.408L94.9181 172.185C94.4845 172.615 93.7749 172.615 93.3414 172.185L81.4699 160.408L79.7093 158.661L77.9486 160.408L66.0765 172.185L67.7664 173.889L66.0764 172.185C65.6429 172.615 64.9319 172.615 64.4983 172.185L64.4981 172.185L52.6239 160.408L50.8637 158.662L49.1032 160.408L37.2259 172.185L37.2255 172.185C36.7919 172.615 36.0702 172.615 35.6367 172.185L35.6348 172.183L23.4709 160.141L21.8974 158.583L20.1609 159.957L4.60439 172.265L4.60067 172.268C4.28014 172.522 3.72126 172.591 3.32369 172.4Z" fill="url(#paint0_linear_190_696)" stroke="black" stroke-width="5"/>
<path d="M24.0762 202.934C24.0762 202.722 24.0146 202.531 23.8916 202.36C23.7686 202.189 23.5396 202.032 23.2046 201.888C22.8765 201.738 22.4014 201.601 21.7793 201.478C21.2188 201.355 20.6958 201.201 20.2104 201.017C19.7319 200.825 19.3149 200.596 18.9595 200.33C18.6108 200.063 18.3374 199.749 18.1392 199.386C17.9409 199.017 17.8418 198.597 17.8418 198.125C17.8418 197.66 17.9409 197.223 18.1392 196.812C18.3442 196.402 18.6348 196.04 19.0107 195.726C19.3936 195.404 19.8584 195.155 20.4053 194.977C20.959 194.792 21.5811 194.7 22.2715 194.7C23.2354 194.7 24.0625 194.854 24.7529 195.162C25.4502 195.469 25.9834 195.893 26.3525 196.433C26.7285 196.966 26.9165 197.575 26.9165 198.258H23.9634C23.9634 197.971 23.9019 197.715 23.7788 197.489C23.6626 197.257 23.478 197.076 23.2251 196.946C22.979 196.809 22.6577 196.741 22.2612 196.741C21.9331 196.741 21.6494 196.799 21.4102 196.915C21.1709 197.024 20.9863 197.175 20.8564 197.366C20.7334 197.551 20.6719 197.756 20.6719 197.981C20.6719 198.152 20.7061 198.306 20.7744 198.443C20.8496 198.573 20.9692 198.692 21.1333 198.802C21.2974 198.911 21.5093 199.014 21.769 199.109C22.0356 199.198 22.3638 199.28 22.7534 199.355C23.5532 199.52 24.2676 199.735 24.8965 200.001C25.5254 200.261 26.0244 200.617 26.3936 201.068C26.7627 201.512 26.9473 202.097 26.9473 202.821C26.9473 203.313 26.8379 203.765 26.6191 204.175C26.4004 204.585 26.0859 204.944 25.6758 205.251C25.2656 205.552 24.7734 205.788 24.1992 205.959C23.6318 206.123 22.9927 206.205 22.2817 206.205C21.2495 206.205 20.3745 206.021 19.6567 205.651C18.9458 205.282 18.4058 204.814 18.0366 204.247C17.6743 203.672 17.4932 203.084 17.4932 202.483H20.2925C20.3062 202.886 20.4087 203.211 20.6001 203.457C20.7983 203.703 21.0479 203.881 21.3486 203.99C21.6562 204.1 21.9878 204.154 22.3433 204.154C22.7261 204.154 23.0439 204.103 23.2969 204C23.5498 203.891 23.7412 203.748 23.8711 203.57C24.0078 203.385 24.0762 203.173 24.0762 202.934ZM33.9712 206.205C33.1099 206.205 32.3374 206.068 31.6538 205.795C30.9702 205.515 30.3892 205.128 29.9106 204.636C29.439 204.144 29.0767 203.573 28.8237 202.924C28.5708 202.268 28.4443 201.57 28.4443 200.832V200.422C28.4443 199.581 28.564 198.812 28.8032 198.115C29.0425 197.417 29.3843 196.812 29.8286 196.3C30.2798 195.787 30.8267 195.394 31.4692 195.121C32.1118 194.84 32.8364 194.7 33.6431 194.7C34.4292 194.7 35.1265 194.83 35.7349 195.09C36.3433 195.35 36.8525 195.719 37.2627 196.197C37.6797 196.676 37.9941 197.25 38.2061 197.92C38.418 198.583 38.5239 199.321 38.5239 200.135V201.365H29.7056V199.396H35.6221V199.171C35.6221 198.761 35.5469 198.395 35.3965 198.074C35.2529 197.746 35.0342 197.486 34.7402 197.294C34.4463 197.103 34.0703 197.007 33.6123 197.007C33.2227 197.007 32.8877 197.093 32.6074 197.264C32.3271 197.435 32.0981 197.674 31.9204 197.981C31.7495 198.289 31.6196 198.651 31.5308 199.068C31.4487 199.479 31.4077 199.93 31.4077 200.422V200.832C31.4077 201.276 31.4692 201.687 31.5923 202.062C31.7222 202.438 31.9033 202.763 32.1357 203.037C32.375 203.31 32.6621 203.522 32.9971 203.672C33.3389 203.823 33.7251 203.898 34.1558 203.898C34.689 203.898 35.1846 203.795 35.6426 203.59C36.1074 203.378 36.5073 203.061 36.8423 202.637L38.2778 204.195C38.0454 204.53 37.7275 204.852 37.3242 205.159C36.9277 205.467 36.4492 205.72 35.8887 205.918C35.3281 206.109 34.689 206.205 33.9712 206.205ZM47.2295 194.905H49.9058V205.631C49.9058 206.643 49.6802 207.5 49.229 208.205C48.7847 208.916 48.1626 209.452 47.3628 209.814C46.563 210.184 45.6333 210.368 44.5737 210.368C44.1089 210.368 43.6167 210.307 43.0972 210.184C42.5845 210.061 42.0923 209.869 41.6206 209.609C41.1558 209.35 40.7661 209.021 40.4517 208.625L41.7539 206.882C42.0957 207.278 42.4922 207.586 42.9434 207.805C43.3945 208.03 43.8936 208.143 44.4404 208.143C44.9736 208.143 45.4248 208.044 45.7939 207.846C46.1631 207.654 46.4468 207.371 46.645 206.995C46.8433 206.625 46.9424 206.178 46.9424 205.651V197.469L47.2295 194.905ZM39.7646 200.586V200.371C39.7646 199.523 39.8672 198.754 40.0723 198.063C40.2842 197.366 40.5815 196.768 40.9644 196.269C41.354 195.77 41.8257 195.384 42.3794 195.11C42.9331 194.837 43.5586 194.7 44.2559 194.7C44.9941 194.7 45.6128 194.837 46.1118 195.11C46.6108 195.384 47.021 195.773 47.3423 196.279C47.6636 196.778 47.9131 197.37 48.0908 198.053C48.2754 198.73 48.4189 199.472 48.5215 200.278V200.75C48.4189 201.522 48.2651 202.24 48.0601 202.903C47.855 203.566 47.585 204.147 47.25 204.646C46.915 205.139 46.498 205.521 45.999 205.795C45.5068 206.068 44.9189 206.205 44.2354 206.205C43.5518 206.205 42.9331 206.065 42.3794 205.785C41.8325 205.504 41.3643 205.111 40.9746 204.605C40.585 204.1 40.2842 203.505 40.0723 202.821C39.8672 202.138 39.7646 201.393 39.7646 200.586ZM42.7178 200.371V200.586C42.7178 201.044 42.7622 201.471 42.8511 201.868C42.9399 202.264 43.0767 202.616 43.2612 202.924C43.4526 203.225 43.6885 203.46 43.9688 203.631C44.2559 203.795 44.5942 203.877 44.9839 203.877C45.5239 203.877 45.9648 203.765 46.3066 203.539C46.6484 203.307 46.9048 202.989 47.0757 202.585C47.2466 202.182 47.3457 201.717 47.373 201.191V199.848C47.3594 199.417 47.3013 199.031 47.1987 198.689C47.0962 198.34 46.9526 198.043 46.7681 197.797C46.5835 197.551 46.3442 197.359 46.0503 197.223C45.7563 197.086 45.4077 197.018 45.0044 197.018C44.6147 197.018 44.2764 197.106 43.9893 197.284C43.709 197.455 43.4731 197.691 43.2817 197.992C43.0972 198.292 42.957 198.648 42.8613 199.058C42.7656 199.461 42.7178 199.899 42.7178 200.371ZM58.7651 203.344V194.905H61.7183V206H58.9395L58.7651 203.344ZM59.0933 201.068L59.9648 201.047C59.9648 201.786 59.8794 202.473 59.7085 203.108C59.5376 203.737 59.2812 204.284 58.9395 204.749C58.5977 205.207 58.167 205.566 57.6475 205.826C57.1279 206.079 56.5161 206.205 55.812 206.205C55.272 206.205 54.7729 206.13 54.3149 205.979C53.8638 205.822 53.4741 205.58 53.146 205.251C52.8247 204.917 52.5718 204.489 52.3872 203.97C52.2095 203.443 52.1206 202.811 52.1206 202.073V194.905H55.0737V202.093C55.0737 202.421 55.1113 202.698 55.1865 202.924C55.2686 203.149 55.3813 203.334 55.5249 203.478C55.6685 203.621 55.8359 203.724 56.0273 203.785C56.2256 203.847 56.4443 203.877 56.6836 203.877C57.292 203.877 57.7705 203.754 58.1191 203.508C58.4746 203.262 58.7241 202.927 58.8677 202.503C59.0181 202.073 59.0933 201.594 59.0933 201.068ZM66.8657 197.274V206H63.9126V194.905H66.6812L66.8657 197.274ZM66.4351 200.063H65.6353C65.6353 199.243 65.7412 198.504 65.9531 197.848C66.165 197.185 66.4624 196.621 66.8452 196.156C67.228 195.685 67.6826 195.326 68.209 195.08C68.7422 194.827 69.3369 194.7 69.9932 194.7C70.5127 194.7 70.9878 194.775 71.4185 194.926C71.8491 195.076 72.2183 195.315 72.5259 195.644C72.8403 195.972 73.0796 196.406 73.2437 196.946C73.4146 197.486 73.5 198.146 73.5 198.925V206H70.5264V198.915C70.5264 198.422 70.458 198.04 70.3213 197.766C70.1846 197.493 69.9829 197.301 69.7163 197.192C69.4565 197.076 69.1353 197.018 68.7524 197.018C68.356 197.018 68.0107 197.096 67.7168 197.253C67.4297 197.411 67.1904 197.629 66.999 197.91C66.8145 198.183 66.6743 198.504 66.5786 198.874C66.4829 199.243 66.4351 199.639 66.4351 200.063ZM82.2979 203.58V190.25H85.2715V206H82.5952L82.2979 203.58ZM75.2842 200.586V200.371C75.2842 199.523 75.3799 198.754 75.5713 198.063C75.7627 197.366 76.043 196.768 76.4121 196.269C76.7812 195.77 77.2358 195.384 77.7759 195.11C78.3159 194.837 78.9312 194.7 79.6216 194.7C80.271 194.7 80.8384 194.837 81.3237 195.11C81.8159 195.384 82.2329 195.773 82.5747 196.279C82.9233 196.778 83.2036 197.37 83.4155 198.053C83.6274 198.73 83.7812 199.472 83.877 200.278V200.75C83.7812 201.522 83.6274 202.24 83.4155 202.903C83.2036 203.566 82.9233 204.147 82.5747 204.646C82.2329 205.139 81.8159 205.521 81.3237 205.795C80.8315 206.068 80.2573 206.205 79.6011 206.205C78.9106 206.205 78.2954 206.065 77.7554 205.785C77.2222 205.504 76.771 205.111 76.4019 204.605C76.0396 204.1 75.7627 203.505 75.5713 202.821C75.3799 202.138 75.2842 201.393 75.2842 200.586ZM78.2373 200.371V200.586C78.2373 201.044 78.2715 201.471 78.3398 201.868C78.415 202.264 78.5347 202.616 78.6987 202.924C78.8696 203.225 79.0884 203.46 79.355 203.631C79.6284 203.795 79.96 203.877 80.3496 203.877C80.8555 203.877 81.2725 203.765 81.6006 203.539C81.9287 203.307 82.1782 202.989 82.3491 202.585C82.5269 202.182 82.6294 201.717 82.6567 201.191V199.848C82.6362 199.417 82.5747 199.031 82.4722 198.689C82.3765 198.34 82.2329 198.043 82.0415 197.797C81.8569 197.551 81.6245 197.359 81.3442 197.223C81.0708 197.086 80.7461 197.018 80.3701 197.018C79.9873 197.018 79.6592 197.106 79.3857 197.284C79.1123 197.455 78.8901 197.691 78.7192 197.992C78.5552 198.292 78.4321 198.648 78.3501 199.058C78.2749 199.461 78.2373 199.899 78.2373 200.371ZM87.1069 200.565V200.35C87.1069 199.537 87.2231 198.788 87.4556 198.104C87.688 197.414 88.0264 196.816 88.4707 196.31C88.915 195.804 89.4619 195.411 90.1113 195.131C90.7607 194.844 91.5059 194.7 92.3467 194.7C93.1875 194.7 93.936 194.844 94.5923 195.131C95.2485 195.411 95.7988 195.804 96.2432 196.31C96.6943 196.816 97.0361 197.414 97.2686 198.104C97.501 198.788 97.6172 199.537 97.6172 200.35V200.565C97.6172 201.372 97.501 202.121 97.2686 202.811C97.0361 203.495 96.6943 204.093 96.2432 204.605C95.7988 205.111 95.252 205.504 94.6025 205.785C93.9531 206.065 93.208 206.205 92.3672 206.205C91.5264 206.205 90.7778 206.065 90.1216 205.785C89.4722 205.504 88.9219 205.111 88.4707 204.605C88.0264 204.093 87.688 203.495 87.4556 202.811C87.2231 202.121 87.1069 201.372 87.1069 200.565ZM90.0601 200.35V200.565C90.0601 201.03 90.1011 201.464 90.1831 201.868C90.2651 202.271 90.395 202.626 90.5728 202.934C90.7573 203.235 90.9966 203.471 91.2905 203.642C91.5845 203.812 91.9434 203.898 92.3672 203.898C92.7773 203.898 93.1294 203.812 93.4233 203.642C93.7173 203.471 93.9531 203.235 94.1309 202.934C94.3086 202.626 94.4385 202.271 94.5205 201.868C94.6094 201.464 94.6538 201.03 94.6538 200.565V200.35C94.6538 199.899 94.6094 199.475 94.5205 199.079C94.4385 198.675 94.3052 198.32 94.1206 198.012C93.9429 197.698 93.707 197.452 93.4131 197.274C93.1191 197.096 92.7637 197.007 92.3467 197.007C91.9297 197.007 91.5742 197.096 91.2803 197.274C90.9932 197.452 90.7573 197.698 90.5728 198.012C90.395 198.32 90.2651 198.675 90.1831 199.079C90.1011 199.475 90.0601 199.899 90.0601 200.35ZM105.431 202.934C105.431 202.722 105.369 202.531 105.246 202.36C105.123 202.189 104.894 202.032 104.559 201.888C104.231 201.738 103.756 201.601 103.134 201.478C102.573 201.355 102.05 201.201 101.565 201.017C101.086 200.825 100.669 200.596 100.314 200.33C99.9653 200.063 99.6919 199.749 99.4937 199.386C99.2954 199.017 99.1963 198.597 99.1963 198.125C99.1963 197.66 99.2954 197.223 99.4937 196.812C99.6987 196.402 99.9893 196.04 100.365 195.726C100.748 195.404 101.213 195.155 101.76 194.977C102.313 194.792 102.936 194.7 103.626 194.7C104.59 194.7 105.417 194.854 106.107 195.162C106.805 195.469 107.338 195.893 107.707 196.433C108.083 196.966 108.271 197.575 108.271 198.258H105.318C105.318 197.971 105.256 197.715 105.133 197.489C105.017 197.257 104.833 197.076 104.58 196.946C104.333 196.809 104.012 196.741 103.616 196.741C103.288 196.741 103.004 196.799 102.765 196.915C102.525 197.024 102.341 197.175 102.211 197.366C102.088 197.551 102.026 197.756 102.026 197.981C102.026 198.152 102.061 198.306 102.129 198.443C102.204 198.573 102.324 198.692 102.488 198.802C102.652 198.911 102.864 199.014 103.124 199.109C103.39 199.198 103.718 199.28 104.108 199.355C104.908 199.52 105.622 199.735 106.251 200.001C106.88 200.261 107.379 200.617 107.748 201.068C108.117 201.512 108.302 202.097 108.302 202.821C108.302 203.313 108.192 203.765 107.974 204.175C107.755 204.585 107.44 204.944 107.03 205.251C106.62 205.552 106.128 205.788 105.554 205.959C104.986 206.123 104.347 206.205 103.636 206.205C102.604 206.205 101.729 206.021 101.011 205.651C100.3 205.282 99.7603 204.814 99.3911 204.247C99.0288 203.672 98.8477 203.084 98.8477 202.483H101.647C101.661 202.886 101.763 203.211 101.955 203.457C102.153 203.703 102.402 203.881 102.703 203.99C103.011 204.1 103.342 204.154 103.698 204.154C104.081 204.154 104.398 204.103 104.651 204C104.904 203.891 105.096 203.748 105.226 203.57C105.362 203.385 105.431 203.173 105.431 202.934Z" fill="#D9CD2B"/>
<defs>
<linearGradient id="paint0_linear_190_696" x1="63.0882" y1="0" x2="63.0882" y2="175.009" gradientUnits="userSpaceOnUse">
<stop stop-color="#FF2F00"/>
<stop offset="1" stop-color="#FF2F00" stop-opacity="0"/>
</linearGradient>
</defs>
</svg>
