<svg width="127" height="228" viewBox="0 0 127 228" fill="none" xmlns="http://www.w3.org/2000/svg">
<path d="M3.32369 172.4L3.32127 172.399C3.06267 172.276 2.83142 172.081 2.6785 171.87C2.52827 171.662 2.5 171.508 2.5 171.431V60.5443C2.5 28.4664 29.2086 2.5 61.6581 2.5H65.3167C97.7232 2.5 123.676 28.4242 123.676 60.5443V171.431C123.676 171.771 123.596 172.011 123.512 172.154C123.439 172.279 123.347 172.363 123.203 172.422L123.194 172.425C123.096 172.466 123.038 172.488 122.999 172.503C122.994 172.504 122.99 172.506 122.986 172.507C122.981 172.507 122.976 172.507 122.97 172.507C122.675 172.507 122.392 172.394 122.182 172.185L110.311 160.408L108.55 158.661L106.79 160.408L94.9181 172.185C94.4845 172.615 93.7749 172.615 93.3414 172.185L81.4699 160.408L79.7093 158.661L77.9486 160.408L66.0765 172.185L67.8371 173.96L66.0764 172.185C65.6429 172.615 64.9319 172.615 64.4983 172.185L64.4981 172.185L52.6239 160.408L50.8637 158.662L49.1032 160.408L37.2259 172.185L37.2255 172.185C36.7919 172.615 36.0702 172.615 35.6367 172.185L35.6348 172.183L23.4709 160.141L21.8973 158.583L20.1609 159.957L4.60439 172.265L4.60067 172.268C4.28014 172.522 3.72126 172.591 3.32369 172.4Z" fill="url(#paint0_linear_190_693)" stroke="black" stroke-width="5"/>
<path d="M50.9927 200.58V187.25H53.9663V203H51.29L50.9927 200.58ZM43.979 197.586V197.371C43.979 196.523 44.0747 195.754 44.2661 195.063C44.4575 194.366 44.7378 193.768 45.1069 193.269C45.4761 192.77 45.9307 192.384 46.4707 192.11C47.0107 191.837 47.626 191.7 48.3164 191.7C48.9658 191.7 49.5332 191.837 50.0186 192.11C50.5107 192.384 50.9277 192.773 51.2695 193.279C51.6182 193.778 51.8984 194.37 52.1104 195.053C52.3223 195.73 52.4761 196.472 52.5718 197.278V197.75C52.4761 198.522 52.3223 199.24 52.1104 199.903C51.8984 200.566 51.6182 201.147 51.2695 201.646C50.9277 202.139 50.5107 202.521 50.0186 202.795C49.5264 203.068 48.9521 203.205 48.2959 203.205C47.6055 203.205 46.9902 203.065 46.4502 202.785C45.917 202.504 45.4658 202.111 45.0967 201.605C44.7344 201.1 44.4575 200.505 44.2661 199.821C44.0747 199.138 43.979 198.393 43.979 197.586ZM46.9321 197.371V197.586C46.9321 198.044 46.9663 198.471 47.0347 198.868C47.1099 199.264 47.2295 199.616 47.3936 199.924C47.5645 200.225 47.7832 200.46 48.0498 200.631C48.3232 200.795 48.6548 200.877 49.0444 200.877C49.5503 200.877 49.9673 200.765 50.2954 200.539C50.6235 200.307 50.873 199.989 51.0439 199.585C51.2217 199.182 51.3242 198.717 51.3516 198.191V196.848C51.3311 196.417 51.2695 196.031 51.167 195.689C51.0713 195.34 50.9277 195.043 50.7363 194.797C50.5518 194.551 50.3193 194.359 50.0391 194.223C49.7656 194.086 49.4409 194.018 49.0649 194.018C48.6821 194.018 48.354 194.106 48.0806 194.284C47.8071 194.455 47.585 194.691 47.4141 194.992C47.25 195.292 47.127 195.648 47.0449 196.058C46.9697 196.461 46.9321 196.899 46.9321 197.371ZM59.3906 191.905V203H56.4272V191.905H59.3906ZM56.2427 189.014C56.2427 188.583 56.3931 188.228 56.6938 187.947C56.9946 187.667 57.3979 187.527 57.9038 187.527C58.4028 187.527 58.8027 187.667 59.1035 187.947C59.4111 188.228 59.5649 188.583 59.5649 189.014C59.5649 189.444 59.4111 189.8 59.1035 190.08C58.8027 190.36 58.4028 190.5 57.9038 190.5C57.3979 190.5 56.9946 190.36 56.6938 190.08C56.3931 189.8 56.2427 189.444 56.2427 189.014ZM67.8193 200.498V195.556C67.8193 195.2 67.7612 194.896 67.645 194.643C67.5288 194.383 67.3477 194.182 67.1016 194.038C66.8623 193.895 66.5513 193.823 66.1685 193.823C65.8403 193.823 65.5566 193.881 65.3174 193.997C65.0781 194.106 64.8936 194.267 64.7637 194.479C64.6338 194.684 64.5688 194.927 64.5688 195.207H61.6157C61.6157 194.735 61.7251 194.288 61.9438 193.864C62.1626 193.44 62.4805 193.067 62.8975 192.746C63.3145 192.418 63.8101 192.162 64.3843 191.977C64.9653 191.792 65.6147 191.7 66.3325 191.7C67.1938 191.7 67.9595 191.844 68.6294 192.131C69.2993 192.418 69.8257 192.849 70.2085 193.423C70.5981 193.997 70.793 194.715 70.793 195.576V200.324C70.793 200.932 70.8306 201.431 70.9058 201.821C70.981 202.204 71.0903 202.539 71.2339 202.826V203H68.25C68.1064 202.699 67.9971 202.323 67.9219 201.872C67.8535 201.414 67.8193 200.956 67.8193 200.498ZM68.209 196.243L68.2295 197.914H66.5786C66.189 197.914 65.8506 197.958 65.5635 198.047C65.2764 198.136 65.0405 198.263 64.856 198.427C64.6714 198.584 64.5347 198.769 64.4458 198.98C64.3638 199.192 64.3228 199.425 64.3228 199.678C64.3228 199.931 64.3809 200.16 64.4971 200.365C64.6133 200.563 64.7808 200.72 64.9995 200.836C65.2183 200.946 65.4746 201 65.7686 201C66.2129 201 66.5991 200.912 66.9272 200.734C67.2554 200.556 67.5083 200.337 67.686 200.078C67.8706 199.818 67.9663 199.572 67.9731 199.339L68.7524 200.59C68.6431 200.871 68.4927 201.161 68.3013 201.462C68.1167 201.763 67.8809 202.046 67.5938 202.313C67.3066 202.573 66.9614 202.788 66.5581 202.959C66.1548 203.123 65.6763 203.205 65.1226 203.205C64.4185 203.205 63.7793 203.065 63.2051 202.785C62.6377 202.498 62.1865 202.104 61.8516 201.605C61.5234 201.1 61.3594 200.525 61.3594 199.883C61.3594 199.302 61.4688 198.786 61.6875 198.334C61.9062 197.883 62.2275 197.504 62.6514 197.196C63.082 196.882 63.6187 196.646 64.2612 196.489C64.9038 196.325 65.6489 196.243 66.4966 196.243H68.209ZM79.0679 199.934C79.0679 199.722 79.0063 199.531 78.8833 199.36C78.7603 199.189 78.5312 199.032 78.1963 198.888C77.8682 198.738 77.3931 198.601 76.771 198.478C76.2104 198.355 75.6875 198.201 75.2021 198.017C74.7236 197.825 74.3066 197.596 73.9512 197.33C73.6025 197.063 73.3291 196.749 73.1309 196.386C72.9326 196.017 72.8335 195.597 72.8335 195.125C72.8335 194.66 72.9326 194.223 73.1309 193.812C73.3359 193.402 73.6265 193.04 74.0024 192.726C74.3853 192.404 74.8501 192.155 75.397 191.977C75.9507 191.792 76.5728 191.7 77.2632 191.7C78.2271 191.7 79.0542 191.854 79.7446 192.162C80.4419 192.469 80.9751 192.893 81.3442 193.433C81.7202 193.966 81.9082 194.575 81.9082 195.258H78.9551C78.9551 194.971 78.8936 194.715 78.7705 194.489C78.6543 194.257 78.4697 194.076 78.2168 193.946C77.9707 193.809 77.6494 193.741 77.2529 193.741C76.9248 193.741 76.6411 193.799 76.4019 193.915C76.1626 194.024 75.978 194.175 75.8481 194.366C75.7251 194.551 75.6636 194.756 75.6636 194.981C75.6636 195.152 75.6978 195.306 75.7661 195.443C75.8413 195.573 75.9609 195.692 76.125 195.802C76.2891 195.911 76.501 196.014 76.7607 196.109C77.0273 196.198 77.3555 196.28 77.7451 196.355C78.5449 196.52 79.2593 196.735 79.8882 197.001C80.5171 197.261 81.0161 197.617 81.3853 198.068C81.7544 198.512 81.939 199.097 81.939 199.821C81.939 200.313 81.8296 200.765 81.6108 201.175C81.3921 201.585 81.0776 201.944 80.6675 202.251C80.2573 202.552 79.7651 202.788 79.1909 202.959C78.6235 203.123 77.9844 203.205 77.2734 203.205C76.2412 203.205 75.3662 203.021 74.6484 202.651C73.9375 202.282 73.3975 201.814 73.0283 201.247C72.666 200.672 72.4849 200.084 72.4849 199.483H75.2842C75.2979 199.886 75.4004 200.211 75.5918 200.457C75.79 200.703 76.0396 200.881 76.3403 200.99C76.6479 201.1 76.9795 201.154 77.335 201.154C77.7178 201.154 78.0356 201.103 78.2886 201C78.5415 200.891 78.7329 200.748 78.8628 200.57C78.9995 200.385 79.0679 200.173 79.0679 199.934Z" fill="#D9CD2B"/>
<defs>
<linearGradient id="paint0_linear_190_693" x1="63.0882" y1="0" x2="63.0882" y2="175.009" gradientUnits="userSpaceOnUse">
<stop stop-color="#FF005E"/>
<stop offset="1" stop-color="#FF005E" stop-opacity="0"/>
</linearGradient>
</defs>
</svg>
