<svg width="127" height="223" viewBox="0 0 127 223" fill="none" xmlns="http://www.w3.org/2000/svg">
<path d="M3.32369 172.4L3.32127 172.399C3.06267 172.276 2.83143 172.081 2.6785 171.87C2.52828 171.662 2.5 171.508 2.5 171.431V60.5443C2.5 28.4664 29.2086 2.5 61.6581 2.5H65.3167C97.7232 2.5 123.676 28.4243 123.676 60.5443V171.431C123.676 171.771 123.596 172.011 123.512 172.154C123.439 172.279 123.347 172.363 123.203 172.422L123.194 172.425C123.096 172.466 123.038 172.488 122.999 172.503C122.994 172.504 122.99 172.506 122.986 172.507C122.981 172.507 122.976 172.507 122.97 172.507C122.675 172.507 122.392 172.394 122.182 172.185L110.311 160.408L108.55 158.661L106.79 160.408L94.9181 172.185C94.4845 172.615 93.7749 172.615 93.3414 172.185L81.4699 160.408L79.7093 158.661L77.9486 160.408L66.0765 172.185L67.7664 173.889L66.0764 172.185C65.6429 172.615 64.9319 172.615 64.4983 172.185L64.4981 172.185L52.6239 160.408L50.8637 158.662L49.1032 160.408L37.2259 172.185L37.2255 172.185C36.7919 172.615 36.0702 172.615 35.6367 172.185L35.6348 172.183L23.4709 160.141L21.8974 158.583L20.1609 159.957L4.60439 172.265L4.60067 172.268C4.28014 172.522 3.72126 172.591 3.32369 172.4Z" fill="url(#paint0_linear_190_694)" stroke="black" stroke-width="5"/>
<path d="M41.0337 187.25V203H38.0806V187.25H41.0337ZM40.6133 197.063H39.8032C39.8101 196.291 39.9126 195.58 40.1108 194.93C40.3091 194.274 40.5928 193.707 40.9619 193.228C41.3311 192.743 41.772 192.367 42.2847 192.1C42.8042 191.833 43.3784 191.7 44.0073 191.7C44.5542 191.7 45.0498 191.779 45.4941 191.936C45.9453 192.086 46.3315 192.333 46.6528 192.674C46.981 193.009 47.2339 193.45 47.4116 193.997C47.5894 194.544 47.6782 195.207 47.6782 195.986V203H44.7046V195.966C44.7046 195.474 44.6328 195.087 44.4893 194.807C44.3525 194.52 44.1509 194.318 43.8843 194.202C43.6245 194.079 43.3032 194.018 42.9204 194.018C42.4966 194.018 42.1343 194.096 41.8335 194.253C41.5396 194.411 41.3037 194.629 41.126 194.91C40.9482 195.183 40.8184 195.504 40.7363 195.874C40.6543 196.243 40.6133 196.639 40.6133 197.063ZM49.4521 197.565V197.35C49.4521 196.537 49.5684 195.788 49.8008 195.104C50.0332 194.414 50.3716 193.816 50.8159 193.31C51.2603 192.804 51.8071 192.411 52.4565 192.131C53.106 191.844 53.8511 191.7 54.6919 191.7C55.5327 191.7 56.2812 191.844 56.9375 192.131C57.5938 192.411 58.144 192.804 58.5884 193.31C59.0396 193.816 59.3813 194.414 59.6138 195.104C59.8462 195.788 59.9624 196.537 59.9624 197.35V197.565C59.9624 198.372 59.8462 199.121 59.6138 199.811C59.3813 200.495 59.0396 201.093 58.5884 201.605C58.144 202.111 57.5972 202.504 56.9478 202.785C56.2983 203.065 55.5532 203.205 54.7124 203.205C53.8716 203.205 53.123 203.065 52.4668 202.785C51.8174 202.504 51.2671 202.111 50.8159 201.605C50.3716 201.093 50.0332 200.495 49.8008 199.811C49.5684 199.121 49.4521 198.372 49.4521 197.565ZM52.4053 197.35V197.565C52.4053 198.03 52.4463 198.464 52.5283 198.868C52.6104 199.271 52.7402 199.626 52.918 199.934C53.1025 200.235 53.3418 200.471 53.6357 200.642C53.9297 200.812 54.2886 200.898 54.7124 200.898C55.1226 200.898 55.4746 200.812 55.7686 200.642C56.0625 200.471 56.2983 200.235 56.4761 199.934C56.6538 199.626 56.7837 199.271 56.8657 198.868C56.9546 198.464 56.999 198.03 56.999 197.565V197.35C56.999 196.899 56.9546 196.475 56.8657 196.079C56.7837 195.675 56.6504 195.32 56.4658 195.012C56.2881 194.698 56.0522 194.452 55.7583 194.274C55.4644 194.096 55.1089 194.007 54.6919 194.007C54.2749 194.007 53.9194 194.096 53.6255 194.274C53.3384 194.452 53.1025 194.698 52.918 195.012C52.7402 195.32 52.6104 195.675 52.5283 196.079C52.4463 196.475 52.4053 196.899 52.4053 197.35ZM64.7305 194.325V203H61.7773V191.905H64.5562L64.7305 194.325ZM68.0732 191.833L68.022 194.571C67.8784 194.551 67.7041 194.534 67.499 194.52C67.3008 194.5 67.1196 194.489 66.9556 194.489C66.5386 194.489 66.1763 194.544 65.8687 194.653C65.5679 194.756 65.3149 194.91 65.1099 195.115C64.9116 195.32 64.7612 195.569 64.6587 195.863C64.563 196.157 64.5083 196.492 64.4946 196.868L63.8999 196.684C63.8999 195.966 63.9717 195.306 64.1152 194.705C64.2588 194.096 64.4673 193.566 64.7407 193.115C65.021 192.664 65.3628 192.315 65.7661 192.069C66.1694 191.823 66.6309 191.7 67.1504 191.7C67.3145 191.7 67.4819 191.714 67.6528 191.741C67.8237 191.762 67.9639 191.792 68.0732 191.833ZM75.1074 200.498V195.556C75.1074 195.2 75.0493 194.896 74.9331 194.643C74.8169 194.383 74.6357 194.182 74.3896 194.038C74.1504 193.895 73.8394 193.823 73.4565 193.823C73.1284 193.823 72.8447 193.881 72.6055 193.997C72.3662 194.106 72.1816 194.267 72.0518 194.479C71.9219 194.684 71.8569 194.927 71.8569 195.207H68.9038C68.9038 194.735 69.0132 194.288 69.2319 193.864C69.4507 193.44 69.7686 193.067 70.1855 192.746C70.6025 192.418 71.0981 192.162 71.6724 191.977C72.2534 191.792 72.9028 191.7 73.6206 191.7C74.4819 191.7 75.2476 191.844 75.9175 192.131C76.5874 192.418 77.1138 192.849 77.4966 193.423C77.8862 193.997 78.0811 194.715 78.0811 195.576V200.324C78.0811 200.932 78.1187 201.431 78.1938 201.821C78.269 202.204 78.3784 202.539 78.522 202.826V203H75.5381C75.3945 202.699 75.2852 202.323 75.21 201.872C75.1416 201.414 75.1074 200.956 75.1074 200.498ZM75.4971 196.243L75.5176 197.914H73.8667C73.4771 197.914 73.1387 197.958 72.8516 198.047C72.5645 198.136 72.3286 198.263 72.144 198.427C71.9595 198.584 71.8228 198.769 71.7339 198.98C71.6519 199.192 71.6108 199.425 71.6108 199.678C71.6108 199.931 71.6689 200.16 71.7852 200.365C71.9014 200.563 72.0688 200.72 72.2876 200.836C72.5063 200.946 72.7627 201 73.0566 201C73.501 201 73.8872 200.912 74.2153 200.734C74.5435 200.556 74.7964 200.337 74.9741 200.078C75.1587 199.818 75.2544 199.572 75.2612 199.339L76.0405 200.59C75.9312 200.871 75.7808 201.161 75.5894 201.462C75.4048 201.763 75.1689 202.046 74.8818 202.313C74.5947 202.573 74.2495 202.788 73.8462 202.959C73.4429 203.123 72.9644 203.205 72.4106 203.205C71.7065 203.205 71.0674 203.065 70.4932 202.785C69.9258 202.498 69.4746 202.104 69.1396 201.605C68.8115 201.1 68.6475 200.525 68.6475 199.883C68.6475 199.302 68.7568 198.786 68.9756 198.334C69.1943 197.883 69.5156 197.504 69.9395 197.196C70.3701 196.882 70.9067 196.646 71.5493 196.489C72.1919 196.325 72.937 196.243 73.7847 196.243H75.4971ZM86.356 199.934C86.356 199.722 86.2944 199.531 86.1714 199.36C86.0483 199.189 85.8193 199.032 85.4844 198.888C85.1562 198.738 84.6812 198.601 84.0591 198.478C83.4985 198.355 82.9756 198.201 82.4902 198.017C82.0117 197.825 81.5947 197.596 81.2393 197.33C80.8906 197.063 80.6172 196.749 80.4189 196.386C80.2207 196.017 80.1216 195.597 80.1216 195.125C80.1216 194.66 80.2207 194.223 80.4189 193.812C80.624 193.402 80.9146 193.04 81.2905 192.726C81.6733 192.404 82.1382 192.155 82.6851 191.977C83.2388 191.792 83.8608 191.7 84.5513 191.7C85.5151 191.7 86.3423 191.854 87.0327 192.162C87.73 192.469 88.2632 192.893 88.6323 193.433C89.0083 193.966 89.1963 194.575 89.1963 195.258H86.2432C86.2432 194.971 86.1816 194.715 86.0586 194.489C85.9424 194.257 85.7578 194.076 85.5049 193.946C85.2588 193.809 84.9375 193.741 84.541 193.741C84.2129 193.741 83.9292 193.799 83.6899 193.915C83.4507 194.024 83.2661 194.175 83.1362 194.366C83.0132 194.551 82.9517 194.756 82.9517 194.981C82.9517 195.152 82.9858 195.306 83.0542 195.443C83.1294 195.573 83.249 195.692 83.4131 195.802C83.5771 195.911 83.7891 196.014 84.0488 196.109C84.3154 196.198 84.6436 196.28 85.0332 196.355C85.833 196.52 86.5474 196.735 87.1763 197.001C87.8052 197.261 88.3042 197.617 88.6733 198.068C89.0425 198.512 89.2271 199.097 89.2271 199.821C89.2271 200.313 89.1177 200.765 88.8989 201.175C88.6802 201.585 88.3657 201.944 87.9556 202.251C87.5454 202.552 87.0532 202.788 86.479 202.959C85.9116 203.123 85.2725 203.205 84.5615 203.205C83.5293 203.205 82.6543 203.021 81.9365 202.651C81.2256 202.282 80.6855 201.814 80.3164 201.247C79.9541 200.672 79.7729 200.084 79.7729 199.483H82.5723C82.5859 199.886 82.6885 200.211 82.8799 200.457C83.0781 200.703 83.3276 200.881 83.6284 200.99C83.936 201.1 84.2676 201.154 84.623 201.154C85.0059 201.154 85.3237 201.103 85.5767 201C85.8296 200.891 86.021 200.748 86.1509 200.57C86.2876 200.385 86.356 200.173 86.356 199.934Z" fill="#D9CD2B"/>
<defs>
<linearGradient id="paint0_linear_190_694" x1="63.0882" y1="0" x2="63.0882" y2="175.009" gradientUnits="userSpaceOnUse">
<stop stop-color="#00F0FF"/>
<stop offset="1" stop-color="#00F0FF" stop-opacity="0"/>
</linearGradient>
</defs>
</svg>
