<svg width="1327" height="1233" viewBox="0 0 1327 1233" fill="none" xmlns="http://www.w3.org/2000/svg">
<circle cx="1002" cy="959" r="18" fill="url(#paint0_linear_188_667)"/>
<circle cx="1304" cy="1147" r="18" fill="url(#paint1_linear_188_667)"/>
<path d="M1171.25 1203.04L1189.71 1229.41" stroke="#00FEF3" stroke-opacity="0.42" stroke-width="6" stroke-linecap="round"/>
<path d="M1193.66 1206.99L1167.29 1225.45" stroke="#00FEF3" stroke-opacity="0.42" stroke-width="6" stroke-linecap="round"/>
<circle cx="982.5" cy="798.5" r="23" stroke="#22449B" stroke-width="3"/>
<circle cx="1322" cy="1019" r="3.5" stroke="#22449B" stroke-width="3"/>
<circle cx="1262" cy="904" r="3.5" stroke="#22449B" stroke-width="3"/>
<circle cx="647" cy="1144" r="1.5" stroke="#22449B" stroke-width="3"/>
<circle cx="900" cy="1025" r="9.5" fill="#22449B" stroke="#22449B" stroke-width="3"/>
<path d="M166.748 1055.32C171.748 1066.32 160.748 1075.32 139.248 1079.32C124.996 1079.32 121.5 1078 117 1069.5C113.4 1062.7 121.238 1058.67 132.748 1056.32C148.999 1053 162.748 1046.52 166.748 1055.32Z" fill="url(#paint2_linear_188_667)"/>
<path d="M1014.63 1179.43C1019.63 1190.43 1008.63 1199.43 987.131 1203.43C972.879 1203.43 969.383 1202.11 964.883 1193.61C961.283 1186.81 969.12 1182.77 980.631 1180.43C996.882 1177.11 1010.63 1170.63 1014.63 1179.43Z" fill="url(#paint3_linear_188_667)"/>
<ellipse cx="749" cy="976" rx="18" ry="17" fill="url(#paint4_linear_188_667)"/>
<ellipse cx="207" cy="1063.5" rx="4" ry="4.5" fill="#FE17B5"/>
<path d="M437.574 1051.51L453.712 1065.77" stroke="#F24E29" stroke-width="6" stroke-linecap="round"/>
<path d="M452.768 1050.57L438.515 1066.71" stroke="#F24E29" stroke-width="6" stroke-linecap="round"/>
<circle cx="183" cy="718" r="8.5" stroke="#22449B" stroke-width="3"/>
<circle cx="130.5" cy="1037.5" r="23" stroke="#22449B" stroke-width="3"/>
<circle cx="24.5" cy="1178.5" r="23" stroke="#22449B" stroke-width="3"/>
<circle cx="439" cy="663" r="10.5" fill="#22449B" stroke="#22449B" stroke-width="3"/>
<circle cx="242.5" cy="761.5" r="11" fill="#22449B" stroke="#22449B" stroke-width="3"/>
<circle cx="28" cy="921" r="8.5" stroke="#22449B" stroke-width="3"/>
<path d="M27.8945 763.321L52.3264 784.899" stroke="#FE17B5" stroke-width="6" stroke-linecap="round"/>
<path d="M50.8984 761.894L29.3201 786.326" stroke="#FE17B5" stroke-width="6" stroke-linecap="round"/>
<circle cx="1002" cy="351" r="18" fill="url(#paint5_linear_188_667)"/>
<path d="M232.955 595L251.415 621.371" stroke="#00FEF3" stroke-width="6" stroke-linecap="round"/>
<path d="M255.371 598.956L229 617.415" stroke="#00FEF3" stroke-width="6" stroke-linecap="round"/>
<path d="M1271.89 497.5L1297 454L1322.11 497.5H1271.89Z" stroke="white"/>
<path d="M1297 454.5L1303.5 486" stroke="white"/>
<path d="M1272 497.5L1303.5 486L1322 497.5" stroke="white"/>
<circle cx="1237.5" cy="24.5" r="23" stroke="#22449B" stroke-width="3"/>
<circle cx="1322" cy="411" r="3.5" stroke="#22449B" stroke-width="3"/>
<circle cx="1262" cy="296" r="3.5" stroke="#22449B" stroke-width="3"/>
<circle cx="1140" cy="296" r="1.5" stroke="#22449B" stroke-width="3"/>
<circle cx="900" cy="417" r="9.5" fill="#22449B" stroke="#22449B" stroke-width="3"/>
<circle cx="881" cy="55" r="10.5" stroke="#22449B" stroke-width="3"/>
<ellipse cx="70" cy="609" rx="18" ry="17" fill="url(#paint6_linear_188_667)"/>
<ellipse cx="207" cy="455.5" rx="4" ry="4.5" fill="#FE17B5"/>
<path d="M1135.57 607.514L1151.71 621.767" stroke="#F24E29" stroke-width="6" stroke-linecap="round"/>
<path d="M1150.77 606.572L1136.51 622.709" stroke="#F24E29" stroke-width="6" stroke-linecap="round"/>
<circle cx="314" cy="529" r="9.5" stroke="#22449B"/>
<circle cx="183" cy="110" r="8.5" stroke="#22449B" stroke-width="3"/>
<circle cx="566" cy="388" r="10.5" fill="#22449B" stroke="#22449B" stroke-width="3"/>
<circle cx="455.5" cy="87.5" r="11" fill="#22449B" stroke="#22449B" stroke-width="3"/>
<circle cx="28" cy="313" r="8.5" stroke="#22449B" stroke-width="3"/>
<path d="M343.895 381.321L368.326 402.899" stroke="#FE17B5" stroke-opacity="0.47" stroke-width="6" stroke-linecap="round"/>
<path d="M366.898 379.894L345.32 404.326" stroke="#FE17B5" stroke-opacity="0.47" stroke-width="6" stroke-linecap="round"/>
<defs>
<linearGradient id="paint0_linear_188_667" x1="997" y1="947" x2="1002" y2="977" gradientUnits="userSpaceOnUse">
<stop stop-color="#FE17B5" stop-opacity="0.68"/>
<stop offset="1" stop-color="#FE17B5" stop-opacity="0"/>
</linearGradient>
<linearGradient id="paint1_linear_188_667" x1="1299" y1="1135" x2="1304" y2="1165" gradientUnits="userSpaceOnUse">
<stop stop-color="#FE17B5" stop-opacity="0.68"/>
<stop offset="1" stop-color="#FE17B5" stop-opacity="0"/>
</linearGradient>
<linearGradient id="paint2_linear_188_667" x1="111.5" y1="1065" x2="182.5" y2="1058" gradientUnits="userSpaceOnUse">
<stop stop-color="#FE17B5" stop-opacity="0.6"/>
<stop offset="1" stop-color="#FE17B5" stop-opacity="0"/>
</linearGradient>
<linearGradient id="paint3_linear_188_667" x1="959.383" y1="1189.11" x2="1030.38" y2="1182.11" gradientUnits="userSpaceOnUse">
<stop stop-color="#FE17B5" stop-opacity="0.6"/>
<stop offset="1" stop-color="#FE17B5" stop-opacity="0"/>
</linearGradient>
<linearGradient id="paint4_linear_188_667" x1="749" y1="959" x2="749" y2="993" gradientUnits="userSpaceOnUse">
<stop stop-color="#FE17B5" stop-opacity="0.65"/>
<stop offset="1" stop-color="#FE17B5" stop-opacity="0"/>
</linearGradient>
<linearGradient id="paint5_linear_188_667" x1="997" y1="339" x2="1002" y2="369" gradientUnits="userSpaceOnUse">
<stop stop-color="#FE17B5" stop-opacity="0.68"/>
<stop offset="1" stop-color="#FE17B5" stop-opacity="0"/>
</linearGradient>
<linearGradient id="paint6_linear_188_667" x1="70" y1="592" x2="70" y2="626" gradientUnits="userSpaceOnUse">
<stop stop-color="#FE17B5" stop-opacity="0.65"/>
<stop offset="1" stop-color="#FE17B5" stop-opacity="0"/>
</linearGradient>
</defs>
</svg>
