<svg width="200" height="210" viewBox="0 0 200 210" fill="none" xmlns="http://www.w3.org/2000/svg">
<path d="M105.367 107.698L194.455 153.658C183.682 173.221 167.929 190.108 147.706 199.041C126.626 208.353 101.022 209.87 78.5965 204.12C56.3196 198.408 37.245 184.08 23.233 165.67C9.29214 147.353 1.99567 124.89 2.52711 101.933C3.05855 78.975 11.3868 56.8691 26.1608 39.2088C40.935 21.5483 61.2871 9.37168 83.9099 4.66207C106.533 -0.0475634 130.093 2.98758 150.759 13.2729C170.685 23.1895 186.789 39.2826 196.661 59.0826L105.424 103.226L100.921 105.405L105.367 107.698Z" fill="#FFED00" stroke="black" stroke-width="5"/>
</svg>
