<svg width="245" height="32" viewBox="0 0 245 32" fill="none" xmlns="http://www.w3.org/2000/svg">
<rect y="0.5" width="244.748" height="31.5" rx="13.1238" fill="#28A899" fill-opacity="0.31"/>
<path d="M22.599 22.8L22.499 22.9L22.389 22.8C17.639 18.49 14.499 15.64 14.499 12.75C14.499 10.75 15.999 9.25 17.999 9.25C19.539 9.25 21.039 10.25 21.569 11.61H23.429C23.959 10.25 25.459 9.25 26.999 9.25C28.999 9.25 30.499 10.75 30.499 12.75C30.499 15.64 27.359 18.49 22.599 22.8ZM26.999 7.25C25.259 7.25 23.589 8.06 22.499 9.33C21.409 8.06 19.739 7.25 17.999 7.25C14.919 7.25 12.499 9.66 12.499 12.75C12.499 16.52 15.899 19.61 21.049 24.28L22.499 25.6L23.949 24.28C29.099 19.61 32.499 16.52 32.499 12.75C32.499 9.66 30.079 7.25 26.999 7.25Z" fill="black"/>
<path d="M54.7297 23.75H45.2992V9.43593H54.7297V11.1279H47.2026V15.05H54.7297V16.742H47.2026V22.0581H54.7297V23.75ZM73.2832 23.75H71.4759V17.636C71.4759 17.1746 71.4535 16.7292 71.4086 16.2998C71.3702 15.8704 71.2837 15.5275 71.1491 15.2711C71.0017 14.9956 70.7902 14.7873 70.5146 14.6463C70.239 14.5053 69.8417 14.4348 69.3226 14.4348C68.8163 14.4348 68.31 14.563 67.8037 14.8193C67.2974 15.0693 66.7911 15.3897 66.2848 15.7806C66.304 15.928 66.3201 16.1011 66.3329 16.2998C66.3457 16.492 66.3521 16.6843 66.3521 16.8766V23.75H64.5448V17.636C64.5448 17.1617 64.5224 16.7131 64.4775 16.2901C64.4391 15.8608 64.3525 15.5179 64.218 15.2615C64.0706 14.986 63.8591 14.7809 63.5835 14.6463C63.3079 14.5053 62.9106 14.4348 62.3915 14.4348C61.898 14.4348 61.4013 14.5566 60.9014 14.8001C60.4079 15.0436 59.9144 15.3545 59.421 15.7326V23.75H57.6137V13.012H59.421V14.2041C59.9849 13.7362 60.5457 13.3709 61.1033 13.1082C61.6673 12.8454 62.2665 12.714 62.901 12.714C63.6316 12.714 64.25 12.8678 64.7563 13.1755C65.269 13.4831 65.6503 13.9093 65.9003 14.454C66.6309 13.8388 67.2974 13.3966 67.8998 13.1274C68.5023 12.8518 69.1463 12.714 69.8321 12.714C71.0113 12.714 71.8797 13.0729 72.4373 13.7907C73.0012 14.5021 73.2832 15.4987 73.2832 16.7804V23.75ZM86.213 18.2512C86.213 19.1228 86.088 19.9207 85.8381 20.6449C85.5881 21.3627 85.2357 21.9716 84.7806 22.4714C84.3576 22.9457 83.8578 23.3142 83.281 23.577C82.7106 23.8333 82.105 23.9615 81.4641 23.9615C80.9065 23.9615 80.4002 23.9006 79.9452 23.7788C79.4966 23.6571 79.0383 23.468 78.5705 23.2117V27.7106H76.7632V13.012H78.5705V14.1368C79.0512 13.733 79.5895 13.3966 80.1855 13.1274C80.7879 12.8518 81.4288 12.714 82.1082 12.714C83.4027 12.714 84.4089 13.2043 85.1267 14.1849C85.8509 15.159 86.213 16.5145 86.213 18.2512ZM84.348 18.2993C84.348 17.0047 84.1269 16.037 83.6847 15.3961C83.2425 14.7552 82.5632 14.4348 81.6467 14.4348C81.1276 14.4348 80.6053 14.547 80.0798 14.7713C79.5542 14.9956 79.0512 15.2904 78.5705 15.6557V21.7408C79.0832 21.9716 79.5222 22.1286 79.8875 22.2119C80.2592 22.2952 80.679 22.3369 81.1468 22.3369C82.153 22.3369 82.9381 21.9972 83.5021 21.3179C84.066 20.6385 84.348 19.6323 84.348 18.2993ZM95.7301 14.9827H95.6339C95.3648 14.9187 95.102 14.8738 94.8457 14.8482C94.5957 14.8161 94.2977 14.8001 93.9516 14.8001C93.3941 14.8001 92.8557 14.9251 92.3366 15.175C91.8175 15.4185 91.3176 15.7358 90.837 16.1267V23.75H89.0297V13.012H90.837V14.5982C91.5547 14.0214 92.186 13.6145 92.7308 13.3773C93.2819 13.1338 93.8427 13.012 94.4131 13.012C94.7271 13.012 94.9546 13.0217 95.0956 13.0409C95.2366 13.0537 95.4481 13.0825 95.7301 13.1274V14.9827ZM106.42 18.5685H98.5083C98.5083 19.2286 98.6076 19.8054 98.8063 20.2989C99.005 20.7859 99.2774 21.1865 99.6234 21.5005C99.9567 21.8081 100.351 22.0388 100.806 22.1927C101.267 22.3465 101.774 22.4234 102.325 22.4234C103.055 22.4234 103.789 22.2792 104.526 21.9908C105.27 21.696 105.798 21.4076 106.112 21.1256H106.208V23.0963C105.6 23.3527 104.978 23.5673 104.344 23.7404C103.709 23.9134 103.043 23.9999 102.344 23.9999C100.562 23.9999 99.1716 23.5193 98.1718 22.558C97.1721 21.5902 96.6722 20.2187 96.6722 18.4435C96.6722 16.6875 97.1496 15.2936 98.1045 14.2618C99.0659 13.2299 100.328 12.714 101.892 12.714C103.341 12.714 104.456 13.137 105.238 13.983C106.026 14.8289 106.42 16.0306 106.42 17.5879V18.5685ZM104.661 17.1842C104.654 16.2357 104.414 15.5019 103.94 14.9827C103.472 14.4636 102.757 14.2041 101.796 14.2041C100.828 14.2041 100.056 14.4893 99.4792 15.0597C98.9088 15.63 98.5852 16.3382 98.5083 17.1842H104.661ZM116.831 20.6545C116.831 21.6351 116.424 22.4394 115.61 23.0675C114.803 23.6955 113.697 24.0096 112.294 24.0096C111.499 24.0096 110.768 23.9166 110.102 23.7308C109.442 23.5385 108.887 23.3302 108.439 23.1059V21.0775H108.535C109.105 21.5069 109.74 21.8498 110.438 22.1061C111.137 22.3561 111.807 22.4811 112.447 22.4811C113.242 22.4811 113.864 22.3529 114.312 22.0965C114.761 21.8402 114.985 21.4364 114.985 20.8853C114.985 20.4623 114.864 20.1418 114.62 19.9239C114.377 19.706 113.909 19.5202 113.217 19.3664C112.96 19.3087 112.624 19.2414 112.207 19.1645C111.797 19.0876 111.422 19.0043 111.082 18.9146C110.14 18.6646 109.471 18.2993 109.073 17.8186C108.682 17.3316 108.487 16.7356 108.487 16.0306C108.487 15.5884 108.577 15.1718 108.756 14.7809C108.942 14.3899 109.221 14.0407 109.592 13.733C109.951 13.4318 110.406 13.1947 110.957 13.0217C111.515 12.8422 112.137 12.7525 112.822 12.7525C113.463 12.7525 114.111 12.8326 114.764 12.9928C115.424 13.1466 115.972 13.3357 116.408 13.56V15.4922H116.312C115.851 15.1526 115.29 14.8674 114.63 14.6367C113.97 14.3995 113.322 14.281 112.688 14.281C112.028 14.281 111.47 14.4092 111.015 14.6655C110.56 14.9155 110.333 15.2904 110.333 15.7903C110.333 16.2325 110.47 16.5657 110.746 16.79C111.015 17.0143 111.451 17.197 112.053 17.338C112.387 17.4149 112.758 17.4918 113.168 17.5687C113.585 17.6456 113.931 17.7161 114.207 17.7802C115.046 17.9725 115.694 18.3025 116.149 18.7704C116.604 19.2446 116.831 19.8727 116.831 20.6545ZM127.771 23.75H125.973V22.606C125.813 22.715 125.595 22.8688 125.32 23.0675C125.05 23.2597 124.788 23.4135 124.531 23.5289C124.23 23.6763 123.884 23.7981 123.493 23.8942C123.102 23.9967 122.644 24.048 122.118 24.048C121.151 24.048 120.33 23.7276 119.657 23.0867C118.984 22.4458 118.648 21.6287 118.648 20.6353C118.648 19.8214 118.821 19.1645 119.167 18.6646C119.52 18.1583 120.019 17.761 120.667 17.4726C121.32 17.1842 122.106 16.9887 123.022 16.8862C123.938 16.7836 124.922 16.7067 125.973 16.6554V16.3767C125.973 15.9665 125.9 15.6268 125.752 15.3577C125.611 15.0885 125.406 14.877 125.137 14.7232C124.881 14.5758 124.573 14.4765 124.214 14.4252C123.855 14.3739 123.48 14.3483 123.089 14.3483C122.615 14.3483 122.086 14.4124 121.503 14.5405C120.92 14.6623 120.317 14.8418 119.696 15.0789H119.6V13.2428C119.952 13.1466 120.462 13.0409 121.128 12.9255C121.795 12.8102 122.452 12.7525 123.099 12.7525C123.855 12.7525 124.512 12.8166 125.07 12.9447C125.634 13.0665 126.121 13.278 126.531 13.5792C126.935 13.874 127.242 14.2553 127.454 14.7232C127.665 15.191 127.771 15.771 127.771 16.4632V23.75ZM125.973 21.1064V18.1167C125.422 18.1487 124.772 18.1968 124.022 18.2609C123.278 18.3249 122.689 18.4179 122.253 18.5396C121.734 18.687 121.314 18.9178 120.994 19.2318C120.673 19.5394 120.513 19.9656 120.513 20.5103C120.513 21.1256 120.699 21.5902 121.071 21.9043C121.442 22.2119 122.009 22.3657 122.772 22.3657C123.407 22.3657 123.987 22.2439 124.512 22.0004C125.038 21.7505 125.525 21.4524 125.973 21.1064ZM146.517 23.75H144.719V22.606C144.559 22.715 144.341 22.8688 144.065 23.0675C143.796 23.2597 143.533 23.4135 143.277 23.5289C142.976 23.6763 142.63 23.7981 142.239 23.8942C141.848 23.9967 141.39 24.048 140.864 24.048C139.896 24.048 139.076 23.7276 138.403 23.0867C137.73 22.4458 137.394 21.6287 137.394 20.6353C137.394 19.8214 137.567 19.1645 137.913 18.6646C138.265 18.1583 138.765 17.761 139.413 17.4726C140.066 17.1842 140.851 16.9887 141.768 16.8862C142.684 16.7836 143.668 16.7067 144.719 16.6554V16.3767C144.719 15.9665 144.645 15.6268 144.498 15.3577C144.357 15.0885 144.152 14.877 143.883 14.7232C143.626 14.5758 143.319 14.4765 142.96 14.4252C142.601 14.3739 142.226 14.3483 141.835 14.3483C141.361 14.3483 140.832 14.4124 140.249 14.5405C139.666 14.6623 139.063 14.8418 138.442 15.0789H138.345V13.2428C138.698 13.1466 139.207 13.0409 139.874 12.9255C140.54 12.8102 141.197 12.7525 141.845 12.7525C142.601 12.7525 143.258 12.8166 143.815 12.9447C144.379 13.0665 144.866 13.278 145.277 13.5792C145.68 13.874 145.988 14.2553 146.199 14.7232C146.411 15.191 146.517 15.771 146.517 16.4632V23.75ZM144.719 21.1064V18.1167C144.168 18.1487 143.517 18.1968 142.768 18.2609C142.024 18.3249 141.434 18.4179 140.999 18.5396C140.48 18.687 140.06 18.9178 139.739 19.2318C139.419 19.5394 139.259 19.9656 139.259 20.5103C139.259 21.1256 139.445 21.5902 139.816 21.9043C140.188 22.2119 140.755 22.3657 141.518 22.3657C142.152 22.3657 142.732 22.2439 143.258 22.0004C143.783 21.7505 144.27 21.4524 144.719 21.1064ZM159.446 18.2512C159.446 19.1228 159.321 19.9207 159.072 20.6449C158.822 21.3627 158.469 21.9716 158.014 22.4714C157.591 22.9457 157.091 23.3142 156.514 23.577C155.944 23.8333 155.338 23.9615 154.698 23.9615C154.14 23.9615 153.634 23.9006 153.179 23.7788C152.73 23.6571 152.272 23.468 151.804 23.2117V27.7106H149.997V13.012H151.804V14.1368C152.285 13.733 152.823 13.3966 153.419 13.1274C154.021 12.8518 154.662 12.714 155.342 12.714C156.636 12.714 157.642 13.2043 158.36 14.1849C159.084 15.159 159.446 16.5145 159.446 18.2512ZM157.581 18.2993C157.581 17.0047 157.36 16.037 156.918 15.3961C156.476 14.7552 155.797 14.4348 154.88 14.4348C154.361 14.4348 153.839 14.547 153.313 14.7713C152.788 14.9956 152.285 15.2904 151.804 15.6557V21.7408C152.317 21.9716 152.756 22.1286 153.121 22.2119C153.493 22.2952 153.912 22.3369 154.38 22.3369C155.386 22.3369 156.172 21.9972 156.736 21.3179C157.3 20.6385 157.581 19.6323 157.581 18.2993ZM171.415 18.3858C171.415 20.1354 170.966 21.5165 170.069 22.5291C169.172 23.5417 167.97 24.048 166.464 24.048C164.945 24.048 163.737 23.5417 162.84 22.5291C161.949 21.5165 161.504 20.1354 161.504 18.3858C161.504 16.6362 161.949 15.2551 162.84 14.2425C163.737 13.2235 164.945 12.714 166.464 12.714C167.97 12.714 169.172 13.2235 170.069 14.2425C170.966 15.2551 171.415 16.6362 171.415 18.3858ZM169.55 18.3858C169.55 16.9951 169.278 15.9633 168.733 15.2904C168.188 14.611 167.432 14.2714 166.464 14.2714C165.484 14.2714 164.721 14.611 164.176 15.2904C163.638 15.9633 163.369 16.9951 163.369 18.3858C163.369 19.7317 163.641 20.7539 164.186 21.4524C164.731 22.1446 165.49 22.4907 166.464 22.4907C167.425 22.4907 168.178 22.1478 168.723 21.4621C169.274 20.7699 169.55 19.7445 169.55 18.3858ZM176.164 11.2144H174.126V9.33979H176.164V11.2144ZM176.048 23.75H174.241V13.012H176.048V23.75ZM187.969 23.75H186.171V22.606C186.011 22.715 185.793 22.8688 185.517 23.0675C185.248 23.2597 184.986 23.4135 184.729 23.5289C184.428 23.6763 184.082 23.7981 183.691 23.8942C183.3 23.9967 182.842 24.048 182.316 24.048C181.349 24.048 180.528 23.7276 179.855 23.0867C179.182 22.4458 178.846 21.6287 178.846 20.6353C178.846 19.8214 179.019 19.1645 179.365 18.6646C179.718 18.1583 180.217 17.761 180.865 17.4726C181.518 17.1842 182.303 16.9887 183.22 16.8862C184.136 16.7836 185.12 16.7067 186.171 16.6554V16.3767C186.171 15.9665 186.097 15.6268 185.95 15.3577C185.809 15.0885 185.604 14.877 185.335 14.7232C185.078 14.5758 184.771 14.4765 184.412 14.4252C184.053 14.3739 183.678 14.3483 183.287 14.3483C182.813 14.3483 182.284 14.4124 181.701 14.5405C181.118 14.6623 180.515 14.8418 179.894 15.0789H179.798V13.2428C180.15 13.1466 180.66 13.0409 181.326 12.9255C181.993 12.8102 182.65 12.7525 183.297 12.7525C184.053 12.7525 184.71 12.8166 185.268 12.9447C185.832 13.0665 186.319 13.278 186.729 13.5792C187.132 13.874 187.44 14.2553 187.652 14.7232C187.863 15.191 187.969 15.771 187.969 16.4632V23.75ZM186.171 21.1064V18.1167C185.62 18.1487 184.97 18.1968 184.22 18.2609C183.476 18.3249 182.887 18.4179 182.451 18.5396C181.932 18.687 181.512 18.9178 181.192 19.2318C180.871 19.5394 180.711 19.9656 180.711 20.5103C180.711 21.1256 180.897 21.5902 181.268 21.9043C181.64 22.2119 182.207 22.3657 182.97 22.3657C183.604 22.3657 184.184 22.2439 184.71 22.0004C185.235 21.7505 185.723 21.4524 186.171 21.1064ZM200.158 23.75H198.351V22.6253C197.832 23.0739 197.29 23.4232 196.727 23.6731C196.163 23.923 195.55 24.048 194.89 24.048C193.609 24.048 192.59 23.5545 191.833 22.5676C191.084 21.5806 190.709 20.2123 190.709 18.4627C190.709 17.5527 190.837 16.742 191.093 16.0306C191.356 15.3192 191.708 14.7136 192.151 14.2137C192.586 13.7266 193.093 13.3549 193.67 13.0986C194.253 12.8422 194.855 12.714 195.477 12.714C196.041 12.714 196.541 12.7749 196.976 12.8967C197.412 13.012 197.87 13.1947 198.351 13.4446V8.79184H200.158V23.75ZM198.351 21.1064V14.9443C197.864 14.7264 197.428 14.5758 197.044 14.4925C196.659 14.4092 196.239 14.3675 195.784 14.3675C194.772 14.3675 193.984 14.72 193.42 15.425C192.856 16.1299 192.574 17.1297 192.574 18.4243C192.574 19.6996 192.792 20.6706 193.227 21.3371C193.663 21.9972 194.362 22.3272 195.323 22.3272C195.836 22.3272 196.355 22.2151 196.88 21.9908C197.406 21.7601 197.896 21.4653 198.351 21.1064ZM212.867 18.3858C212.867 20.1354 212.418 21.5165 211.521 22.5291C210.624 23.5417 209.422 24.048 207.916 24.048C206.397 24.048 205.189 23.5417 204.292 22.5291C203.401 21.5165 202.956 20.1354 202.956 18.3858C202.956 16.6362 203.401 15.2551 204.292 14.2425C205.189 13.2235 206.397 12.714 207.916 12.714C209.422 12.714 210.624 13.2235 211.521 14.2425C212.418 15.2551 212.867 16.6362 212.867 18.3858ZM211.002 18.3858C211.002 16.9951 210.73 15.9633 210.185 15.2904C209.64 14.611 208.884 14.2714 207.916 14.2714C206.936 14.2714 206.173 14.611 205.628 15.2904C205.09 15.9633 204.821 16.9951 204.821 18.3858C204.821 19.7317 205.093 20.7539 205.638 21.4524C206.183 22.1446 206.942 22.4907 207.916 22.4907C208.878 22.4907 209.631 22.1478 210.175 21.4621C210.727 20.7699 211.002 19.7445 211.002 18.3858ZM222.375 14.9827H222.278C222.009 14.9187 221.746 14.8738 221.49 14.8482C221.24 14.8161 220.942 14.8001 220.596 14.8001C220.039 14.8001 219.5 14.9251 218.981 15.175C218.462 15.4185 217.962 15.7358 217.481 16.1267V23.75H215.674V13.012H217.481V14.5982C218.199 14.0214 218.83 13.6145 219.375 13.3773C219.926 13.1338 220.487 13.012 221.058 13.012C221.372 13.012 221.599 13.0217 221.74 13.0409C221.881 13.0537 222.093 13.0825 222.375 13.1274V14.9827ZM232.42 23.75H230.623V22.606C230.462 22.715 230.245 22.8688 229.969 23.0675C229.7 23.2597 229.437 23.4135 229.181 23.5289C228.879 23.6763 228.533 23.7981 228.142 23.8942C227.752 23.9967 227.293 24.048 226.768 24.048C225.8 24.048 224.98 23.7276 224.307 23.0867C223.634 22.4458 223.297 21.6287 223.297 20.6353C223.297 19.8214 223.47 19.1645 223.817 18.6646C224.169 18.1583 224.669 17.761 225.316 17.4726C225.97 17.1842 226.755 16.9887 227.671 16.8862C228.588 16.7836 229.572 16.7067 230.623 16.6554V16.3767C230.623 15.9665 230.549 15.6268 230.402 15.3577C230.261 15.0885 230.056 14.877 229.786 14.7232C229.53 14.5758 229.222 14.4765 228.863 14.4252C228.505 14.3739 228.13 14.3483 227.739 14.3483C227.264 14.3483 226.736 14.4124 226.153 14.5405C225.569 14.6623 224.967 14.8418 224.345 15.0789H224.249V13.2428C224.602 13.1466 225.111 13.0409 225.778 12.9255C226.444 12.8102 227.101 12.7525 227.748 12.7525C228.505 12.7525 229.161 12.8166 229.719 12.9447C230.283 13.0665 230.77 13.278 231.18 13.5792C231.584 13.874 231.892 14.2553 232.103 14.7232C232.315 15.191 232.42 15.771 232.42 16.4632V23.75ZM230.623 21.1064V18.1167C230.072 18.1487 229.421 18.1968 228.671 18.2609C227.928 18.3249 227.338 18.4179 226.902 18.5396C226.383 18.687 225.963 18.9178 225.643 19.2318C225.323 19.5394 225.162 19.9656 225.162 20.5103C225.162 21.1256 225.348 21.5902 225.72 21.9043C226.092 22.2119 226.659 22.3657 227.421 22.3657C228.056 22.3657 228.636 22.2439 229.161 22.0004C229.687 21.7505 230.174 21.4524 230.623 21.1064Z" fill="black"/>
</svg>
