<svg width="277" height="32" viewBox="0 0 277 32" fill="none" xmlns="http://www.w3.org/2000/svg">
<rect width="276.999" height="31.5" rx="13.1238" fill="#28A899" fill-opacity="0.31"/>
<path d="M23.9445 6.57825C23.8464 6.57807 23.7494 6.59991 23.6609 6.64216C23.5723 6.68441 23.4943 6.746 23.4326 6.82238L23.3158 6.909C21.0517 6.20812 18.4687 6.72263 16.6705 8.45516C15.9175 9.16967 15.3573 10.0629 15.042 11.052C14.7268 12.041 14.6666 13.0936 14.8671 14.1121C14.8448 14.1318 14.8229 14.1519 14.8015 14.1725L13.779 15.1569C13.5812 15.3445 13.4237 15.5705 13.3161 15.8209C13.2085 16.0714 13.153 16.3412 13.153 16.6138C13.153 16.8864 13.2085 17.1562 13.3161 17.4067C13.4237 17.6571 13.5812 17.8831 13.779 18.0707C14.3014 18.5747 15.0259 18.7637 15.6993 18.6377C15.7819 19.017 15.9749 19.378 16.2807 19.672C16.6836 20.0605 17.2073 20.2613 17.735 20.2757C17.7494 20.7837 17.9581 21.2877 18.3611 21.6762C18.764 22.0647 19.289 22.2668 19.8166 22.28C19.8298 22.7879 20.0398 23.2932 20.4427 23.6817C20.8285 24.0478 21.3338 24.2618 21.8652 24.284C22.3965 24.3062 22.9179 24.1351 23.3329 23.8025L23.9065 24.3538C24.7465 25.1636 26.1089 25.1636 26.9489 24.3538C27.3505 23.9679 27.5592 23.4665 27.5776 22.9599C28.1171 22.946 28.632 22.7311 29.0214 22.3574C29.423 21.9702 29.6317 21.4688 29.6474 20.9622C30.1809 20.9435 30.6888 20.729 31.0742 20.3597C31.3931 20.0539 31.59 19.6746 31.6661 19.2782C32.004 19.3375 32.351 19.3166 32.6793 19.2172C33.0075 19.1178 33.3079 18.9427 33.5561 18.706C33.7541 18.5183 33.9118 18.2923 34.0196 18.0417C34.1273 17.7911 34.1829 17.5212 34.1829 17.2484C34.1829 16.9756 34.1273 16.7057 34.0196 16.4551C33.9118 16.2045 33.7541 15.9785 33.5561 15.7909L32.6111 14.8813L32.8041 14.1594C33.1944 12.6836 32.9967 11.1138 32.2528 9.78081C31.1555 7.80415 29.0266 6.5835 26.7245 6.5835H25.1101C25.0405 6.58005 24.971 6.5783 24.9014 6.57825H23.9445ZM27.1642 11.4556L30.3208 14.4967L30.3247 14.4993L32.6098 16.7017C32.684 16.7721 32.7432 16.8569 32.7836 16.9509C32.824 17.0449 32.8448 17.1461 32.8448 17.2484C32.8448 17.3507 32.824 17.4519 32.7836 17.5459C32.7432 17.6399 32.684 17.7247 32.6098 17.7951C32.4565 17.9403 32.2533 18.0212 32.0421 18.0212C31.831 18.0212 31.6278 17.9403 31.4745 17.7951L29.7406 16.1255C29.6135 16.0036 29.4442 15.9355 29.2681 15.9355C29.092 15.9355 28.9227 16.0036 28.7956 16.1255L28.7772 16.1413C28.7154 16.1999 28.6661 16.2705 28.6324 16.3488C28.5987 16.4272 28.5813 16.5115 28.5813 16.5967C28.5813 16.682 28.5987 16.7663 28.6324 16.8446C28.6661 16.9229 28.7154 16.9936 28.7772 17.0522L30.1291 18.3542C30.4442 18.6561 30.4442 19.147 30.1291 19.4502C29.9897 19.5823 29.8087 19.6617 29.6171 19.6749C29.4255 19.6881 29.2353 19.6341 29.0791 19.5224C28.9488 19.4282 28.7896 19.3827 28.6292 19.3937C28.4687 19.4047 28.3173 19.4716 28.201 19.5827C28.0875 19.6913 28.0189 19.8387 28.0089 19.9955C27.9989 20.1524 28.0483 20.3072 28.1472 20.4293C28.2651 20.5769 28.3232 20.7633 28.31 20.9517C28.2969 21.1401 28.2135 21.3167 28.0764 21.4465C27.935 21.5806 27.7508 21.6604 27.5563 21.672C27.3618 21.6835 27.1694 21.626 27.0132 21.5095C26.8835 21.4122 26.7236 21.3639 26.5618 21.373C26.3999 21.3821 26.2465 21.4482 26.1286 21.5594C26.0135 21.6678 25.9437 21.8158 25.9333 21.9736C25.9228 22.1313 25.9724 22.2872 26.0721 22.4099C26.1927 22.5595 26.2525 22.749 26.2396 22.9407C26.2267 23.1323 26.1421 23.3121 26.0026 23.4442C25.8472 23.5916 25.6412 23.6738 25.427 23.6738C25.2128 23.6738 25.0068 23.5916 24.8515 23.4442L24.2832 22.8969L24.4905 22.6974C24.6885 22.5097 24.8462 22.2837 24.954 22.0331C25.0617 21.7825 25.1173 21.5126 25.1173 21.2398C25.1173 20.967 25.0617 20.6971 24.954 20.4465C24.8462 20.1959 24.6885 19.9699 24.4905 19.7822C24.0983 19.4063 23.5794 19.1909 23.0363 19.1785C23.0203 18.647 22.7954 18.1433 22.4102 17.7767C22.0174 17.4009 21.4981 17.186 20.9546 17.1743C20.9387 16.6428 20.7137 16.139 20.3285 15.7725C20.0764 15.5325 19.7707 15.356 19.4368 15.2576C19.1028 15.1592 18.7503 15.1418 18.4083 15.2068C18.3218 14.8118 18.1193 14.4517 17.8269 14.1725C17.6027 13.9586 17.3355 13.7948 17.0431 13.692C16.7507 13.5893 16.4398 13.55 16.1311 13.5766C16.0277 12.8075 16.1082 12.0248 16.366 11.2929C16.6238 10.5609 17.0516 9.90057 17.6142 9.36605C18.1827 8.82291 18.8644 8.41228 19.6102 8.16357C20.3561 7.91487 21.1478 7.83426 21.9285 7.92752L20.0188 9.33192C19.7744 9.50947 19.5686 9.73469 19.4137 9.994C19.2588 10.2533 19.1581 10.5413 19.1176 10.8406C19.0772 11.1399 19.0978 11.4443 19.1782 11.7355C19.2586 12.0266 19.3972 12.2984 19.5856 12.5345C19.9667 13.0122 20.5172 13.3247 21.1228 13.4068C21.7283 13.489 22.3422 13.3345 22.8368 12.9755L24.9053 11.4569H27.1628L27.1642 11.4556ZM20.7958 10.3885L24.1978 7.89077H24.9014C24.9657 7.89043 25.0301 7.89218 25.0943 7.89602H26.7245C28.5672 7.89602 30.2486 8.87385 31.1057 10.4187C31.6858 11.4635 31.8381 12.6775 31.5349 13.8234L31.5309 13.8365L27.9084 10.336C27.7856 10.2128 27.6189 10.1434 27.445 10.1431H24.6887C24.5494 10.1433 24.4138 10.1879 24.3015 10.2704L22.0597 11.9163C21.8395 12.074 21.5674 12.1415 21.299 12.1052C21.0306 12.0688 20.7863 11.9313 20.616 11.7207C20.5366 11.6229 20.4781 11.51 20.444 11.3887C20.41 11.2675 20.4011 11.1405 20.4179 11.0157C20.4348 10.8909 20.477 10.7709 20.542 10.663C20.607 10.5552 20.6933 10.4617 20.7958 10.3885ZM21.3759 21.6893L21.389 21.6762L22.4102 20.6918L22.422 20.6813C22.5762 20.5411 22.7777 20.4644 22.9861 20.4666C23.1945 20.4688 23.3943 20.5497 23.5455 20.6931C23.6198 20.7635 23.6789 20.8483 23.7193 20.9423C23.7597 21.0363 23.7805 21.1375 23.7805 21.2398C23.7805 21.3421 23.7597 21.4433 23.7193 21.5373C23.6789 21.6313 23.6198 21.7161 23.5455 21.7865L22.5231 22.7709C22.3697 22.9161 22.1666 22.997 21.9554 22.997C21.7442 22.997 21.5411 22.9161 21.3877 22.7709C21.3145 22.7015 21.2559 22.6182 21.2155 22.5257C21.175 22.4333 21.1536 22.3337 21.1523 22.2329C21.1511 22.132 21.1701 22.0319 21.2083 21.9386C21.2465 21.8452 21.3044 21.7604 21.3759 21.6893ZM21.477 19.7704L21.4639 19.7822L20.4427 20.7666L20.4296 20.7784C20.2753 20.9181 20.074 20.9943 19.8659 20.9919C19.6578 20.9895 19.4584 20.9085 19.3074 20.7653C19.234 20.6957 19.1754 20.6119 19.135 20.5192C19.0947 20.4264 19.0735 20.3264 19.0726 20.2252C19.0717 20.124 19.0913 20.0237 19.13 19.9302C19.1688 19.8368 19.226 19.7521 19.2982 19.6812L19.3074 19.672L20.3285 18.6876L20.3377 18.6784C20.4917 18.5371 20.6936 18.4595 20.9026 18.4612C21.1116 18.4629 21.3122 18.5438 21.4639 18.6876C21.5373 18.757 21.5961 18.8404 21.6366 18.9329C21.6772 19.0255 21.6987 19.1252 21.6999 19.2262C21.7012 19.3273 21.6821 19.4275 21.6438 19.521C21.6055 19.6145 21.5487 19.6993 21.477 19.7704ZM19.3835 17.7767L18.3611 18.7611L18.3519 18.7703C18.1979 18.9116 17.996 18.9892 17.787 18.9875C17.578 18.9858 17.3774 18.9049 17.2257 18.7611C17.1515 18.6907 17.0924 18.6059 17.052 18.5119C17.0116 18.418 16.9907 18.3167 16.9907 18.2144C16.9907 18.1121 17.0116 18.0109 17.052 17.9169C17.0924 17.8229 17.1515 17.7382 17.2257 17.6678L18.2469 16.6834C18.4003 16.5378 18.6037 16.4566 18.8152 16.4566C19.0267 16.4566 19.2301 16.5378 19.3835 16.6834C19.4571 16.753 19.5159 16.8368 19.5564 16.9298C19.5968 17.0227 19.6181 17.1228 19.619 17.2241C19.6198 17.3255 19.6002 17.426 19.5614 17.5196C19.5225 17.6131 19.4651 17.6979 19.3927 17.7688L19.3835 17.7767ZM16.8818 16.1767L15.8607 17.1611C15.7074 17.307 15.504 17.3884 15.2924 17.3884C15.0808 17.3884 14.8773 17.307 14.7241 17.1611C14.6496 17.0907 14.5903 17.0059 14.5498 16.9118C14.5093 16.8177 14.4884 16.7163 14.4884 16.6138C14.4884 16.5113 14.5093 16.41 14.5498 16.3159C14.5903 16.2217 14.6496 16.1369 14.7241 16.0665L15.7465 15.0821C15.8998 14.9369 16.103 14.856 16.3142 14.856C16.5254 14.856 16.7285 14.9369 16.8818 15.0821C16.9563 15.1525 17.0156 15.2374 17.0561 15.3315C17.0966 15.4256 17.1175 15.527 17.1175 15.6294C17.1175 15.7319 17.0966 15.8333 17.0561 15.9274C17.0156 16.0215 16.9563 16.1063 16.8818 16.1767Z" fill="black"/>
<path d="M57.0124 23.2502H47.5818V8.93617H57.0124V10.6281H49.4852V14.5503H57.0124V16.2422H49.4852V21.5583H57.0124V23.2502ZM75.5659 23.2502H73.7586V17.1362C73.7586 16.6748 73.7362 16.2294 73.6913 15.8C73.6528 15.3706 73.5663 15.0277 73.4317 14.7714C73.2843 14.4958 73.0729 14.2875 72.7973 14.1465C72.5217 14.0055 72.1243 13.935 71.6052 13.935C71.0989 13.935 70.5926 14.0632 70.0863 14.3196C69.5801 14.5695 69.0738 14.89 68.5675 15.2809C68.5867 15.4283 68.6027 15.6013 68.6155 15.8C68.6283 15.9923 68.6348 16.1845 68.6348 16.3768V23.2502H66.8275V17.1362C66.8275 16.662 66.805 16.2134 66.7602 15.7904C66.7217 15.361 66.6352 15.0181 66.5006 14.7618C66.3532 14.4862 66.1417 14.2811 65.8661 14.1465C65.5906 14.0055 65.1932 13.935 64.6741 13.935C64.1806 13.935 63.6839 14.0568 63.1841 14.3003C62.6906 14.5439 62.1971 14.8547 61.7036 15.2328V23.2502H59.8963V12.5123H61.7036V13.7043C62.2676 13.2365 62.8284 12.8712 63.3859 12.6084C63.9499 12.3457 64.5491 12.2143 65.1836 12.2143C65.9142 12.2143 66.5327 12.3681 67.039 12.6757C67.5517 12.9833 67.933 13.4095 68.1829 13.9543C68.9135 13.339 69.5801 12.8968 70.1825 12.6276C70.7849 12.3521 71.429 12.2143 72.1147 12.2143C73.294 12.2143 74.1623 12.5732 74.7199 13.291C75.2839 14.0023 75.5659 14.9989 75.5659 16.2807V23.2502ZM88.4957 17.7515C88.4957 18.6231 88.3707 19.421 88.1207 20.1452C87.8708 20.863 87.5183 21.4718 87.0633 21.9717C86.6403 22.4459 86.1404 22.8144 85.5636 23.0772C84.9932 23.3336 84.3876 23.4617 83.7467 23.4617C83.1892 23.4617 82.6829 23.4009 82.2278 23.2791C81.7792 23.1573 81.321 22.9683 80.8531 22.7119V27.2109H79.0459V12.5123H80.8531V13.637C81.3338 13.2333 81.8721 12.8968 82.4682 12.6276C83.0706 12.3521 83.7115 12.2143 84.3908 12.2143C85.6854 12.2143 86.6916 12.7045 87.4094 13.6851C88.1336 14.6592 88.4957 16.0147 88.4957 17.7515ZM86.6307 17.7996C86.6307 16.505 86.4096 15.5372 85.9674 14.8964C85.5252 14.2555 84.8458 13.935 83.9294 13.935C83.4103 13.935 82.8879 14.0472 82.3624 14.2715C81.8369 14.4958 81.3338 14.7906 80.8531 15.1559V21.2411C81.3659 21.4718 81.8049 21.6288 82.1702 21.7121C82.5419 21.7954 82.9616 21.8371 83.4295 21.8371C84.4357 21.8371 85.2207 21.4974 85.7847 20.8181C86.3487 20.1388 86.6307 19.1326 86.6307 17.7996ZM98.0127 14.483H97.9166C97.6474 14.4189 97.3847 14.374 97.1283 14.3484C96.8784 14.3164 96.5804 14.3003 96.2343 14.3003C95.6767 14.3003 95.1384 14.4253 94.6193 14.6753C94.1002 14.9188 93.6003 15.236 93.1196 15.627V23.2502H91.3123V12.5123H93.1196V14.0985C93.8374 13.5217 94.4687 13.1147 95.0134 12.8776C95.5646 12.6341 96.1253 12.5123 96.6957 12.5123C97.0098 12.5123 97.2373 12.5219 97.3783 12.5411C97.5193 12.5539 97.7307 12.5828 98.0127 12.6276V14.483ZM108.703 18.0687H100.791C100.791 18.7288 100.89 19.3056 101.089 19.7991C101.288 20.2862 101.56 20.6867 101.906 21.0008C102.239 21.3084 102.633 21.5391 103.089 21.6929C103.55 21.8467 104.056 21.9236 104.607 21.9236C105.338 21.9236 106.072 21.7794 106.809 21.491C107.552 21.1962 108.081 20.9078 108.395 20.6258H108.491V22.5965C107.882 22.8529 107.261 23.0676 106.626 23.2406C105.992 23.4137 105.325 23.5002 104.627 23.5002C102.845 23.5002 101.454 23.0195 100.454 22.0582C99.4547 21.0905 98.9548 19.719 98.9548 17.9438C98.9548 16.1877 99.4323 14.7938 100.387 13.762C101.349 12.7302 102.611 12.2143 104.175 12.2143C105.623 12.2143 106.738 12.6373 107.52 13.4832C108.308 14.3292 108.703 15.5308 108.703 17.0882V18.0687ZM106.943 16.6844C106.937 15.7359 106.697 15.0021 106.222 14.483C105.755 13.9639 105.04 13.7043 104.079 13.7043C103.111 13.7043 102.339 13.9895 101.762 14.5599C101.192 15.1303 100.868 15.8385 100.791 16.6844H106.943ZM119.114 20.1548C119.114 21.1353 118.707 21.9396 117.893 22.5677C117.085 23.1958 115.98 23.5098 114.576 23.5098C113.782 23.5098 113.051 23.4169 112.384 23.231C111.724 23.0388 111.17 22.8305 110.721 22.6062V20.5778H110.818C111.388 21.0072 112.022 21.35 112.721 21.6064C113.42 21.8563 114.089 21.9813 114.73 21.9813C115.525 21.9813 116.146 21.8531 116.595 21.5968C117.044 21.3404 117.268 20.9367 117.268 20.3855C117.268 19.9625 117.146 19.6421 116.903 19.4242C116.659 19.2063 116.191 19.0204 115.499 18.8666C115.243 18.8089 114.906 18.7416 114.49 18.6647C114.08 18.5878 113.705 18.5045 113.365 18.4148C112.423 18.1649 111.753 17.7996 111.356 17.3189C110.965 16.8318 110.769 16.2358 110.769 15.5308C110.769 15.0886 110.859 14.6721 111.039 14.2811C111.224 13.8902 111.503 13.5409 111.875 13.2333C112.234 12.9321 112.689 12.6949 113.24 12.5219C113.798 12.3425 114.419 12.2527 115.105 12.2527C115.746 12.2527 116.393 12.3328 117.047 12.4931C117.707 12.6469 118.255 12.8359 118.691 13.0602V14.9925H118.595C118.133 14.6528 117.572 14.3676 116.912 14.1369C116.252 13.8998 115.605 13.7812 114.97 13.7812C114.31 13.7812 113.753 13.9094 113.298 14.1658C112.843 14.4157 112.615 14.7906 112.615 15.2905C112.615 15.7327 112.753 16.066 113.029 16.2903C113.298 16.5146 113.734 16.6972 114.336 16.8382C114.669 16.9151 115.041 16.992 115.451 17.0689C115.868 17.1459 116.214 17.2164 116.489 17.2804C117.329 17.4727 117.976 17.8028 118.431 18.2706C118.886 18.7449 119.114 19.3729 119.114 20.1548ZM130.054 23.2502H128.256V22.1063C128.096 22.2152 127.878 22.369 127.602 22.5677C127.333 22.76 127.07 22.9138 126.814 23.0291C126.513 23.1765 126.167 23.2983 125.776 23.3944C125.385 23.497 124.927 23.5483 124.401 23.5483C123.433 23.5483 122.613 23.2278 121.94 22.5869C121.267 21.9461 120.931 21.1289 120.931 20.1356C120.931 19.3216 121.104 18.6647 121.45 18.1649C121.802 17.6586 122.302 17.2612 122.949 16.9728C123.603 16.6844 124.388 16.489 125.305 16.3864C126.221 16.2839 127.205 16.207 128.256 16.1557V15.8769C128.256 15.4667 128.182 15.1271 128.035 14.8579C127.894 14.5887 127.689 14.3772 127.42 14.2234C127.163 14.076 126.856 13.9767 126.497 13.9254C126.138 13.8742 125.763 13.8485 125.372 13.8485C124.898 13.8485 124.369 13.9126 123.786 14.0408C123.203 14.1626 122.6 14.342 121.978 14.5791H121.882V12.743C122.235 12.6469 122.744 12.5411 123.411 12.4258C124.077 12.3104 124.734 12.2527 125.382 12.2527C126.138 12.2527 126.795 12.3168 127.352 12.445C127.916 12.5668 128.403 12.7783 128.813 13.0795C129.217 13.3743 129.525 13.7556 129.736 14.2234C129.948 14.6913 130.054 15.2713 130.054 15.9634V23.2502ZM128.256 20.6066V17.6169C127.705 17.6489 127.054 17.697 126.304 17.7611C125.561 17.8252 124.971 17.9181 124.536 18.0399C124.016 18.1873 123.597 18.418 123.276 18.732C122.956 19.0397 122.796 19.4658 122.796 20.0106C122.796 20.6258 122.981 21.0905 123.353 21.4045C123.725 21.7121 124.292 21.8659 125.055 21.8659C125.689 21.8659 126.269 21.7442 126.795 21.5006C127.32 21.2507 127.807 20.9527 128.256 20.6066ZM148.396 22.5773C147.793 22.8657 147.22 23.09 146.675 23.2502C146.136 23.4105 145.563 23.4906 144.954 23.4906C144.179 23.4906 143.467 23.3784 142.82 23.1541C142.173 22.9234 141.618 22.5773 141.157 22.1159C140.689 21.6545 140.327 21.0712 140.071 20.3663C139.814 19.6613 139.686 18.8378 139.686 17.8957C139.686 16.1397 140.167 14.7618 141.128 13.762C142.096 12.7622 143.371 12.2623 144.954 12.2623C145.569 12.2623 146.172 12.3489 146.761 12.5219C147.357 12.6949 147.902 12.9064 148.396 13.1564V15.1655H148.299C147.748 14.7361 147.178 14.4061 146.588 14.1754C146.005 13.9447 145.435 13.8293 144.877 13.8293C143.852 13.8293 143.041 14.1754 142.445 14.8675C141.855 15.5533 141.561 16.5627 141.561 17.8957C141.561 19.1903 141.849 20.1868 142.426 20.8854C143.009 21.5775 143.826 21.9236 144.877 21.9236C145.242 21.9236 145.614 21.8756 145.992 21.7794C146.37 21.6833 146.71 21.5583 147.011 21.4045C147.274 21.2699 147.521 21.1289 147.751 20.9815C147.982 20.8277 148.165 20.6963 148.299 20.5874H148.396V22.5773ZM159.874 17.8861C159.874 19.6357 159.425 21.0168 158.528 22.0294C157.631 23.042 156.429 23.5483 154.923 23.5483C153.404 23.5483 152.196 23.042 151.299 22.0294C150.408 21.0168 149.963 19.6357 149.963 17.8861C149.963 16.1365 150.408 14.7554 151.299 13.7428C152.196 12.7238 153.404 12.2143 154.923 12.2143C156.429 12.2143 157.631 12.7238 158.528 13.7428C159.425 14.7554 159.874 16.1365 159.874 17.8861ZM158.009 17.8861C158.009 16.4954 157.736 15.4635 157.192 14.7906C156.647 14.1113 155.891 13.7716 154.923 13.7716C153.942 13.7716 153.18 14.1113 152.635 14.7906C152.097 15.4635 151.827 16.4954 151.827 17.8861C151.827 19.2319 152.1 20.2541 152.645 20.9527C153.189 21.6448 153.949 21.9909 154.923 21.9909C155.884 21.9909 156.637 21.648 157.182 20.9623C157.733 20.2701 158.009 19.2447 158.009 17.8861ZM164.507 23.2502H162.7V8.29208H164.507V23.2502ZM176.428 23.2502H174.63V22.1063C174.47 22.2152 174.252 22.369 173.976 22.5677C173.707 22.76 173.444 22.9138 173.188 23.0291C172.887 23.1765 172.541 23.2983 172.15 23.3944C171.759 23.497 171.301 23.5483 170.775 23.5483C169.807 23.5483 168.987 23.2278 168.314 22.5869C167.641 21.9461 167.305 21.1289 167.305 20.1356C167.305 19.3216 167.478 18.6647 167.824 18.1649C168.176 17.6586 168.676 17.2612 169.324 16.9728C169.977 16.6844 170.762 16.489 171.679 16.3864C172.595 16.2839 173.579 16.207 174.63 16.1557V15.8769C174.63 15.4667 174.556 15.1271 174.409 14.8579C174.268 14.5887 174.063 14.3772 173.794 14.2234C173.537 14.076 173.23 13.9767 172.871 13.9254C172.512 13.8742 172.137 13.8485 171.746 13.8485C171.272 13.8485 170.743 13.9126 170.16 14.0408C169.577 14.1626 168.974 14.342 168.353 14.5791H168.256V12.743C168.609 12.6469 169.118 12.5411 169.785 12.4258C170.451 12.3104 171.108 12.2527 171.756 12.2527C172.512 12.2527 173.169 12.3168 173.726 12.445C174.29 12.5668 174.777 12.7783 175.188 13.0795C175.591 13.3743 175.899 13.7556 176.11 14.2234C176.322 14.6913 176.428 15.2713 176.428 15.9634V23.2502ZM174.63 20.6066V17.6169C174.079 17.6489 173.428 17.697 172.679 17.7611C171.935 17.8252 171.346 17.9181 170.91 18.0399C170.391 18.1873 169.971 18.418 169.65 18.732C169.33 19.0397 169.17 19.4658 169.17 20.0106C169.17 20.6258 169.356 21.0905 169.727 21.4045C170.099 21.7121 170.666 21.8659 171.429 21.8659C172.063 21.8659 172.643 21.7442 173.169 21.5006C173.694 21.2507 174.181 20.9527 174.63 20.6066ZM189.357 17.7996C189.357 18.6968 189.229 19.5043 188.973 20.2221C188.723 20.9399 188.383 21.5423 187.954 22.0294C187.499 22.5357 186.999 22.917 186.454 23.1733C185.91 23.4233 185.31 23.5483 184.657 23.5483C184.048 23.5483 183.516 23.4746 183.061 23.3271C182.606 23.1862 182.157 22.9939 181.715 22.7504L181.6 23.2502H179.908V8.29208H181.715V13.637C182.221 13.2205 182.76 12.8808 183.33 12.618C183.9 12.3489 184.541 12.2143 185.253 12.2143C186.522 12.2143 187.521 12.7013 188.252 13.6755C188.989 14.6496 189.357 16.0243 189.357 17.7996ZM187.493 17.8476C187.493 16.5659 187.281 15.5949 186.858 14.9348C186.435 14.2683 185.753 13.935 184.81 13.935C184.285 13.935 183.753 14.0504 183.215 14.2811C182.676 14.5054 182.176 14.797 181.715 15.1559V21.3084C182.228 21.5391 182.667 21.6993 183.032 21.789C183.404 21.8788 183.823 21.9236 184.291 21.9236C185.291 21.9236 186.073 21.5968 186.637 20.9431C187.207 20.283 187.493 19.2511 187.493 17.8476ZM201.326 17.8861C201.326 19.6357 200.877 21.0168 199.98 22.0294C199.083 23.042 197.881 23.5483 196.375 23.5483C194.856 23.5483 193.648 23.042 192.751 22.0294C191.86 21.0168 191.415 19.6357 191.415 17.8861C191.415 16.1365 191.86 14.7554 192.751 13.7428C193.648 12.7238 194.856 12.2143 196.375 12.2143C197.881 12.2143 199.083 12.7238 199.98 13.7428C200.877 14.7554 201.326 16.1365 201.326 17.8861ZM199.461 17.8861C199.461 16.4954 199.189 15.4635 198.644 14.7906C198.099 14.1113 197.343 13.7716 196.375 13.7716C195.395 13.7716 194.632 14.1113 194.087 14.7906C193.549 15.4635 193.28 16.4954 193.28 17.8861C193.28 19.2319 193.552 20.2541 194.097 20.9527C194.642 21.6448 195.401 21.9909 196.375 21.9909C197.336 21.9909 198.089 21.648 198.634 20.9623C199.185 20.2701 199.461 19.2447 199.461 17.8861ZM210.833 14.483H210.737C210.468 14.4189 210.205 14.374 209.949 14.3484C209.699 14.3164 209.401 14.3003 209.055 14.3003C208.497 14.3003 207.959 14.4253 207.44 14.6753C206.921 14.9188 206.421 15.236 205.94 15.627V23.2502H204.133V12.5123H205.94V14.0985C206.658 13.5217 207.289 13.1147 207.834 12.8776C208.385 12.6341 208.946 12.5123 209.516 12.5123C209.83 12.5123 210.058 12.5219 210.199 12.5411C210.34 12.5539 210.551 12.5828 210.833 12.6276V14.483ZM220.533 23.2502H218.735V22.1063C218.575 22.2152 218.357 22.369 218.082 22.5677C217.813 22.76 217.55 22.9138 217.293 23.0291C216.992 23.1765 216.646 23.2983 216.255 23.3944C215.864 23.497 215.406 23.5483 214.881 23.5483C213.913 23.5483 213.093 23.2278 212.42 22.5869C211.747 21.9461 211.41 21.1289 211.41 20.1356C211.41 19.3216 211.583 18.6647 211.929 18.1649C212.282 17.6586 212.782 17.2612 213.429 16.9728C214.083 16.6844 214.868 16.489 215.784 16.3864C216.701 16.2839 217.684 16.207 218.735 16.1557V15.8769C218.735 15.4667 218.662 15.1271 218.514 14.8579C218.373 14.5887 218.168 14.3772 217.899 14.2234C217.643 14.076 217.335 13.9767 216.976 13.9254C216.617 13.8742 216.242 13.8485 215.852 13.8485C215.377 13.8485 214.849 13.9126 214.265 14.0408C213.682 14.1626 213.08 14.342 212.458 14.5791H212.362V12.743C212.714 12.6469 213.224 12.5411 213.89 12.4258C214.557 12.3104 215.214 12.2527 215.861 12.2527C216.617 12.2527 217.274 12.3168 217.832 12.445C218.396 12.5668 218.883 12.7783 219.293 13.0795C219.697 13.3743 220.004 13.7556 220.216 14.2234C220.427 14.6913 220.533 15.2713 220.533 15.9634V23.2502ZM218.735 20.6066V17.6169C218.184 17.6489 217.534 17.697 216.784 17.7611C216.041 17.8252 215.451 17.9181 215.015 18.0399C214.496 18.1873 214.076 18.418 213.756 18.732C213.435 19.0397 213.275 19.4658 213.275 20.0106C213.275 20.6258 213.461 21.0905 213.833 21.4045C214.204 21.7121 214.772 21.8659 215.534 21.8659C216.169 21.8659 216.749 21.7442 217.274 21.5006C217.8 21.2507 218.287 20.9527 218.735 20.6066ZM232.723 23.2502H230.915V22.1255C230.396 22.5741 229.855 22.9234 229.291 23.1733C228.727 23.4233 228.115 23.5483 227.455 23.5483C226.173 23.5483 225.154 23.0548 224.398 22.0678C223.648 21.0809 223.273 19.7126 223.273 17.963C223.273 17.0529 223.401 16.2422 223.657 15.5308C223.92 14.8195 224.273 14.2138 224.715 13.7139C225.151 13.2269 225.657 12.8552 226.234 12.5988C226.817 12.3425 227.419 12.2143 228.041 12.2143C228.605 12.2143 229.105 12.2752 229.541 12.3969C229.977 12.5123 230.435 12.6949 230.915 12.9449V8.29208H232.723V23.2502ZM230.915 20.6066V14.4445C230.428 14.2266 229.993 14.076 229.608 13.9927C229.223 13.9094 228.804 13.8677 228.349 13.8677C227.336 13.8677 226.548 14.2202 225.984 14.9252C225.42 15.6302 225.138 16.6299 225.138 17.9245C225.138 19.1999 225.356 20.1708 225.792 20.8373C226.227 21.4974 226.926 21.8275 227.887 21.8275C228.4 21.8275 228.919 21.7153 229.445 21.491C229.97 21.2603 230.46 20.9655 230.915 20.6066ZM245.431 17.8861C245.431 19.6357 244.983 21.0168 244.086 22.0294C243.188 23.042 241.987 23.5483 240.481 23.5483C238.962 23.5483 237.754 23.042 236.856 22.0294C235.966 21.0168 235.52 19.6357 235.52 17.8861C235.52 16.1365 235.966 14.7554 236.856 13.7428C237.754 12.7238 238.962 12.2143 240.481 12.2143C241.987 12.2143 243.188 12.7238 244.086 13.7428C244.983 14.7554 245.431 16.1365 245.431 17.8861ZM243.566 17.8861C243.566 16.4954 243.294 15.4635 242.749 14.7906C242.205 14.1113 241.448 13.7716 240.481 13.7716C239.5 13.7716 238.737 14.1113 238.193 14.7906C237.654 15.4635 237.385 16.4954 237.385 17.8861C237.385 19.2319 237.657 20.2541 238.202 20.9527C238.747 21.6448 239.506 21.9909 240.481 21.9909C241.442 21.9909 242.195 21.648 242.74 20.9623C243.291 20.2701 243.566 19.2447 243.566 17.8861ZM254.939 14.483H254.843C254.574 14.4189 254.311 14.374 254.054 14.3484C253.804 14.3164 253.506 14.3003 253.16 14.3003C252.603 14.3003 252.064 14.4253 251.545 14.6753C251.026 14.9188 250.526 15.236 250.046 15.627V23.2502H248.238V12.5123H250.046V14.0985C250.763 13.5217 251.395 13.1147 251.939 12.8776C252.491 12.6341 253.051 12.5123 253.622 12.5123C253.936 12.5123 254.163 12.5219 254.304 12.5411C254.445 12.5539 254.657 12.5828 254.939 12.6276V14.483ZM264.639 23.2502H262.841V22.1063C262.681 22.2152 262.463 22.369 262.187 22.5677C261.918 22.76 261.655 22.9138 261.399 23.0291C261.098 23.1765 260.752 23.2983 260.361 23.3944C259.97 23.497 259.512 23.5483 258.986 23.5483C258.018 23.5483 257.198 23.2278 256.525 22.5869C255.852 21.9461 255.516 21.1289 255.516 20.1356C255.516 19.3216 255.689 18.6647 256.035 18.1649C256.387 17.6586 256.887 17.2612 257.534 16.9728C258.188 16.6844 258.973 16.489 259.89 16.3864C260.806 16.2839 261.79 16.207 262.841 16.1557V15.8769C262.841 15.4667 262.767 15.1271 262.62 14.8579C262.479 14.5887 262.274 14.3772 262.005 14.2234C261.748 14.076 261.441 13.9767 261.082 13.9254C260.723 13.8742 260.348 13.8485 259.957 13.8485C259.483 13.8485 258.954 13.9126 258.371 14.0408C257.788 14.1626 257.185 14.342 256.563 14.5791H256.467V12.743C256.82 12.6469 257.329 12.5411 257.996 12.4258C258.662 12.3104 259.319 12.2527 259.967 12.2527C260.723 12.2527 261.38 12.3168 261.937 12.445C262.501 12.5668 262.988 12.7783 263.398 13.0795C263.802 13.3743 264.11 13.7556 264.321 14.2234C264.533 14.6913 264.639 15.2713 264.639 15.9634V23.2502ZM262.841 20.6066V17.6169C262.29 17.6489 261.639 17.697 260.889 17.7611C260.146 17.8252 259.556 17.9181 259.121 18.0399C258.601 18.1873 258.182 18.418 257.861 18.732C257.541 19.0397 257.381 19.4658 257.381 20.0106C257.381 20.6258 257.566 21.0905 257.938 21.4045C258.31 21.7121 258.877 21.8659 259.64 21.8659C260.274 21.8659 260.854 21.7442 261.38 21.5006C261.905 21.2507 262.392 20.9527 262.841 20.6066Z" fill="black"/>
</svg>
