<svg width="27" height="28" viewBox="0 0 27 28" fill="none" xmlns="http://www.w3.org/2000/svg">
<path d="M18.0013 10.7186C18.0013 16.5484 9.2511 16.5484 9.2511 10.7186H11.4386C11.4386 13.639 15.8137 13.639 15.8137 10.7186M22.3763 20.5626V23.8439H4.87602V20.5626C4.87602 17.6422 10.7058 16.1875 13.6262 16.1875C16.5465 16.1875 22.3763 17.6422 22.3763 20.5626ZM20.2982 20.5626C20.2982 19.8626 16.8747 18.2657 13.6262 18.2657C10.3777 18.2657 6.95419 19.8626 6.95419 20.5626V21.7657H20.2982M14.1731 3.06226C14.4793 3.06226 14.72 3.30289 14.72 3.60914V6.89045H15.8137V4.15603C16.5878 4.51426 17.2363 5.09688 17.6752 5.82827C18.114 6.55967 18.3229 7.40608 18.2747 8.25766C18.2747 8.25766 19.0403 8.41079 19.095 9.62488H8.15733C8.15733 8.41079 8.97766 8.25766 8.97766 8.25766C8.92948 7.40608 9.13836 6.55967 9.5772 5.82827C10.016 5.09688 10.6646 4.51426 11.4386 4.15603V6.89045H12.5324V3.60914C12.5324 3.30289 12.773 3.06226 13.0793 3.06226" fill="#D94A77"/>
</svg>
