<svg width="27" height="28" viewBox="0 0 27 28" fill="none" xmlns="http://www.w3.org/2000/svg">
<path d="M13.4474 4.82813C13.3493 4.82795 13.2523 4.84979 13.1637 4.89204C13.0751 4.93429 12.9972 4.99587 12.9355 5.07226L12.8187 5.15888C10.5546 4.45799 7.97155 4.9725 6.17339 6.70504C5.42038 7.41955 4.86021 8.31282 4.54492 9.30183C4.22963 10.2908 4.16945 11.3435 4.36998 12.362C4.3477 12.3817 4.32582 12.4018 4.30436 12.4224L3.2819 13.4068C3.08412 13.5944 2.92661 13.8203 2.81897 14.0708C2.71133 14.3213 2.65582 14.5911 2.65582 14.8637C2.65582 15.1363 2.71133 15.4061 2.81897 15.6565C2.92661 15.907 3.08412 16.133 3.2819 16.3206C3.80429 16.8246 4.5288 17.0136 5.20212 16.8876C5.28481 17.2669 5.47776 17.6279 5.78357 17.9219C6.18652 18.3104 6.71021 18.5112 7.23785 18.5256C7.25229 19.0336 7.46098 19.5376 7.86392 19.9261C8.26687 20.3146 8.79188 20.5167 9.31951 20.5299C9.33264 21.0378 9.54264 21.5431 9.94559 21.9316C10.3313 22.2977 10.8367 22.5117 11.368 22.5339C11.8994 22.5561 12.4208 22.385 12.8358 22.0524L13.4093 22.6036C14.2494 23.4135 15.6118 23.4135 16.4518 22.6036C16.8534 22.2178 17.0621 21.7164 17.0805 21.2097C17.62 21.1958 18.1349 20.981 18.5242 20.6073C18.9259 20.2201 19.1346 19.7187 19.1503 19.2121C19.6838 19.1934 20.1916 18.9789 20.577 18.6096C20.896 18.3038 21.0929 17.9245 21.169 17.5281C21.5068 17.5873 21.8539 17.5664 22.1821 17.467C22.5104 17.3676 22.8108 17.1925 23.059 16.9558C23.257 16.7682 23.4147 16.5422 23.5224 16.2916C23.6302 16.041 23.6858 15.7711 23.6858 15.4983C23.6858 15.2255 23.6302 14.9556 23.5224 14.705C23.4147 14.4544 23.257 14.2284 23.059 14.0407L22.114 13.1312L22.3069 12.4093C22.6972 10.9334 22.4996 9.36372 21.7557 8.03068C20.6584 6.05402 18.5295 4.83338 16.2273 4.83338H14.6129C14.5434 4.82993 14.4738 4.82818 14.4042 4.82813H13.4474ZM16.667 9.70547L19.8236 12.7466L19.8276 12.7492L22.1127 14.9516C22.1869 15.022 22.246 15.1068 22.2864 15.2008C22.3268 15.2948 22.3477 15.396 22.3477 15.4983C22.3477 15.6006 22.3268 15.7018 22.2864 15.7958C22.246 15.8898 22.1869 15.9746 22.1127 16.045C21.9593 16.1902 21.7562 16.2711 21.545 16.2711C21.3338 16.2711 21.1307 16.1902 20.9774 16.045L19.2435 14.3754C19.1164 14.2535 18.9471 14.1854 18.771 14.1854C18.5949 14.1854 18.4256 14.2535 18.2985 14.3754L18.2801 14.3912C18.2182 14.4498 18.1689 14.5204 18.1353 14.5987C18.1016 14.677 18.0842 14.7614 18.0842 14.8466C18.0842 14.9319 18.1016 15.0162 18.1353 15.0945C18.1689 15.1728 18.2182 15.2434 18.2801 15.3021L19.632 16.6041C19.947 16.906 19.947 17.3969 19.632 17.7C19.4926 17.8321 19.3116 17.9116 19.12 17.9248C18.9284 17.9379 18.7382 17.884 18.582 17.7722C18.4517 17.6781 18.2924 17.6325 18.132 17.6436C17.9716 17.6546 17.8201 17.7215 17.7039 17.8326C17.5903 17.9412 17.5217 18.0886 17.5118 18.2454C17.5018 18.4022 17.5512 18.5571 17.6501 18.6792C17.7679 18.8268 17.826 19.0132 17.8129 19.2016C17.7998 19.39 17.7164 19.5666 17.5792 19.6964C17.4378 19.8305 17.2537 19.9103 17.0591 19.9218C16.8646 19.9334 16.6723 19.8758 16.5161 19.7594C16.3864 19.6621 16.2265 19.6138 16.0647 19.6229C15.9028 19.632 15.7494 19.698 15.6314 19.8093C15.5164 19.9177 15.4466 20.0657 15.4361 20.2234C15.4257 20.3812 15.4753 20.5371 15.575 20.6598C15.6956 20.8093 15.7554 20.9988 15.7425 21.1905C15.7296 21.3822 15.645 21.562 15.5054 21.6941C15.3501 21.8415 15.1441 21.9237 14.9299 21.9237C14.7157 21.9237 14.5097 21.8415 14.3544 21.6941L13.786 21.1467L13.9934 20.9472C14.1914 20.7596 14.3491 20.5336 14.4568 20.283C14.5646 20.0324 14.6202 19.7625 14.6202 19.4897C14.6202 19.2169 14.5646 18.947 14.4568 18.6964C14.3491 18.4458 14.1914 18.2198 13.9934 18.0321C13.6012 17.6562 13.0823 17.4408 12.5391 17.4284C12.5232 16.8969 12.2982 16.3931 11.9131 16.0266C11.5203 15.6508 11.0009 15.4359 10.4575 15.4241C10.4415 14.8927 10.2166 14.3889 9.8314 14.0224C9.57924 13.7824 9.27356 13.6059 8.93964 13.5075C8.60572 13.4091 8.25317 13.3917 7.91117 13.4567C7.82466 13.0617 7.6222 12.7016 7.32973 12.4224C7.10552 12.2084 6.83836 12.0447 6.54598 11.9419C6.2536 11.8392 5.9427 11.7998 5.63394 11.8265C5.53054 11.0574 5.61106 10.2747 5.86889 9.54276C6.12671 8.8108 6.5545 8.15045 7.1171 7.61593C7.6856 7.07279 8.36723 6.66215 9.11311 6.41345C9.85899 6.16475 10.6507 6.08414 11.4314 6.1774L9.52164 7.5818C9.2773 7.75935 9.07147 7.98457 8.91659 8.24388C8.76171 8.50318 8.66099 8.79118 8.6205 9.09049C8.58002 9.38981 8.60062 9.69422 8.68106 9.98535C8.7615 10.2765 8.9001 10.5483 9.08851 10.7844C9.46954 11.2621 10.0201 11.5746 10.6256 11.6567C11.2312 11.7389 11.8451 11.5844 12.3396 11.2254L14.4082 9.70678H16.6657L16.667 9.70547ZM10.2987 8.63838L13.7007 6.14065H14.4042C14.4686 6.14031 14.5329 6.14206 14.5972 6.1459H16.2273C18.0701 6.1459 19.7515 7.12373 20.6085 8.66857C21.1887 9.71334 21.3409 10.9274 21.0377 12.0733L21.0338 12.0864L17.4112 8.58588C17.2884 8.46272 17.1218 8.39333 16.9479 8.39294H14.1916C14.0523 8.39321 13.9167 8.4378 13.8044 8.52026L11.5626 10.1662C11.3424 10.3238 11.0703 10.3914 10.8019 10.3551C10.5335 10.3187 10.2892 10.1812 10.1188 9.97059C10.0395 9.87282 9.98095 9.75984 9.94689 9.6386C9.91283 9.51735 9.90395 9.39042 9.9208 9.26562C9.93764 9.14082 9.97986 9.02079 10.0448 8.91291C10.1098 8.80504 10.1962 8.71161 10.2987 8.63838ZM10.8788 19.9392L10.8919 19.9261L11.9131 18.9417L11.9249 18.9312C12.0791 18.791 12.2806 18.7143 12.489 18.7165C12.6973 18.7187 12.8972 18.7996 13.0484 18.943C13.1226 19.0134 13.1817 19.0982 13.2221 19.1922C13.2625 19.2861 13.2834 19.3874 13.2834 19.4897C13.2834 19.592 13.2625 19.6932 13.2221 19.7872C13.1817 19.8812 13.1226 19.9659 13.0484 20.0363L12.0259 21.0207C11.8726 21.1659 11.6695 21.2469 11.4583 21.2469C11.2471 21.2469 11.0439 21.1659 10.8906 21.0207C10.8173 20.9514 10.7588 20.868 10.7183 20.7756C10.6779 20.6832 10.6564 20.5836 10.6552 20.4828C10.654 20.3819 10.673 20.2818 10.7112 20.1884C10.7494 20.0951 10.8072 20.0103 10.8788 19.9392ZM10.9799 18.0203L10.9667 18.0321L9.94559 19.0165L9.93246 19.0283C9.77818 19.168 9.57686 19.2442 9.36878 19.2418C9.16071 19.2393 8.96122 19.1584 8.81025 19.0152C8.73685 18.9455 8.67824 18.8618 8.6379 18.769C8.59756 18.6762 8.57633 18.5763 8.57547 18.4751C8.57461 18.3739 8.59415 18.2736 8.63291 18.1801C8.67167 18.0866 8.72886 18.0019 8.80106 17.9311L8.81025 17.9219L9.8314 16.9375L9.84058 16.9283C9.99459 16.787 10.1965 16.7093 10.4055 16.7111C10.6145 16.7128 10.815 16.7937 10.9667 16.9375C11.0402 17.0068 11.0989 17.0903 11.1395 17.1828C11.1801 17.2753 11.2016 17.3751 11.2028 17.4761C11.204 17.5771 11.1849 17.6774 11.1466 17.7709C11.1083 17.8643 11.0516 17.9492 10.9799 18.0203ZM8.88638 16.0266L7.86392 17.011L7.85474 17.0202C7.70073 17.1615 7.49886 17.2391 7.28985 17.2374C7.08085 17.2357 6.88027 17.1548 6.72859 17.011C6.65436 16.9406 6.59524 16.8558 6.55485 16.7618C6.51445 16.6678 6.49361 16.5666 6.49361 16.4643C6.49361 16.362 6.51445 16.2608 6.55485 16.1668C6.59524 16.0728 6.65436 15.988 6.72859 15.9176L7.74973 14.9332C7.90314 14.7877 8.10656 14.7065 8.31806 14.7065C8.52955 14.7065 8.73298 14.7877 8.88638 14.9332C8.95998 15.0029 9.01877 15.0867 9.05923 15.1796C9.09969 15.2726 9.12098 15.3727 9.12184 15.474C9.1227 15.5754 9.1031 15.6758 9.06422 15.7694C9.02534 15.863 8.96798 15.9478 8.89557 16.0187L8.88638 16.0266ZM6.38471 14.4266L5.36357 15.411C5.21031 15.5569 5.00683 15.6383 4.79524 15.6383C4.58366 15.6383 4.38017 15.5569 4.22692 15.411C4.15248 15.3406 4.09319 15.2557 4.05267 15.1616C4.01215 15.0675 3.99125 14.9661 3.99125 14.8637C3.99125 14.7612 4.01215 14.6598 4.05267 14.5657C4.09319 14.4716 4.15248 14.3868 4.22692 14.3164L5.24938 13.332C5.40271 13.1868 5.60586 13.1058 5.81704 13.1058C6.02822 13.1058 6.23137 13.1868 6.38471 13.332C6.45914 13.4024 6.51844 13.4872 6.55896 13.5813C6.59948 13.6754 6.62038 13.7768 6.62038 13.8793C6.62038 13.9818 6.59948 14.0831 6.55896 14.1772C6.51844 14.2714 6.45914 14.3562 6.38471 14.4266Z" fill="#D94A77"/>
</svg>
