<svg width="27" height="28" viewBox="0 0 27 28" fill="none" xmlns="http://www.w3.org/2000/svg">
<path d="M5.83936 2.84839L4.68434 4.00177L6.40293 5.71953L7.55631 4.56615L5.83854 2.84839H5.83936ZM20.9129 2.84839L19.1943 4.56615L20.3485 5.71953L22.0663 4.00259L20.9129 2.84839ZM13.3757 3.36027C13.105 3.36355 12.831 3.37914 12.5554 3.41277C12.5472 3.41277 12.539 3.41113 12.5308 3.41277C9.20353 3.79423 6.55551 6.48244 6.09531 9.79492C5.7278 12.461 6.82704 14.8785 8.65883 16.4355C9.40812 17.075 9.91494 17.9525 10.0944 18.9211V23.843H11.9647C12.2502 24.3328 12.7711 24.6634 13.3757 24.6634C13.9803 24.6634 14.5012 24.3328 14.7867 23.843H16.657V20.5617H16.7341V19.5872C16.7341 18.3846 17.3592 17.1721 18.3748 16.2296C19.7332 14.8695 20.7587 12.9376 20.7587 10.7186C20.7587 6.66619 17.4232 3.32254 13.3757 3.36027ZM13.3757 5.00093C16.5463 4.95663 19.118 7.55215 19.118 10.7186C19.118 12.4364 18.3223 13.9491 17.2206 15.0499L17.2468 15.0762C16.152 16.0858 15.4441 17.446 15.2452 18.9219H11.6571C11.4767 17.5158 10.8737 16.1549 9.73428 15.1787C8.28476 13.9482 7.42096 12.0943 7.70971 10.0008C8.06819 7.41679 10.165 5.3389 12.7342 5.05425C12.9463 5.02467 13.16 5.00715 13.3741 5.00175L13.3757 5.00093ZM1.89113 10.7186V12.3593H4.35211V10.7186H1.89113ZM22.3993 10.7186V12.3593H24.8603V10.7186H22.3993ZM6.40293 17.3583L4.68516 19.0753L5.83936 20.2295L7.55549 18.5117L6.40293 17.3583ZM20.3485 17.3583L19.1951 18.5117L20.9121 20.2295L22.0663 19.0753L20.3485 17.3583ZM11.7351 20.5625H15.0164V22.2032H11.7351V20.5625Z" fill="#D94A77"/>
</svg>
