<svg width="28" height="28" viewBox="0 0 28 28" fill="none" xmlns="http://www.w3.org/2000/svg">
<path d="M4.0327 14C4.0327 14 3.21237 13.6924 3.21237 12.3594C3.21237 11.0263 4.0327 10.7187 4.0327 10.7187M23.7206 13.4873C23.7206 13.4873 24.5409 13.2653 24.5409 12.3594C24.5409 11.4534 23.7206 11.2314 23.7206 11.2314M13.8766 9.07806V15.6407M6.49368 9.07806V15.6407M21.6667 3.55213C21.6667 3.55213 17.2246 9.07806 13.0563 9.07806H4.85303C4.63546 9.07806 4.42681 9.16448 4.27297 9.31832C4.11913 9.47217 4.0327 9.68082 4.0327 9.89838V14.8203C4.0327 15.0379 4.11913 15.2466 4.27297 15.4004C4.42681 15.5542 4.63546 15.6407 4.85303 15.6407H13.0563C17.2246 15.6407 21.6667 21.1897 21.6667 21.1897C21.9774 21.5998 22.9002 21.3189 22.9002 20.6857V4.05355C22.9002 3.42241 22.0286 3.08864 21.6667 3.55213Z" stroke="#D94A77" stroke-width="1.64065" stroke-linecap="round" stroke-linejoin="round"/>
<path d="M8.13434 15.6406V24.2541C8.13434 24.3628 8.17755 24.4672 8.25447 24.5441C8.33139 24.621 8.43572 24.6642 8.5445 24.6642H11.2618C11.3903 24.6643 11.5171 24.6341 11.6318 24.5762C11.7465 24.5183 11.846 24.4342 11.9223 24.3308C11.9986 24.2274 12.0495 24.1075 12.0709 23.9808C12.0924 23.8541 12.0838 23.7242 12.0458 23.6014C11.6161 22.2232 10.5953 20.6692 10.5953 18.1016H11.4156C11.6332 18.1016 11.8419 18.0152 11.9957 17.8613C12.1495 17.7075 12.236 17.4988 12.236 17.2813V16.461C12.236 16.2434 12.1495 16.0347 11.9957 15.8809C11.8419 15.7271 11.6332 15.6406 11.4156 15.6406H10.5953" stroke="#D94A77" stroke-width="1.64065" stroke-linecap="round" stroke-linejoin="round"/>
</svg>
