<svg width="27" height="28" viewBox="0 0 27 28" fill="none" xmlns="http://www.w3.org/2000/svg">
<path d="M23.9885 12.2349L21.7928 8.95193L22.8855 5.13194C22.9536 4.89234 22.8869 4.63462 22.7099 4.45893C22.5335 4.28256 22.2771 4.2173 22.0362 4.28737L18.2227 5.40096L14.9267 3.18127C14.7192 3.04179 14.4533 3.02504 14.2331 3.13989C14.0116 3.25337 13.8694 3.47894 13.8612 3.72743L13.743 7.69952L10.6134 10.1475C10.4172 10.301 10.3205 10.5495 10.3598 10.7952C10.3991 11.041 10.5693 11.2457 10.8045 11.3298L13.7409 12.3825C13.7211 12.3983 13.7002 12.4123 13.6818 12.4308L2.34349 23.7691C2.07654 24.036 2.07654 24.4687 2.34349 24.7357C2.47714 24.8693 2.6518 24.936 2.8268 24.936C3.0018 24.936 3.17647 24.8693 3.31011 24.7357L14.6484 13.3974C14.6925 13.3533 14.7267 13.3034 14.7561 13.2518L15.9052 16.4039C15.9472 16.5187 16.0192 16.6202 16.1137 16.6978C16.2082 16.7754 16.3217 16.8263 16.4425 16.8452C16.4772 16.8505 16.5123 16.8531 16.5475 16.853C16.6519 16.8529 16.7549 16.8289 16.8486 16.7829C16.9423 16.7369 17.0243 16.67 17.0882 16.5874L19.5187 13.4435L23.4474 13.3034C23.6966 13.2948 23.9208 13.1513 24.0336 12.9288C24.146 12.707 24.1286 12.4407 23.9885 12.2349L23.9885 12.2349ZM19.1507 12.089C18.9477 12.0958 18.7583 12.1933 18.6339 12.3539L16.7653 14.7701L15.719 11.9007C15.6496 11.7096 15.4985 11.5603 15.3071 11.4915L12.4319 10.4607L14.8378 8.57939C14.9981 8.45395 15.0935 8.26424 15.1003 8.06121L15.1913 5.00754L17.7247 6.71383C17.808 6.76966 17.9025 6.80661 18.0016 6.82208C18.1006 6.83754 18.2019 6.83115 18.2983 6.80336L21.2302 5.94682L20.3898 8.88359C20.3624 8.98016 20.3565 9.08155 20.3725 9.18063C20.3885 9.27972 20.426 9.37409 20.4824 9.45714L22.2034 11.9807L19.1507 12.089Z" fill="#D94A77"/>
</svg>
