<svg width="282" height="32" viewBox="0 0 282 32" fill="none" xmlns="http://www.w3.org/2000/svg">
<rect width="281.999" height="31.5" rx="13.1238" fill="#28A899" fill-opacity="0.31"/>
<path d="M13.7803 15.75C13.7803 15.75 12.96 15.4424 12.96 14.1094C12.96 12.7763 13.7803 12.4687 13.7803 12.4687M33.4681 15.2373C33.4681 15.2373 34.2885 15.0153 34.2885 14.1094C34.2885 13.2034 33.4681 12.9814 33.4681 12.9814M23.6242 10.8281V17.3907M16.2413 10.8281V17.3907M31.4143 5.30213C31.4143 5.30213 26.9722 10.8281 22.8039 10.8281H14.6006C14.3831 10.8281 14.1744 10.9145 14.0206 11.0683C13.8667 11.2222 13.7803 11.4308 13.7803 11.6484V16.5703C13.7803 16.7879 13.8667 16.9966 14.0206 17.1504C14.1744 17.3042 14.3831 17.3907 14.6006 17.3907H22.8039C26.9722 17.3907 31.4143 22.9397 31.4143 22.9397C31.725 23.3498 32.6478 23.0689 32.6478 22.4357V5.80355C32.6478 5.17241 31.7762 4.83864 31.4143 5.30213Z" stroke="black" stroke-width="1.64065" stroke-linecap="round" stroke-linejoin="round"/>
<path d="M17.882 17.3906V26.0041C17.882 26.1128 17.9252 26.2172 18.0021 26.2941C18.079 26.371 18.1833 26.4142 18.2921 26.4142H21.0095C21.138 26.4143 21.2647 26.3841 21.3794 26.3262C21.4941 26.2683 21.5936 26.1842 21.6699 26.0808C21.7462 25.9774 21.7971 25.8575 21.8185 25.7308C21.84 25.6041 21.8314 25.4742 21.7934 25.3514C21.3637 23.9732 20.3429 22.4192 20.3429 19.8516H21.1633C21.3808 19.8516 21.5895 19.7652 21.7433 19.6113C21.8972 19.4575 21.9836 19.2488 21.9836 19.0313V18.211C21.9836 17.9934 21.8972 17.7847 21.7433 17.6309C21.5895 17.4771 21.3808 17.3906 21.1633 17.3906H20.3429" stroke="black" stroke-width="1.64065" stroke-linecap="round" stroke-linejoin="round"/>
<path d="M57.0033 23.25H47.5728V8.93593H57.0033V10.6279H49.4762V14.55H57.0033V16.242H49.4762V21.5581H57.0033V23.25ZM75.5568 23.25H73.7495V17.136C73.7495 16.6746 73.7271 16.2292 73.6823 15.7998C73.6438 15.3704 73.5573 15.0275 73.4227 14.7711C73.2753 14.4956 73.0638 14.2873 72.7882 14.1463C72.5126 14.0053 72.1153 13.9348 71.5962 13.9348C71.0899 13.9348 70.5836 14.063 70.0773 14.3193C69.571 14.5693 69.0647 14.8897 68.5584 15.2806C68.5776 15.428 68.5937 15.6011 68.6065 15.7998C68.6193 15.992 68.6257 16.1843 68.6257 16.3766V23.25H66.8184V17.136C66.8184 16.6617 66.796 16.2131 66.7511 15.7901C66.7127 15.3608 66.6262 15.0179 66.4916 14.7615C66.3442 14.486 66.1327 14.2809 65.8571 14.1463C65.5815 14.0053 65.1842 13.9348 64.6651 13.9348C64.1716 13.9348 63.6749 14.0566 63.175 14.3001C62.6815 14.5436 62.1881 14.8545 61.6946 15.2326V23.25H59.8873V12.512H61.6946V13.7041C62.2586 13.2362 62.8193 12.8709 63.3769 12.6082C63.9409 12.3454 64.5401 12.214 65.1746 12.214C65.9052 12.214 66.5236 12.3678 67.0299 12.6755C67.5426 12.9831 67.9239 13.4093 68.1739 13.954C68.9045 13.3388 69.571 12.8966 70.1734 12.6274C70.7759 12.3518 71.4199 12.214 72.1057 12.214C73.2849 12.214 74.1533 12.5729 74.7109 13.2907C75.2748 14.0021 75.5568 14.9987 75.5568 16.2804V23.25ZM88.4866 17.7512C88.4866 18.6228 88.3616 19.4207 88.1117 20.1449C87.8617 20.8627 87.5093 21.4716 87.0542 21.9714C86.6313 22.4457 86.1314 22.8142 85.5546 23.077C84.9842 23.3333 84.3786 23.4615 83.7377 23.4615C83.1801 23.4615 82.6738 23.4006 82.2188 23.2788C81.7702 23.1571 81.3119 22.968 80.8441 22.7117V27.2106H79.0368V12.512H80.8441V13.6368C81.3248 13.233 81.8631 12.8966 82.4591 12.6274C83.0615 12.3518 83.7024 12.214 84.3818 12.214C85.6763 12.214 86.6825 12.7043 87.4003 13.6849C88.1245 14.659 88.4866 16.0145 88.4866 17.7512ZM86.6216 17.7993C86.6216 16.5047 86.4005 15.537 85.9583 14.8961C85.5161 14.2552 84.8368 13.9348 83.9203 13.9348C83.4012 13.9348 82.8789 14.047 82.3534 14.2713C81.8279 14.4956 81.3248 14.7904 80.8441 15.1557V21.2408C81.3568 21.4716 81.7958 21.6286 82.1611 21.7119C82.5328 21.7952 82.9526 21.8369 83.4204 21.8369C84.4266 21.8369 85.2117 21.4972 85.7757 20.8179C86.3397 20.1385 86.6216 19.1323 86.6216 17.7993ZM98.0037 14.4827H97.9076C97.6384 14.4187 97.3756 14.3738 97.1193 14.3482C96.8693 14.3161 96.5713 14.3001 96.2252 14.3001C95.6677 14.3001 95.1293 14.4251 94.6102 14.675C94.0911 14.9185 93.5912 15.2358 93.1106 15.6267V23.25H91.3033V12.512H93.1106V14.0982C93.8283 13.5214 94.4596 13.1145 95.0044 12.8773C95.5555 12.6338 96.1163 12.512 96.6867 12.512C97.0007 12.512 97.2282 12.5217 97.3692 12.5409C97.5102 12.5537 97.7217 12.5825 98.0037 12.6274V14.4827ZM108.694 18.0685H100.782C100.782 18.7286 100.881 19.3054 101.08 19.7989C101.279 20.2859 101.551 20.6865 101.897 21.0005C102.23 21.3081 102.624 21.5388 103.079 21.6927C103.541 21.8465 104.047 21.9234 104.598 21.9234C105.329 21.9234 106.063 21.7792 106.8 21.4908C107.543 21.196 108.072 20.9076 108.386 20.6256H108.482V22.5963C107.873 22.8527 107.252 23.0673 106.617 23.2404C105.983 23.4134 105.316 23.4999 104.618 23.4999C102.836 23.4999 101.445 23.0193 100.445 22.058C99.4457 21.0902 98.9458 19.7187 98.9458 17.9435C98.9458 16.1875 99.4232 14.7936 100.378 13.7618C101.339 12.7299 102.602 12.214 104.166 12.214C105.614 12.214 106.729 12.637 107.511 13.483C108.299 14.3289 108.694 15.5306 108.694 17.0879V18.0685ZM106.934 16.6842C106.928 15.7357 106.688 15.0019 106.213 14.4827C105.746 13.9636 105.031 13.7041 104.07 13.7041C103.102 13.7041 102.33 13.9893 101.753 14.5597C101.182 15.13 100.859 15.8382 100.782 16.6842H106.934ZM119.105 20.1545C119.105 21.1351 118.698 21.9394 117.884 22.5675C117.076 23.1955 115.971 23.5096 114.567 23.5096C113.773 23.5096 113.042 23.4166 112.375 23.2308C111.715 23.0385 111.161 22.8302 110.712 22.6059V20.5775H110.808C111.379 21.0069 112.013 21.3498 112.712 21.6061C113.41 21.8561 114.08 21.9811 114.721 21.9811C115.516 21.9811 116.137 21.8529 116.586 21.5965C117.035 21.3402 117.259 20.9364 117.259 20.3853C117.259 19.9623 117.137 19.6418 116.894 19.4239C116.65 19.206 116.182 19.0202 115.49 18.8664C115.234 18.8087 114.897 18.7414 114.481 18.6645C114.071 18.5876 113.696 18.5043 113.356 18.4146C112.414 18.1646 111.744 17.7993 111.347 17.3186C110.956 16.8316 110.76 16.2356 110.76 15.5306C110.76 15.0884 110.85 14.6718 111.03 14.2809C111.215 13.8899 111.494 13.5407 111.866 13.233C112.225 12.9318 112.68 12.6947 113.231 12.5217C113.789 12.3422 114.41 12.2525 115.096 12.2525C115.737 12.2525 116.384 12.3326 117.038 12.4928C117.698 12.6466 118.246 12.8357 118.682 13.06V14.9922H118.586C118.124 14.6526 117.563 14.3674 116.903 14.1367C116.243 13.8995 115.596 13.781 114.961 13.781C114.301 13.781 113.744 13.9092 113.289 14.1655C112.834 14.4155 112.606 14.7904 112.606 15.2903C112.606 15.7325 112.744 16.0657 113.02 16.29C113.289 16.5143 113.724 16.697 114.327 16.838C114.66 16.9149 115.032 16.9918 115.442 17.0687C115.859 17.1456 116.205 17.2161 116.48 17.2802C117.32 17.4725 117.967 17.8025 118.422 18.2704C118.877 18.7446 119.105 19.3727 119.105 20.1545ZM130.045 23.25H128.247V22.106C128.087 22.215 127.869 22.3688 127.593 22.5675C127.324 22.7597 127.061 22.9135 126.805 23.0289C126.504 23.1763 126.158 23.2981 125.767 23.3942C125.376 23.4967 124.917 23.548 124.392 23.548C123.424 23.548 122.604 23.2276 121.931 22.5867C121.258 21.9458 120.922 21.1287 120.922 20.1353C120.922 19.3214 121.095 18.6645 121.441 18.1646C121.793 17.6583 122.293 17.261 122.94 16.9726C123.594 16.6842 124.379 16.4887 125.296 16.3862C126.212 16.2836 127.196 16.2067 128.247 16.1554V15.8767C128.247 15.4665 128.173 15.1268 128.026 14.8577C127.885 14.5885 127.68 14.377 127.41 14.2232C127.154 14.0758 126.847 13.9765 126.488 13.9252C126.129 13.8739 125.754 13.8483 125.363 13.8483C124.889 13.8483 124.36 13.9124 123.777 14.0405C123.194 14.1623 122.591 14.3418 121.969 14.5789H121.873V12.7428C122.226 12.6466 122.735 12.5409 123.402 12.4255C124.068 12.3102 124.725 12.2525 125.372 12.2525C126.129 12.2525 126.786 12.3166 127.343 12.4447C127.907 12.5665 128.394 12.778 128.804 13.0792C129.208 13.374 129.516 13.7553 129.727 14.2232C129.939 14.691 130.045 15.271 130.045 15.9632V23.25ZM128.247 20.6064V17.6167C127.696 17.6487 127.045 17.6968 126.295 17.7609C125.552 17.8249 124.962 17.9179 124.527 18.0396C124.007 18.187 123.588 18.4178 123.267 18.7318C122.947 19.0394 122.787 19.4656 122.787 20.0103C122.787 20.6256 122.972 21.0902 123.344 21.4043C123.716 21.7119 124.283 21.8657 125.046 21.8657C125.68 21.8657 126.26 21.7439 126.786 21.5004C127.311 21.2505 127.798 20.9524 128.247 20.6064ZM142.388 10.7144H140.35V8.83979H142.388V10.7144ZM142.273 23.25H140.465V12.512H142.273V23.25ZM154.827 23.25H153.02V17.136C153.02 16.6425 152.991 16.1811 152.934 15.7517C152.876 15.3159 152.77 14.9762 152.616 14.7327C152.456 14.4635 152.225 14.2649 151.924 14.1367C151.623 14.0021 151.232 13.9348 150.751 13.9348C150.258 13.9348 149.742 14.0566 149.204 14.3001C148.665 14.5436 148.149 14.8545 147.656 15.2326V23.25H145.849V12.512H147.656V13.7041C148.22 13.2362 148.803 12.8709 149.406 12.6082C150.008 12.3454 150.626 12.214 151.261 12.214C152.421 12.214 153.305 12.5633 153.914 13.2619C154.523 13.9604 154.827 14.9666 154.827 16.2804V23.25ZM166.248 22.5771C165.645 22.8655 165.072 23.0898 164.527 23.25C163.989 23.4102 163.415 23.4903 162.806 23.4903C162.031 23.4903 161.32 23.3782 160.672 23.1539C160.025 22.9232 159.471 22.5771 159.009 22.1156C158.541 21.6542 158.179 21.071 157.923 20.366C157.666 19.6611 157.538 18.8375 157.538 17.8954C157.538 16.1394 158.019 14.7615 158.98 13.7618C159.948 12.762 161.223 12.2621 162.806 12.2621C163.422 12.2621 164.024 12.3486 164.614 12.5217C165.21 12.6947 165.754 12.9062 166.248 13.1561V15.1653H166.152C165.601 14.7359 165.03 14.4058 164.441 14.1751C163.857 13.9444 163.287 13.8291 162.729 13.8291C161.704 13.8291 160.893 14.1751 160.297 14.8673C159.708 15.553 159.413 16.5624 159.413 17.8954C159.413 19.19 159.701 20.1866 160.278 20.8851C160.861 21.5773 161.678 21.9234 162.729 21.9234C163.095 21.9234 163.466 21.8753 163.845 21.7792C164.223 21.683 164.562 21.5581 164.864 21.4043C165.126 21.2697 165.373 21.1287 165.604 20.9813C165.835 20.8275 166.017 20.6961 166.152 20.5871H166.248V22.5771ZM177.563 18.0685H169.651C169.651 18.7286 169.75 19.3054 169.949 19.7989C170.148 20.2859 170.42 20.6865 170.766 21.0005C171.099 21.3081 171.493 21.5388 171.949 21.6927C172.41 21.8465 172.916 21.9234 173.467 21.9234C174.198 21.9234 174.932 21.7792 175.669 21.4908C176.412 21.196 176.941 20.9076 177.255 20.6256H177.351V22.5963C176.742 22.8527 176.121 23.0673 175.486 23.2404C174.852 23.4134 174.185 23.4999 173.487 23.4999C171.705 23.4999 170.314 23.0193 169.314 22.058C168.315 21.0902 167.815 19.7187 167.815 17.9435C167.815 16.1875 168.292 14.7936 169.247 13.7618C170.209 12.7299 171.471 12.214 173.035 12.214C174.483 12.214 175.598 12.637 176.38 13.483C177.168 14.3289 177.563 15.5306 177.563 17.0879V18.0685ZM175.803 16.6842C175.797 15.7357 175.557 15.0019 175.082 14.4827C174.615 13.9636 173.9 13.7041 172.939 13.7041C171.971 13.7041 171.199 13.9893 170.622 14.5597C170.052 15.13 169.728 15.8382 169.651 16.6842H175.803ZM189.281 23.25H187.474V17.136C187.474 16.6425 187.445 16.1811 187.387 15.7517C187.33 15.3159 187.224 14.9762 187.07 14.7327C186.91 14.4635 186.679 14.2649 186.378 14.1367C186.077 14.0021 185.686 13.9348 185.205 13.9348C184.712 13.9348 184.196 14.0566 183.657 14.3001C183.119 14.5436 182.603 14.8545 182.11 15.2326V23.25H180.302V12.512H182.11V13.7041C182.674 13.2362 183.257 12.8709 183.859 12.6082C184.462 12.3454 185.08 12.214 185.715 12.214C186.875 12.214 187.759 12.5633 188.368 13.2619C188.977 13.9604 189.281 14.9666 189.281 16.2804V23.25ZM198.337 23.1539C197.997 23.2436 197.625 23.3173 197.222 23.375C196.824 23.4327 196.469 23.4615 196.155 23.4615C195.059 23.4615 194.226 23.1667 193.655 22.5771C193.085 21.9875 192.8 21.0422 192.8 19.7412V14.0309H191.579V12.512H192.8V9.4262H194.607V12.512H198.337V14.0309H194.607V18.9241C194.607 19.488 194.62 19.9302 194.645 20.2507C194.671 20.5647 194.761 20.8595 194.914 21.1351C195.055 21.3914 195.248 21.5805 195.491 21.7023C195.741 21.8176 196.119 21.8753 196.626 21.8753C196.92 21.8753 197.228 21.8337 197.548 21.7503C197.869 21.6606 198.1 21.5869 198.241 21.5292H198.337V23.1539ZM202.47 10.7144H200.432V8.83979H202.47V10.7144ZM202.355 23.25H200.548V12.512H202.355V23.25ZM215.218 12.512L210.872 23.25H209.056L204.739 12.512H206.7L210.026 21.0582L213.324 12.512H215.218ZM225.542 23.25H223.745V22.106C223.584 22.215 223.366 22.3688 223.091 22.5675C222.822 22.7597 222.559 22.9135 222.303 23.0289C222.001 23.1763 221.655 23.2981 221.264 23.3942C220.873 23.4967 220.415 23.548 219.89 23.548C218.922 23.548 218.102 23.2276 217.429 22.5867C216.756 21.9458 216.419 21.1287 216.419 20.1353C216.419 19.3214 216.592 18.6645 216.938 18.1646C217.291 17.6583 217.791 17.261 218.438 16.9726C219.092 16.6842 219.877 16.4887 220.793 16.3862C221.71 16.2836 222.693 16.2067 223.745 16.1554V15.8767C223.745 15.4665 223.671 15.1268 223.523 14.8577C223.382 14.5885 223.177 14.377 222.908 14.2232C222.652 14.0758 222.344 13.9765 221.985 13.9252C221.626 13.8739 221.251 13.8483 220.861 13.8483C220.386 13.8483 219.858 13.9124 219.274 14.0405C218.691 14.1623 218.089 14.3418 217.467 14.5789H217.371V12.7428C217.723 12.6466 218.233 12.5409 218.899 12.4255C219.566 12.3102 220.223 12.2525 220.87 12.2525C221.626 12.2525 222.283 12.3166 222.841 12.4447C223.405 12.5665 223.892 12.778 224.302 13.0792C224.706 13.374 225.013 13.7553 225.225 14.2232C225.436 14.691 225.542 15.271 225.542 15.9632V23.25ZM223.745 20.6064V17.6167C223.193 17.6487 222.543 17.6968 221.793 17.7609C221.05 17.8249 220.46 17.9179 220.024 18.0396C219.505 18.187 219.085 18.4178 218.765 18.7318C218.444 19.0394 218.284 19.4656 218.284 20.0103C218.284 20.6256 218.47 21.0902 218.842 21.4043C219.213 21.7119 219.781 21.8657 220.543 21.8657C221.178 21.8657 221.758 21.7439 222.283 21.5004C222.809 21.2505 223.296 20.9524 223.745 20.6064ZM237.732 23.25H235.924V22.1253C235.405 22.5739 234.864 22.9232 234.3 23.1731C233.736 23.423 233.124 23.548 232.464 23.548C231.182 23.548 230.163 23.0545 229.407 22.0676C228.657 21.0806 228.282 19.7123 228.282 17.9627C228.282 17.0527 228.41 16.242 228.666 15.5306C228.929 14.8192 229.282 14.2136 229.724 13.7137C230.16 13.2266 230.666 12.8549 231.243 12.5986C231.826 12.3422 232.428 12.214 233.05 12.214C233.614 12.214 234.114 12.2749 234.55 12.3967C234.986 12.512 235.444 12.6947 235.924 12.9446V8.29184H237.732V23.25ZM235.924 20.6064V14.4443C235.437 14.2264 235.002 14.0758 234.617 13.9925C234.233 13.9092 233.813 13.8675 233.358 13.8675C232.345 13.8675 231.557 14.22 230.993 14.925C230.429 15.6299 230.147 16.6297 230.147 17.9243C230.147 19.1996 230.365 20.1706 230.801 20.8371C231.236 21.4972 231.935 21.8272 232.896 21.8272C233.409 21.8272 233.928 21.7151 234.454 21.4908C234.979 21.2601 235.469 20.9653 235.924 20.6064ZM250.44 17.8858C250.44 19.6354 249.992 21.0165 249.095 22.0291C248.197 23.0417 246.996 23.548 245.49 23.548C243.971 23.548 242.763 23.0417 241.865 22.0291C240.975 21.0165 240.529 19.6354 240.529 17.8858C240.529 16.1362 240.975 14.7551 241.865 13.7425C242.763 12.7235 243.971 12.214 245.49 12.214C246.996 12.214 248.197 12.7235 249.095 13.7425C249.992 14.7551 250.44 16.1362 250.44 17.8858ZM248.575 17.8858C248.575 16.4951 248.303 15.4633 247.758 14.7904C247.214 14.111 246.457 13.7714 245.49 13.7714C244.509 13.7714 243.746 14.111 243.202 14.7904C242.663 15.4633 242.394 16.4951 242.394 17.8858C242.394 19.2317 242.667 20.2539 243.211 20.9524C243.756 21.6446 244.515 21.9907 245.49 21.9907C246.451 21.9907 247.204 21.6478 247.749 20.9621C248.3 20.2699 248.575 19.2445 248.575 17.8858ZM259.948 14.4827H259.852C259.583 14.4187 259.32 14.3738 259.063 14.3482C258.814 14.3161 258.516 14.3001 258.169 14.3001C257.612 14.3001 257.074 14.4251 256.554 14.675C256.035 14.9185 255.535 15.2358 255.055 15.6267V23.25H253.247V12.512H255.055V14.0982C255.773 13.5214 256.404 13.1145 256.949 12.8773C257.5 12.6338 258.06 12.512 258.631 12.512C258.945 12.512 259.172 12.5217 259.313 12.5409C259.454 12.5537 259.666 12.5825 259.948 12.6274V14.4827ZM269.648 23.25H267.85V22.106C267.69 22.215 267.472 22.3688 267.196 22.5675C266.927 22.7597 266.664 22.9135 266.408 23.0289C266.107 23.1763 265.761 23.2981 265.37 23.3942C264.979 23.4967 264.521 23.548 263.995 23.548C263.027 23.548 262.207 23.2276 261.534 22.5867C260.861 21.9458 260.525 21.1287 260.525 20.1353C260.525 19.3214 260.698 18.6645 261.044 18.1646C261.396 17.6583 261.896 17.261 262.543 16.9726C263.197 16.6842 263.982 16.4887 264.899 16.3862C265.815 16.2836 266.799 16.2067 267.85 16.1554V15.8767C267.85 15.4665 267.776 15.1268 267.629 14.8577C267.488 14.5885 267.283 14.377 267.014 14.2232C266.757 14.0758 266.45 13.9765 266.091 13.9252C265.732 13.8739 265.357 13.8483 264.966 13.8483C264.492 13.8483 263.963 13.9124 263.38 14.0405C262.797 14.1623 262.194 14.3418 261.573 14.5789H261.476V12.7428C261.829 12.6466 262.338 12.5409 263.005 12.4255C263.671 12.3102 264.328 12.2525 264.976 12.2525C265.732 12.2525 266.389 12.3166 266.946 12.4447C267.51 12.5665 267.997 12.778 268.408 13.0792C268.811 13.374 269.119 13.7553 269.33 14.2232C269.542 14.691 269.648 15.271 269.648 15.9632V23.25ZM267.85 20.6064V17.6167C267.299 17.6487 266.648 17.6968 265.898 17.7609C265.155 17.8249 264.565 17.9179 264.13 18.0396C263.611 18.187 263.191 18.4178 262.87 18.7318C262.55 19.0394 262.39 19.4656 262.39 20.0103C262.39 20.6256 262.575 21.0902 262.947 21.4043C263.319 21.7119 263.886 21.8657 264.649 21.8657C265.283 21.8657 265.863 21.7439 266.389 21.5004C266.914 21.2505 267.401 20.9524 267.85 20.6064Z" fill="black"/>
</svg>
