<svg width="259" height="32" viewBox="0 0 259 32" fill="none" xmlns="http://www.w3.org/2000/svg">
<rect width="258.999" height="31.5" rx="13.1238" fill="#28A899" fill-opacity="0.31"/>
<path d="M16.0879 4.59851L14.9329 5.75189L16.6514 7.46966L17.8048 6.31628L16.0871 4.59851H16.0879ZM31.1614 4.59851L29.4428 6.31628L30.597 7.46966L32.3148 5.75271L31.1614 4.59851ZM23.6242 5.1104C23.3535 5.11368 23.0795 5.12926 22.8039 5.1629C22.7957 5.1629 22.7875 5.16126 22.7793 5.1629C19.452 5.54435 16.804 8.23256 16.3438 11.545C15.9763 14.2111 17.0756 16.6286 18.9073 18.1856C19.6566 18.8251 20.1635 19.7026 20.3429 20.6712V25.5932H22.2133C22.4987 26.0829 23.0197 26.4135 23.6242 26.4135C24.2288 26.4135 24.7497 26.0829 25.0352 25.5932H26.9055V22.3118H26.9827V21.3373C26.9827 20.1347 27.6077 18.9222 28.6233 17.9797C29.9818 16.6196 31.0072 14.6877 31.0072 12.4687C31.0072 8.41631 27.6717 5.07266 23.6242 5.1104ZM23.6242 6.75105C26.7948 6.70675 29.3665 9.30227 29.3665 12.4687C29.3665 14.1865 28.5708 15.6992 27.4691 16.8001L27.4954 16.8263C26.4005 17.8359 25.6926 19.1961 25.4938 20.672H21.9056C21.7252 19.266 21.1222 17.905 19.9828 16.9289C18.5333 15.6984 17.6695 13.8444 17.9582 11.7509C18.3167 9.16691 20.4135 7.08902 22.9827 6.80437C23.1949 6.7748 23.4085 6.75727 23.6226 6.75187L23.6242 6.75105ZM12.1396 12.4687V14.1094H14.6006V12.4687H12.1396ZM32.6478 12.4687V14.1094H35.1088V12.4687H32.6478ZM16.6514 19.1085L14.9337 20.8254L16.0879 21.9796L17.804 20.2618L16.6514 19.1085ZM30.597 19.1085L29.4436 20.2618L31.1606 21.9796L32.3148 20.8254L30.597 19.1085ZM21.9836 22.3127H25.2649V23.9533H21.9836V22.3127Z" fill="black"/>
<path d="M56.9527 23.25H47.5221V8.93593H56.9527V10.6279H49.4255V14.55H56.9527V16.242H49.4255V21.5581H56.9527V23.25ZM75.5062 23.25H73.6989V17.136C73.6989 16.6746 73.6765 16.2292 73.6316 15.7998C73.5931 15.3704 73.5066 15.0275 73.372 14.7711C73.2246 14.4956 73.0131 14.2873 72.7376 14.1463C72.462 14.0053 72.0646 13.9348 71.5455 13.9348C71.0392 13.9348 70.5329 14.063 70.0266 14.3193C69.5203 14.5693 69.014 14.8897 68.5078 15.2806C68.527 15.428 68.543 15.6011 68.5558 15.7998C68.5686 15.992 68.575 16.1843 68.575 16.3766V23.25H66.7678V17.136C66.7678 16.6617 66.7453 16.2131 66.7005 15.7901C66.662 15.3608 66.5755 15.0179 66.4409 14.7615C66.2935 14.486 66.082 14.2809 65.8064 14.1463C65.5309 14.0053 65.1335 13.9348 64.6144 13.9348C64.1209 13.9348 63.6242 14.0566 63.1244 14.3001C62.6309 14.5436 62.1374 14.8545 61.6439 15.2326V23.25H59.8366V12.512H61.6439V13.7041C62.2079 13.2362 62.7687 12.8709 63.3262 12.6082C63.8902 12.3454 64.4894 12.214 65.1239 12.214C65.8545 12.214 66.473 12.3678 66.9793 12.6755C67.492 12.9831 67.8733 13.4093 68.1232 13.954C68.8538 13.3388 69.5203 12.8966 70.1228 12.6274C70.7252 12.3518 71.3693 12.214 72.055 12.214C73.2342 12.214 74.1026 12.5729 74.6602 13.2907C75.2242 14.0021 75.5062 14.9987 75.5062 16.2804V23.25ZM88.4359 17.7512C88.4359 18.6228 88.311 19.4207 88.061 20.1449C87.8111 20.8627 87.4586 21.4716 87.0036 21.9714C86.5806 22.4457 86.0807 22.8142 85.5039 23.077C84.9335 23.3333 84.3279 23.4615 83.687 23.4615C83.1294 23.4615 82.6232 23.4006 82.1681 23.2788C81.7195 23.1571 81.2613 22.968 80.7934 22.7117V27.2106H78.9862V12.512H80.7934V13.6368C81.2741 13.233 81.8124 12.8966 82.4085 12.6274C83.0109 12.3518 83.6518 12.214 84.3311 12.214C85.6257 12.214 86.6319 12.7043 87.3497 13.6849C88.0738 14.659 88.4359 16.0145 88.4359 17.7512ZM86.571 17.7993C86.571 16.5047 86.3499 15.537 85.9077 14.8961C85.4655 14.2552 84.7861 13.9348 83.8697 13.9348C83.3506 13.9348 82.8282 14.047 82.3027 14.2713C81.7772 14.4956 81.2741 14.7904 80.7934 15.1557V21.2408C81.3061 21.4716 81.7451 21.6286 82.1104 21.7119C82.4822 21.7952 82.9019 21.8369 83.3698 21.8369C84.376 21.8369 85.161 21.4972 85.725 20.8179C86.289 20.1385 86.571 19.1323 86.571 17.7993ZM97.953 14.4827H97.8569C97.5877 14.4187 97.325 14.3738 97.0686 14.3482C96.8187 14.3161 96.5207 14.3001 96.1746 14.3001C95.617 14.3001 95.0787 14.4251 94.5596 14.675C94.0404 14.9185 93.5406 15.2358 93.0599 15.6267V23.25H91.2526V12.512H93.0599V14.0982C93.7777 13.5214 94.409 13.1145 94.9537 12.8773C95.5049 12.6338 96.0656 12.512 96.636 12.512C96.95 12.512 97.1776 12.5217 97.3186 12.5409C97.4595 12.5537 97.671 12.5825 97.953 12.6274V14.4827ZM108.643 18.0685H100.731C100.731 18.7286 100.831 19.3054 101.029 19.7989C101.228 20.2859 101.5 20.6865 101.846 21.0005C102.18 21.3081 102.574 21.5388 103.029 21.6927C103.49 21.8465 103.997 21.9234 104.548 21.9234C105.278 21.9234 106.012 21.7792 106.749 21.4908C107.493 21.196 108.021 20.9076 108.335 20.6256H108.431V22.5963C107.823 22.8527 107.201 23.0673 106.566 23.2404C105.932 23.4134 105.265 23.4999 104.567 23.4999C102.785 23.4999 101.395 23.0193 100.395 22.058C99.395 21.0902 98.8951 19.7187 98.8951 17.9435C98.8951 16.1875 99.3726 14.7936 100.327 13.7618C101.289 12.7299 102.551 12.214 104.115 12.214C105.563 12.214 106.679 12.637 107.46 13.483C108.249 14.3289 108.643 15.5306 108.643 17.0879V18.0685ZM106.884 16.6842C106.877 15.7357 106.637 15.0019 106.163 14.4827C105.695 13.9636 104.98 13.7041 104.019 13.7041C103.051 13.7041 102.279 13.9893 101.702 14.5597C101.132 15.13 100.808 15.8382 100.731 16.6842H106.884ZM119.054 20.1545C119.054 21.1351 118.647 21.9394 117.833 22.5675C117.026 23.1955 115.92 23.5096 114.517 23.5096C113.722 23.5096 112.991 23.4166 112.325 23.2308C111.665 23.0385 111.11 22.8302 110.662 22.6059V20.5775H110.758C111.328 21.0069 111.963 21.3498 112.661 21.6061C113.36 21.8561 114.03 21.9811 114.67 21.9811C115.465 21.9811 116.087 21.8529 116.535 21.5965C116.984 21.3402 117.208 20.9364 117.208 20.3853C117.208 19.9623 117.087 19.6418 116.843 19.4239C116.599 19.206 116.132 19.0202 115.439 18.8664C115.183 18.8087 114.847 18.7414 114.43 18.6645C114.02 18.5876 113.645 18.5043 113.305 18.4146C112.363 18.1646 111.694 17.7993 111.296 17.3186C110.905 16.8316 110.71 16.2356 110.71 15.5306C110.71 15.0884 110.799 14.6718 110.979 14.2809C111.165 13.8899 111.444 13.5407 111.815 13.233C112.174 12.9318 112.629 12.6947 113.18 12.5217C113.738 12.3422 114.36 12.2525 115.045 12.2525C115.686 12.2525 116.333 12.3326 116.987 12.4928C117.647 12.6466 118.195 12.8357 118.631 13.06V14.9922H118.535C118.073 14.6526 117.513 14.3674 116.853 14.1367C116.192 13.8995 115.545 13.781 114.911 13.781C114.251 13.781 113.693 13.9092 113.238 14.1655C112.783 14.4155 112.555 14.7904 112.555 15.2903C112.555 15.7325 112.693 16.0657 112.969 16.29C113.238 16.5143 113.674 16.697 114.276 16.838C114.61 16.9149 114.981 16.9918 115.391 17.0687C115.808 17.1456 116.154 17.2161 116.43 17.2802C117.269 17.4725 117.916 17.8025 118.371 18.2704C118.827 18.7446 119.054 19.3727 119.054 20.1545ZM129.994 23.25H128.196V22.106C128.036 22.215 127.818 22.3688 127.542 22.5675C127.273 22.7597 127.011 22.9135 126.754 23.0289C126.453 23.1763 126.107 23.2981 125.716 23.3942C125.325 23.4967 124.867 23.548 124.341 23.548C123.374 23.548 122.553 23.2276 121.88 22.5867C121.207 21.9458 120.871 21.1287 120.871 20.1353C120.871 19.3214 121.044 18.6645 121.39 18.1646C121.743 17.6583 122.242 17.261 122.89 16.9726C123.543 16.6842 124.328 16.4887 125.245 16.3862C126.161 16.2836 127.145 16.2067 128.196 16.1554V15.8767C128.196 15.4665 128.122 15.1268 127.975 14.8577C127.834 14.5885 127.629 14.377 127.36 14.2232C127.103 14.0758 126.796 13.9765 126.437 13.9252C126.078 13.8739 125.703 13.8483 125.312 13.8483C124.838 13.8483 124.309 13.9124 123.726 14.0405C123.143 14.1623 122.54 14.3418 121.919 14.5789H121.823V12.7428C122.175 12.6466 122.685 12.5409 123.351 12.4255C124.018 12.3102 124.675 12.2525 125.322 12.2525C126.078 12.2525 126.735 12.3166 127.293 12.4447C127.857 12.5665 128.344 12.778 128.754 13.0792C129.158 13.374 129.465 13.7553 129.677 14.2232C129.888 14.691 129.994 15.271 129.994 15.9632V23.25ZM128.196 20.6064V17.6167C127.645 17.6487 126.995 17.6968 126.245 17.7609C125.501 17.8249 124.912 17.9179 124.476 18.0396C123.957 18.187 123.537 18.4178 123.217 18.7318C122.896 19.0394 122.736 19.4656 122.736 20.0103C122.736 20.6256 122.922 21.0902 123.293 21.4043C123.665 21.7119 124.232 21.8657 124.995 21.8657C125.629 21.8657 126.209 21.7439 126.735 21.5004C127.261 21.2505 127.748 20.9524 128.196 20.6064ZM142.337 10.7144H140.299V8.83979H142.337V10.7144ZM142.222 23.25H140.415V12.512H142.222V23.25ZM154.777 23.25H152.969V17.136C152.969 16.6425 152.941 16.1811 152.883 15.7517C152.825 15.3159 152.719 14.9762 152.566 14.7327C152.405 14.4635 152.175 14.2649 151.874 14.1367C151.572 14.0021 151.181 13.9348 150.701 13.9348C150.207 13.9348 149.691 14.0566 149.153 14.3001C148.615 14.5436 148.099 14.8545 147.605 15.2326V23.25H145.798V12.512H147.605V13.7041C148.169 13.2362 148.752 12.8709 149.355 12.6082C149.957 12.3454 150.576 12.214 151.21 12.214C152.37 12.214 153.255 12.5633 153.863 13.2619C154.472 13.9604 154.777 14.9666 154.777 16.2804V23.25ZM165.928 20.1545C165.928 21.1351 165.521 21.9394 164.707 22.5675C163.9 23.1955 162.794 23.5096 161.391 23.5096C160.596 23.5096 159.865 23.4166 159.199 23.2308C158.539 23.0385 157.984 22.8302 157.536 22.6059V20.5775H157.632C158.202 21.0069 158.837 21.3498 159.535 21.6061C160.234 21.8561 160.904 21.9811 161.544 21.9811C162.339 21.9811 162.961 21.8529 163.409 21.5965C163.858 21.3402 164.082 20.9364 164.082 20.3853C164.082 19.9623 163.961 19.6418 163.717 19.4239C163.473 19.206 163.006 19.0202 162.313 18.8664C162.057 18.8087 161.721 18.7414 161.304 18.6645C160.894 18.5876 160.519 18.5043 160.179 18.4146C159.237 18.1646 158.568 17.7993 158.17 17.3186C157.779 16.8316 157.584 16.2356 157.584 15.5306C157.584 15.0884 157.674 14.6718 157.853 14.2809C158.039 13.8899 158.318 13.5407 158.689 13.233C159.048 12.9318 159.503 12.6947 160.054 12.5217C160.612 12.3422 161.234 12.2525 161.919 12.2525C162.56 12.2525 163.208 12.3326 163.861 12.4928C164.521 12.6466 165.069 12.8357 165.505 13.06V14.9922H165.409C164.948 14.6526 164.387 14.3674 163.727 14.1367C163.067 13.8995 162.419 13.781 161.785 13.781C161.125 13.781 160.567 13.9092 160.112 14.1655C159.657 14.4155 159.43 14.7904 159.43 15.2903C159.43 15.7325 159.567 16.0657 159.843 16.29C160.112 16.5143 160.548 16.697 161.15 16.838C161.484 16.9149 161.855 16.9918 162.265 17.0687C162.682 17.1456 163.028 17.2161 163.304 17.2802C164.143 17.4725 164.79 17.8025 165.246 18.2704C165.701 18.7446 165.928 19.3727 165.928 20.1545ZM177.973 17.7512C177.973 18.6228 177.848 19.4207 177.598 20.1449C177.349 20.8627 176.996 21.4716 176.541 21.9714C176.118 22.4457 175.618 22.8142 175.041 23.077C174.471 23.3333 173.865 23.4615 173.224 23.4615C172.667 23.4615 172.161 23.4006 171.706 23.2788C171.257 23.1571 170.799 22.968 170.331 22.7117V27.2106H168.524V12.512H170.331V13.6368C170.812 13.233 171.35 12.8966 171.946 12.6274C172.548 12.3518 173.189 12.214 173.869 12.214C175.163 12.214 176.169 12.7043 176.887 13.6849C177.611 14.659 177.973 16.0145 177.973 17.7512ZM176.108 17.7993C176.108 16.5047 175.887 15.537 175.445 14.8961C175.003 14.2552 174.324 13.9348 173.407 13.9348C172.888 13.9348 172.366 14.047 171.84 14.2713C171.315 14.4956 170.812 14.7904 170.331 15.1557V21.2408C170.844 21.4716 171.283 21.6286 171.648 21.7119C172.02 21.7952 172.439 21.8369 172.907 21.8369C173.913 21.8369 174.699 21.4972 175.262 20.8179C175.826 20.1385 176.108 19.1323 176.108 17.7993ZM182.732 10.7144H180.694V8.83979H182.732V10.7144ZM182.617 23.25H180.809V12.512H182.617V23.25ZM192.893 14.4827H192.797C192.528 14.4187 192.265 14.3738 192.009 14.3482C191.759 14.3161 191.461 14.3001 191.115 14.3001C190.557 14.3001 190.019 14.4251 189.5 14.675C188.981 14.9185 188.481 15.2358 188 15.6267V23.25H186.193V12.512H188V14.0982C188.718 13.5214 189.349 13.1145 189.894 12.8773C190.445 12.6338 191.006 12.512 191.576 12.512C191.89 12.512 192.118 12.5217 192.259 12.5409C192.4 12.5537 192.611 12.5825 192.893 12.6274V14.4827ZM202.593 23.25H200.795V22.106C200.635 22.215 200.417 22.3688 200.141 22.5675C199.872 22.7597 199.61 22.9135 199.353 23.0289C199.052 23.1763 198.706 23.2981 198.315 23.3942C197.924 23.4967 197.466 23.548 196.94 23.548C195.973 23.548 195.152 23.2276 194.479 22.5867C193.806 21.9458 193.47 21.1287 193.47 20.1353C193.47 19.3214 193.643 18.6645 193.989 18.1646C194.341 17.6583 194.841 17.261 195.489 16.9726C196.142 16.6842 196.927 16.4887 197.844 16.3862C198.76 16.2836 199.744 16.2067 200.795 16.1554V15.8767C200.795 15.4665 200.721 15.1268 200.574 14.8577C200.433 14.5885 200.228 14.377 199.959 14.2232C199.702 14.0758 199.395 13.9765 199.036 13.9252C198.677 13.8739 198.302 13.8483 197.911 13.8483C197.437 13.8483 196.908 13.9124 196.325 14.0405C195.742 14.1623 195.139 14.3418 194.518 14.5789H194.422V12.7428C194.774 12.6466 195.284 12.5409 195.95 12.4255C196.617 12.3102 197.274 12.2525 197.921 12.2525C198.677 12.2525 199.334 12.3166 199.892 12.4447C200.455 12.5665 200.943 12.778 201.353 13.0792C201.756 13.374 202.064 13.7553 202.276 14.2232C202.487 14.691 202.593 15.271 202.593 15.9632V23.25ZM200.795 20.6064V17.6167C200.244 17.6487 199.594 17.6968 198.844 17.7609C198.1 17.8249 197.511 17.9179 197.075 18.0396C196.556 18.187 196.136 18.4178 195.816 18.7318C195.495 19.0394 195.335 19.4656 195.335 20.0103C195.335 20.6256 195.521 21.0902 195.892 21.4043C196.264 21.7119 196.831 21.8657 197.594 21.8657C198.228 21.8657 198.808 21.7439 199.334 21.5004C199.859 21.2505 200.347 20.9524 200.795 20.6064ZM214.782 23.25H212.975V22.1253C212.456 22.5739 211.914 22.9232 211.35 23.1731C210.786 23.423 210.174 23.548 209.514 23.548C208.233 23.548 207.214 23.0545 206.457 22.0676C205.708 21.0806 205.333 19.7123 205.333 17.9627C205.333 17.0527 205.461 16.242 205.717 15.5306C205.98 14.8192 206.332 14.2136 206.775 13.7137C207.21 13.2266 207.717 12.8549 208.293 12.5986C208.877 12.3422 209.479 12.214 210.101 12.214C210.665 12.214 211.165 12.2749 211.6 12.3967C212.036 12.512 212.494 12.6947 212.975 12.9446V8.29184H214.782V23.25ZM212.975 20.6064V14.4443C212.488 14.2264 212.052 14.0758 211.668 13.9925C211.283 13.9092 210.863 13.8675 210.408 13.8675C209.396 13.8675 208.608 14.22 208.044 14.925C207.48 15.6299 207.198 16.6297 207.198 17.9243C207.198 19.1996 207.415 20.1706 207.851 20.8371C208.287 21.4972 208.986 21.8272 209.947 21.8272C210.46 21.8272 210.979 21.7151 211.504 21.4908C212.03 21.2601 212.52 20.9653 212.975 20.6064ZM227.491 17.8858C227.491 19.6354 227.042 21.0165 226.145 22.0291C225.248 23.0417 224.046 23.548 222.54 23.548C221.021 23.548 219.813 23.0417 218.916 22.0291C218.025 21.0165 217.58 19.6354 217.58 17.8858C217.58 16.1362 218.025 14.7551 218.916 13.7425C219.813 12.7235 221.021 12.214 222.54 12.214C224.046 12.214 225.248 12.7235 226.145 13.7425C227.042 14.7551 227.491 16.1362 227.491 17.8858ZM225.626 17.8858C225.626 16.4951 225.354 15.4633 224.809 14.7904C224.264 14.111 223.508 13.7714 222.54 13.7714C221.56 13.7714 220.797 14.111 220.252 14.7904C219.714 15.4633 219.445 16.4951 219.445 17.8858C219.445 19.2317 219.717 20.2539 220.262 20.9524C220.807 21.6446 221.566 21.9907 222.54 21.9907C223.502 21.9907 224.255 21.6478 224.799 20.9621C225.351 20.2699 225.626 19.2445 225.626 17.8858ZM236.999 14.4827H236.902C236.633 14.4187 236.37 14.3738 236.114 14.3482C235.864 14.3161 235.566 14.3001 235.22 14.3001C234.663 14.3001 234.124 14.4251 233.605 14.675C233.086 14.9185 232.586 15.2358 232.105 15.6267V23.25H230.298V12.512H232.105V14.0982C232.823 13.5214 233.454 13.1145 233.999 12.8773C234.55 12.6338 235.111 12.512 235.682 12.512C235.996 12.512 236.223 12.5217 236.364 12.5409C236.505 12.5537 236.717 12.5825 236.999 12.6274V14.4827ZM246.698 23.25H244.901V22.106C244.74 22.215 244.522 22.3688 244.247 22.5675C243.978 22.7597 243.715 22.9135 243.459 23.0289C243.157 23.1763 242.811 23.2981 242.42 23.3942C242.029 23.4967 241.571 23.548 241.046 23.548C240.078 23.548 239.258 23.2276 238.585 22.5867C237.912 21.9458 237.575 21.1287 237.575 20.1353C237.575 19.3214 237.748 18.6645 238.094 18.1646C238.447 17.6583 238.947 17.261 239.594 16.9726C240.248 16.6842 241.033 16.4887 241.949 16.3862C242.866 16.2836 243.85 16.2067 244.901 16.1554V15.8767C244.901 15.4665 244.827 15.1268 244.68 14.8577C244.539 14.5885 244.333 14.377 244.064 14.2232C243.808 14.0758 243.5 13.9765 243.141 13.9252C242.782 13.8739 242.408 13.8483 242.017 13.8483C241.542 13.8483 241.014 13.9124 240.43 14.0405C239.847 14.1623 239.245 14.3418 238.623 14.5789H238.527V12.7428C238.88 12.6466 239.389 12.5409 240.056 12.4255C240.722 12.3102 241.379 12.2525 242.026 12.2525C242.782 12.2525 243.439 12.3166 243.997 12.4447C244.561 12.5665 245.048 12.778 245.458 13.0792C245.862 13.374 246.17 13.7553 246.381 14.2232C246.593 14.691 246.698 15.271 246.698 15.9632V23.25ZM244.901 20.6064V17.6167C244.349 17.6487 243.699 17.6968 242.949 17.7609C242.206 17.8249 241.616 17.9179 241.18 18.0396C240.661 18.187 240.241 18.4178 239.921 18.7318C239.601 19.0394 239.44 19.4656 239.44 20.0103C239.44 20.6256 239.626 21.0902 239.998 21.4043C240.37 21.7119 240.937 21.8657 241.699 21.8657C242.334 21.8657 242.914 21.7439 243.439 21.5004C243.965 21.2505 244.452 20.9524 244.901 20.6064Z" fill="black"/>
</svg>
