<svg width="988" height="428" viewBox="0 0 988 428" fill="none" xmlns="http://www.w3.org/2000/svg">
<path d="M309.171 170.527L167.462 338.634L155.785 352.468L92.4429 427.608L110.935 353.215L134.873 257.041H0L141.73 88.954L216.728 0L174.379 170.527H309.171Z" fill="url(#paint0_linear_722_131)"/>
<path d="M309.171 170.527L174.197 330.809L167.462 338.876L176.98 300.802C178.942 292.988 178.157 284.738 174.757 277.434C171.357 270.131 165.548 264.219 158.306 260.691C153.518 258.339 148.254 257.118 142.919 257.121H0L141.77 88.8325L132.312 126.846C130.382 134.661 131.186 142.901 134.591 150.196C137.996 157.49 143.796 163.398 151.026 166.937C155.81 169.281 161.066 170.502 166.393 170.506L309.171 170.527Z" fill="url(#paint1_linear_722_131)"/>
<path d="M682.315 319.618H614.665V101.058H682.315V319.618Z" fill="black"/>
<path d="M988 98.7593C977.264 123.465 968.145 136.07 944.223 155.622H866.14V317.294H798.516V155.622H695.93L739.708 98.7593H988Z" fill="black"/>
<path d="M601.049 261.517L557.272 317.723H364.175V99.1382H431.825V261.517H601.049Z" fill="black"/>
<path d="M382.245 410.225C378.906 410.225 376.079 409.477 373.763 407.982C371.448 406.486 369.686 404.427 368.478 401.805C367.289 399.162 366.675 396.129 366.634 392.708C366.675 389.225 367.31 386.172 368.539 383.55C369.768 380.907 371.54 378.858 373.856 377.404C376.171 375.928 378.978 375.191 382.276 375.191C385.636 375.191 388.556 376.01 391.035 377.649C393.534 379.288 395.245 381.532 396.167 384.38L391.742 385.793C390.963 383.806 389.724 382.269 388.023 381.184C386.343 380.077 384.417 379.524 382.245 379.524C379.807 379.524 377.789 380.087 376.191 381.214C374.593 382.321 373.405 383.867 372.626 385.855C371.848 387.842 371.448 390.127 371.428 392.708C371.469 396.683 372.391 399.879 374.194 402.296C375.997 404.693 378.681 405.892 382.245 405.892C384.499 405.892 386.415 405.38 387.992 404.355C389.59 403.311 390.799 401.794 391.619 399.807L396.167 401.159C394.938 404.11 393.135 406.363 390.758 407.92C388.382 409.457 385.544 410.225 382.245 410.225ZM432.373 410.225C429.074 410.225 426.257 409.477 423.922 407.982C421.586 406.486 419.793 404.417 418.544 401.774C417.294 399.131 416.669 396.099 416.669 392.677C416.669 389.194 417.304 386.142 418.574 383.519C419.845 380.897 421.648 378.858 423.983 377.404C426.339 375.928 429.136 375.191 432.373 375.191C435.692 375.191 438.519 375.939 440.855 377.434C443.211 378.909 445.004 380.968 446.233 383.611C447.483 386.234 448.108 389.256 448.108 392.677C448.108 396.16 447.483 399.223 446.233 401.866C444.983 404.489 443.18 406.537 440.824 408.012C438.468 409.488 435.651 410.225 432.373 410.225ZM432.373 405.892C436.061 405.892 438.806 404.673 440.609 402.235C442.412 399.776 443.314 396.59 443.314 392.677C443.314 388.662 442.402 385.466 440.578 383.089C438.775 380.712 436.04 379.524 432.373 379.524C429.894 379.524 427.845 380.087 426.227 381.214C424.629 382.321 423.43 383.867 422.631 385.855C421.852 387.822 421.463 390.096 421.463 392.677C421.463 396.672 422.385 399.879 424.229 402.296C426.073 404.693 428.788 405.892 432.373 405.892ZM472.404 409.303V364.127H476.922V409.303H472.404ZM503.652 409.303V364.127H508.17V409.303H503.652ZM548.33 410.225C545.093 410.225 542.286 409.508 539.91 408.074C537.554 406.64 535.72 404.622 534.409 402.02C533.097 399.418 532.442 396.365 532.442 392.862C532.442 389.235 533.087 386.101 534.378 383.458C535.669 380.815 537.482 378.776 539.817 377.342C542.174 375.908 544.95 375.191 548.146 375.191C551.424 375.191 554.221 375.949 556.536 377.465C558.851 378.961 560.602 381.112 561.791 383.919C562.979 386.726 563.522 390.075 563.42 393.968H558.81V392.37C558.728 388.067 557.796 384.82 556.013 382.628C554.251 380.436 551.67 379.34 548.269 379.34C544.704 379.34 541.969 380.497 540.063 382.812C538.178 385.127 537.236 388.426 537.236 392.708C537.236 396.888 538.178 400.135 540.063 402.45C541.969 404.745 544.663 405.892 548.146 405.892C550.522 405.892 552.592 405.349 554.354 404.263C556.136 403.157 557.54 401.569 558.564 399.5L562.774 401.129C561.463 404.017 559.527 406.261 556.966 407.859C554.425 409.436 551.547 410.225 548.33 410.225ZM535.638 393.968V390.188H560.992V393.968H535.638ZM600.91 410.225C597.571 410.225 594.743 409.477 592.428 407.982C590.113 406.486 588.351 404.427 587.142 401.805C585.954 399.162 585.339 396.129 585.298 392.708C585.339 389.225 585.974 386.172 587.204 383.55C588.433 380.907 590.205 378.858 592.52 377.404C594.835 375.928 597.642 375.191 600.941 375.191C604.301 375.191 607.22 376.01 609.699 377.649C612.199 379.288 613.91 381.532 614.832 384.38L610.406 385.793C609.628 383.806 608.388 382.269 606.688 381.184C605.008 380.077 603.082 379.524 600.91 379.524C598.472 379.524 596.454 380.087 594.856 381.214C593.258 382.321 592.07 383.867 591.291 385.855C590.512 387.842 590.113 390.127 590.092 392.708C590.133 396.683 591.055 399.879 592.858 402.296C594.661 404.693 597.345 405.892 600.91 405.892C603.164 405.892 605.079 405.38 606.657 404.355C608.255 403.311 609.464 401.794 610.283 399.807L614.832 401.159C613.602 404.11 611.799 406.363 609.423 407.92C607.046 409.457 604.209 410.225 600.91 410.225ZM656.148 409.303C654.284 409.692 652.44 409.846 650.617 409.764C648.814 409.682 647.195 409.293 645.761 408.596C644.347 407.9 643.272 406.814 642.534 405.339C641.94 404.11 641.612 402.87 641.551 401.62C641.51 400.35 641.489 398.906 641.489 397.287V366.893H645.976V397.103C645.976 398.496 645.986 399.664 646.007 400.606C646.048 401.528 646.263 402.348 646.652 403.065C647.39 404.437 648.558 405.257 650.156 405.523C651.774 405.79 653.772 405.728 656.148 405.339V409.303ZM634.39 379.985V376.113H656.148V379.985H634.39ZM680.205 369.813V364.742H684.722V369.813H680.205ZM680.205 409.303V376.113H684.722V409.303H680.205ZM719.812 409.303L707.765 376.113H712.344L722.147 403.403L731.889 376.113H736.53L724.483 409.303H719.812ZM771.797 410.225C768.56 410.225 765.753 409.508 763.376 408.074C761.02 406.64 759.186 404.622 757.875 402.02C756.564 399.418 755.908 396.365 755.908 392.862C755.908 389.235 756.554 386.101 757.845 383.458C759.135 380.815 760.948 378.776 763.284 377.342C765.64 375.908 768.416 375.191 771.612 375.191C774.89 375.191 777.687 375.949 780.002 377.465C782.317 378.961 784.069 381.112 785.257 383.919C786.446 386.726 786.989 390.075 786.886 393.968H782.276V392.37C782.194 388.067 781.262 384.82 779.48 382.628C777.718 380.436 775.136 379.34 771.735 379.34C768.17 379.34 765.435 380.497 763.53 382.812C761.645 385.127 760.703 388.426 760.703 392.708C760.703 396.888 761.645 400.135 763.53 402.45C765.435 404.745 768.129 405.892 771.612 405.892C773.989 405.892 776.058 405.349 777.82 404.263C779.603 403.157 781.006 401.569 782.031 399.5L786.241 401.129C784.93 404.017 782.993 406.261 780.432 407.859C777.892 409.436 775.013 410.225 771.797 410.225ZM759.105 393.968V390.188H784.458V393.968H759.105Z" fill="black"/>
<defs>
<linearGradient id="paint0_linear_722_131" x1="309.413" y1="171.414" x2="6.29193" y2="254.419" gradientUnits="userSpaceOnUse">
<stop offset="0.01" stop-color="#36D9FF"/>
<stop offset="0.26" stop-color="#3D8AEA"/>
<stop offset="0.5" stop-color="#4444D7"/>
<stop offset="0.98" stop-color="#3A3345"/>
</linearGradient>
<linearGradient id="paint1_linear_722_131" x1="0.504157" y1="256.637" x2="309.857" y2="170.688" gradientUnits="userSpaceOnUse">
<stop stop-color="#36D9FF"/>
<stop offset="1" stop-color="#4A00C5"/>
</linearGradient>
</defs>
</svg>
