<svg width="243" height="32" viewBox="0 0 243 32" fill="none" xmlns="http://www.w3.org/2000/svg">
<rect width="242.999" height="31.5" rx="13.1238" fill="#28A899" fill-opacity="0.31"/>
<path d="M34.4874 13.985L32.2917 10.7021L33.3845 6.88206C33.4525 6.64246 33.3858 6.38474 33.2088 6.20905C33.0324 6.03268 32.7761 5.96742 32.5351 6.03749L28.7216 7.15108L25.4256 4.93139C25.2181 4.79191 24.9522 4.77517 24.7321 4.89001C24.5106 5.00349 24.3684 5.22906 24.3602 5.47755L24.2419 9.44964L21.1123 11.8976C20.9162 12.0511 20.8194 12.2996 20.8587 12.5454C20.898 12.7911 21.0683 12.9958 21.3034 13.0799L24.2398 14.1327C24.22 14.1484 24.1992 14.1624 24.1807 14.1809L12.8424 25.5192C12.5755 25.7861 12.5755 26.2189 12.8424 26.4858C12.9761 26.6195 13.1507 26.6861 13.3257 26.6861C13.5007 26.6861 13.6754 26.6195 13.809 26.4858L25.1473 15.1475C25.1914 15.1034 25.2256 15.0535 25.255 15.0019L26.4041 18.154C26.4462 18.2688 26.5182 18.3703 26.6126 18.4479C26.7071 18.5255 26.8207 18.5764 26.9415 18.5953C26.9762 18.6006 27.0113 18.6033 27.0464 18.6032C27.1508 18.603 27.2538 18.5791 27.3475 18.533C27.4412 18.487 27.5232 18.4201 27.5871 18.3375L30.0176 15.1936L33.9463 15.0535C34.1955 15.045 34.4197 14.9014 34.5325 14.6789C34.645 14.4571 34.6275 14.1908 34.4874 13.9851L34.4874 13.985ZM29.6496 13.8391C29.4466 13.846 29.2572 13.9434 29.1328 14.104L27.2642 16.5202L26.2179 13.6508C26.1485 13.4597 25.9975 13.3104 25.8061 13.2417L22.9308 12.2108L25.3368 10.3295C25.4971 10.2041 25.5924 10.0144 25.5993 9.81134L25.6902 6.75767L28.2236 8.46395C28.3069 8.51979 28.4014 8.55673 28.5005 8.5722C28.5996 8.58767 28.7008 8.58128 28.7972 8.55348L31.7292 7.69694L30.8887 10.6337C30.8613 10.7303 30.8554 10.8317 30.8714 10.9308C30.8874 11.0298 30.9249 11.1242 30.9813 11.2073L32.7023 13.7308L29.6496 13.8391Z" fill="black"/>
<path d="M56.9509 23.25H47.5203V8.93593H56.9509V10.6279H49.4237V14.55H56.9509V16.242H49.4237V21.5581H56.9509V23.25ZM75.5044 23.25H73.6971V17.136C73.6971 16.6746 73.6746 16.2292 73.6298 15.7998C73.5913 15.3704 73.5048 15.0275 73.3702 14.7711C73.2228 14.4956 73.0113 14.2873 72.7358 14.1463C72.4602 14.0053 72.0628 13.9348 71.5437 13.9348C71.0374 13.9348 70.5311 14.063 70.0248 14.3193C69.5185 14.5693 69.0122 14.8897 68.5059 15.2806C68.5252 15.428 68.5412 15.6011 68.554 15.7998C68.5668 15.992 68.5732 16.1843 68.5732 16.3766V23.25H66.766V17.136C66.766 16.6617 66.7435 16.2131 66.6987 15.7901C66.6602 15.3608 66.5737 15.0179 66.4391 14.7615C66.2917 14.486 66.0802 14.2809 65.8046 14.1463C65.5291 14.0053 65.1317 13.9348 64.6126 13.9348C64.1191 13.9348 63.6224 14.0566 63.1225 14.3001C62.6291 14.5436 62.1356 14.8545 61.6421 15.2326V23.25H59.8348V12.512H61.6421V13.7041C62.2061 13.2362 62.7669 12.8709 63.3244 12.6082C63.8884 12.3454 64.4876 12.214 65.1221 12.214C65.8527 12.214 66.4711 12.3678 66.9774 12.6755C67.4901 12.9831 67.8715 13.4093 68.1214 13.954C68.852 13.3388 69.5185 12.8966 70.121 12.6274C70.7234 12.3518 71.3675 12.214 72.0532 12.214C73.2324 12.214 74.1008 12.5729 74.6584 13.2907C75.2224 14.0021 75.5044 14.9987 75.5044 16.2804V23.25ZM88.4341 17.7512C88.4341 18.6228 88.3092 19.4207 88.0592 20.1449C87.8093 20.8627 87.4568 21.4716 87.0018 21.9714C86.5788 22.4457 86.0789 22.8142 85.5021 23.077C84.9317 23.3333 84.3261 23.4615 83.6852 23.4615C83.1276 23.4615 82.6213 23.4006 82.1663 23.2788C81.7177 23.1571 81.2595 22.968 80.7916 22.7117V27.2106H78.9843V12.512H80.7916V13.6368C81.2723 13.233 81.8106 12.8966 82.4067 12.6274C83.0091 12.3518 83.65 12.214 84.3293 12.214C85.6239 12.214 86.6301 12.7043 87.3478 13.6849C88.072 14.659 88.4341 16.0145 88.4341 17.7512ZM86.5692 17.7993C86.5692 16.5047 86.3481 15.537 85.9059 14.8961C85.4637 14.2552 84.7843 13.9348 83.8679 13.9348C83.3487 13.9348 82.8264 14.047 82.3009 14.2713C81.7754 14.4956 81.2723 14.7904 80.7916 15.1557V21.2408C81.3043 21.4716 81.7433 21.6286 82.1086 21.7119C82.4804 21.7952 82.9001 21.8369 83.368 21.8369C84.3742 21.8369 85.1592 21.4972 85.7232 20.8179C86.2872 20.1385 86.5692 19.1323 86.5692 17.7993ZM97.9512 14.4827H97.8551C97.5859 14.4187 97.3232 14.3738 97.0668 14.3482C96.8169 14.3161 96.5188 14.3001 96.1728 14.3001C95.6152 14.3001 95.0769 14.4251 94.5578 14.675C94.0386 14.9185 93.5388 15.2358 93.0581 15.6267V23.25H91.2508V12.512H93.0581V14.0982C93.7759 13.5214 94.4071 13.1145 94.9519 12.8773C95.5031 12.6338 96.0638 12.512 96.6342 12.512C96.9482 12.512 97.1758 12.5217 97.3167 12.5409C97.4577 12.5537 97.6692 12.5825 97.9512 12.6274V14.4827ZM108.641 18.0685H100.729C100.729 18.7286 100.829 19.3054 101.027 19.7989C101.226 20.2859 101.498 20.6865 101.845 21.0005C102.178 21.3081 102.572 21.5388 103.027 21.6927C103.488 21.8465 103.995 21.9234 104.546 21.9234C105.276 21.9234 106.01 21.7792 106.747 21.4908C107.491 21.196 108.019 20.9076 108.333 20.6256H108.43V22.5963C107.821 22.8527 107.199 23.0673 106.565 23.2404C105.93 23.4134 105.264 23.4999 104.565 23.4999C102.783 23.4999 101.393 23.0193 100.393 22.058C99.3932 21.0902 98.8933 19.7187 98.8933 17.9435C98.8933 16.1875 99.3708 14.7936 100.326 13.7618C101.287 12.7299 102.55 12.214 104.113 12.214C105.562 12.214 106.677 12.637 107.459 13.483C108.247 14.3289 108.641 15.5306 108.641 17.0879V18.0685ZM106.882 16.6842C106.875 15.7357 106.635 15.0019 106.161 14.4827C105.693 13.9636 104.978 13.7041 104.017 13.7041C103.049 13.7041 102.277 13.9893 101.7 14.5597C101.13 15.13 100.806 15.8382 100.729 16.6842H106.882ZM119.052 20.1545C119.052 21.1351 118.645 21.9394 117.831 22.5675C117.024 23.1955 115.918 23.5096 114.515 23.5096C113.72 23.5096 112.989 23.4166 112.323 23.2308C111.663 23.0385 111.109 22.8302 110.66 22.6059V20.5775H110.756C111.326 21.0069 111.961 21.3498 112.659 21.6061C113.358 21.8561 114.028 21.9811 114.669 21.9811C115.463 21.9811 116.085 21.8529 116.534 21.5965C116.982 21.3402 117.206 20.9364 117.206 20.3853C117.206 19.9623 117.085 19.6418 116.841 19.4239C116.598 19.206 116.13 19.0202 115.438 18.8664C115.181 18.8087 114.845 18.7414 114.428 18.6645C114.018 18.5876 113.643 18.5043 113.304 18.4146C112.361 18.1646 111.692 17.7993 111.294 17.3186C110.903 16.8316 110.708 16.2356 110.708 15.5306C110.708 15.0884 110.798 14.6718 110.977 14.2809C111.163 13.8899 111.442 13.5407 111.813 13.233C112.172 12.9318 112.627 12.6947 113.179 12.5217C113.736 12.3422 114.358 12.2525 115.044 12.2525C115.684 12.2525 116.332 12.3326 116.985 12.4928C117.645 12.6466 118.193 12.8357 118.629 13.06V14.9922H118.533C118.072 14.6526 117.511 14.3674 116.851 14.1367C116.191 13.8995 115.543 13.781 114.909 13.781C114.249 13.781 113.691 13.9092 113.236 14.1655C112.781 14.4155 112.554 14.7904 112.554 15.2903C112.554 15.7325 112.691 16.0657 112.967 16.29C113.236 16.5143 113.672 16.697 114.274 16.838C114.608 16.9149 114.979 16.9918 115.39 17.0687C115.806 17.1456 116.152 17.2161 116.428 17.2802C117.267 17.4725 117.915 17.8025 118.37 18.2704C118.825 18.7446 119.052 19.3727 119.052 20.1545ZM129.992 23.25H128.194V22.106C128.034 22.215 127.816 22.3688 127.541 22.5675C127.272 22.7597 127.009 22.9135 126.752 23.0289C126.451 23.1763 126.105 23.2981 125.714 23.3942C125.323 23.4967 124.865 23.548 124.339 23.548C123.372 23.548 122.551 23.2276 121.879 22.5867C121.206 21.9458 120.869 21.1287 120.869 20.1353C120.869 19.3214 121.042 18.6645 121.388 18.1646C121.741 17.6583 122.241 17.261 122.888 16.9726C123.542 16.6842 124.327 16.4887 125.243 16.3862C126.16 16.2836 127.143 16.2067 128.194 16.1554V15.8767C128.194 15.4665 128.121 15.1268 127.973 14.8577C127.832 14.5885 127.627 14.377 127.358 14.2232C127.102 14.0758 126.794 13.9765 126.435 13.9252C126.076 13.8739 125.701 13.8483 125.31 13.8483C124.836 13.8483 124.307 13.9124 123.724 14.0405C123.141 14.1623 122.539 14.3418 121.917 14.5789H121.821V12.7428C122.173 12.6466 122.683 12.5409 123.349 12.4255C124.016 12.3102 124.673 12.2525 125.32 12.2525C126.076 12.2525 126.733 12.3166 127.291 12.4447C127.855 12.5665 128.342 12.778 128.752 13.0792C129.156 13.374 129.463 13.7553 129.675 14.2232C129.886 14.691 129.992 15.271 129.992 15.9632V23.25ZM128.194 20.6064V17.6167C127.643 17.6487 126.993 17.6968 126.243 17.7609C125.499 17.8249 124.91 17.9179 124.474 18.0396C123.955 18.187 123.535 18.4178 123.215 18.7318C122.894 19.0394 122.734 19.4656 122.734 20.0103C122.734 20.6256 122.92 21.0902 123.292 21.4043C123.663 21.7119 124.231 21.8657 124.993 21.8657C125.628 21.8657 126.208 21.7439 126.733 21.5004C127.259 21.2505 127.746 20.9524 128.194 20.6064ZM156.063 23.25H154.256V17.136C154.256 16.6746 154.233 16.2292 154.189 15.7998C154.15 15.3704 154.064 15.0275 153.929 14.7711C153.782 14.4956 153.57 14.2873 153.294 14.1463C153.019 14.0053 152.622 13.9348 152.102 13.9348C151.596 13.9348 151.09 14.063 150.584 14.3193C150.077 14.5693 149.571 14.8897 149.065 15.2806C149.084 15.428 149.1 15.6011 149.113 15.7998C149.126 15.992 149.132 16.1843 149.132 16.3766V23.25H147.325V17.136C147.325 16.6617 147.302 16.2131 147.257 15.7901C147.219 15.3608 147.132 15.0179 146.998 14.7615C146.85 14.486 146.639 14.2809 146.363 14.1463C146.088 14.0053 145.69 13.9348 145.171 13.9348C144.678 13.9348 144.181 14.0566 143.681 14.3001C143.188 14.5436 142.694 14.8545 142.201 15.2326V23.25H140.394V12.512H142.201V13.7041C142.765 13.2362 143.326 12.8709 143.883 12.6082C144.447 12.3454 145.046 12.214 145.681 12.214C146.411 12.214 147.03 12.3678 147.536 12.6755C148.049 12.9831 148.43 13.4093 148.68 13.954C149.411 13.3388 150.077 12.8966 150.68 12.6274C151.282 12.3518 151.926 12.214 152.612 12.214C153.791 12.214 154.66 12.5729 155.217 13.2907C155.781 14.0021 156.063 14.9987 156.063 16.2804V23.25ZM167.887 23.25H166.09V22.106C165.929 22.215 165.712 22.3688 165.436 22.5675C165.167 22.7597 164.904 22.9135 164.648 23.0289C164.346 23.1763 164 23.2981 163.609 23.3942C163.219 23.4967 162.76 23.548 162.235 23.548C161.267 23.548 160.447 23.2276 159.774 22.5867C159.101 21.9458 158.764 21.1287 158.764 20.1353C158.764 19.3214 158.937 18.6645 159.284 18.1646C159.636 17.6583 160.136 17.261 160.783 16.9726C161.437 16.6842 162.222 16.4887 163.138 16.3862C164.055 16.2836 165.039 16.2067 166.09 16.1554V15.8767C166.09 15.4665 166.016 15.1268 165.869 14.8577C165.728 14.5885 165.522 14.377 165.253 14.2232C164.997 14.0758 164.689 13.9765 164.33 13.9252C163.972 13.8739 163.597 13.8483 163.206 13.8483C162.731 13.8483 162.203 13.9124 161.62 14.0405C161.036 14.1623 160.434 14.3418 159.812 14.5789H159.716V12.7428C160.069 12.6466 160.578 12.5409 161.245 12.4255C161.911 12.3102 162.568 12.2525 163.215 12.2525C163.972 12.2525 164.628 12.3166 165.186 12.4447C165.75 12.5665 166.237 12.778 166.647 13.0792C167.051 13.374 167.359 13.7553 167.57 14.2232C167.782 14.691 167.887 15.271 167.887 15.9632V23.25ZM166.09 20.6064V17.6167C165.539 17.6487 164.888 17.6968 164.138 17.7609C163.395 17.8249 162.805 17.9179 162.369 18.0396C161.85 18.187 161.43 18.4178 161.11 18.7318C160.79 19.0394 160.629 19.4656 160.629 20.0103C160.629 20.6256 160.815 21.0902 161.187 21.4043C161.559 21.7119 162.126 21.8657 162.888 21.8657C163.523 21.8657 164.103 21.7439 164.628 21.5004C165.154 21.2505 165.641 20.9524 166.09 20.6064ZM180.077 23.25H178.27V22.1253C177.751 22.5739 177.209 22.9232 176.645 23.1731C176.081 23.423 175.469 23.548 174.809 23.548C173.527 23.548 172.508 23.0545 171.752 22.0676C171.002 21.0806 170.627 19.7123 170.627 17.9627C170.627 17.0527 170.755 16.242 171.012 15.5306C171.274 14.8192 171.627 14.2136 172.069 13.7137C172.505 13.2266 173.011 12.8549 173.588 12.5986C174.171 12.3422 174.774 12.214 175.395 12.214C175.959 12.214 176.459 12.2749 176.895 12.3967C177.331 12.512 177.789 12.6947 178.27 12.9446V8.29184H180.077V23.25ZM178.27 20.6064V14.4443C177.783 14.2264 177.347 14.0758 176.962 13.9925C176.578 13.9092 176.158 13.8675 175.703 13.8675C174.69 13.8675 173.902 14.22 173.338 14.925C172.774 15.6299 172.492 16.6297 172.492 17.9243C172.492 19.1996 172.71 20.1706 173.146 20.8371C173.582 21.4972 174.28 21.8272 175.241 21.8272C175.754 21.8272 176.273 21.7151 176.799 21.4908C177.324 21.2601 177.815 20.9653 178.27 20.6064ZM190.334 14.4827H190.238C189.969 14.4187 189.706 14.3738 189.45 14.3482C189.2 14.3161 188.902 14.3001 188.556 14.3001C187.998 14.3001 187.46 14.4251 186.941 14.675C186.422 14.9185 185.922 15.2358 185.441 15.6267V23.25H183.634V12.512H185.441V14.0982C186.159 13.5214 186.79 13.1145 187.335 12.8773C187.886 12.6338 188.447 12.512 189.017 12.512C189.331 12.512 189.559 12.5217 189.7 12.5409C189.841 12.5537 190.052 12.5825 190.334 12.6274V14.4827ZM193.978 10.7144H191.94V8.83979H193.978V10.7144ZM193.862 23.25H192.055V12.512H193.862V23.25ZM206.417 23.25H204.61V17.136C204.61 16.6425 204.581 16.1811 204.523 15.7517C204.466 15.3159 204.36 14.9762 204.206 14.7327C204.046 14.4635 203.815 14.2649 203.514 14.1367C203.213 14.0021 202.822 13.9348 202.341 13.9348C201.848 13.9348 201.332 14.0566 200.793 14.3001C200.255 14.5436 199.739 14.8545 199.246 15.2326V23.25H197.438V12.512H199.246V13.7041C199.81 13.2362 200.393 12.8709 200.995 12.6082C201.598 12.3454 202.216 12.214 202.851 12.214C204.011 12.214 204.895 12.5633 205.504 13.2619C206.113 13.9604 206.417 14.9666 206.417 16.2804V23.25ZM218.876 23.25H217.069V17.136C217.069 16.6425 217.04 16.1811 216.982 15.7517C216.924 15.3159 216.819 14.9762 216.665 14.7327C216.505 14.4635 216.274 14.2649 215.973 14.1367C215.671 14.0021 215.28 13.9348 214.8 13.9348C214.306 13.9348 213.79 14.0566 213.252 14.3001C212.714 14.5436 212.198 14.8545 211.704 15.2326V23.25H209.897V8.29184H211.704V13.7041C212.268 13.2362 212.852 12.8709 213.454 12.6082C214.056 12.3454 214.675 12.214 215.309 12.214C216.469 12.214 217.354 12.5633 217.963 13.2619C218.571 13.9604 218.876 14.9666 218.876 16.2804V23.25ZM230.7 23.25H228.902V22.106C228.742 22.215 228.524 22.3688 228.249 22.5675C227.98 22.7597 227.717 22.9135 227.46 23.0289C227.159 23.1763 226.813 23.2981 226.422 23.3942C226.031 23.4967 225.573 23.548 225.048 23.548C224.08 23.548 223.259 23.2276 222.587 22.5867C221.914 21.9458 221.577 21.1287 221.577 20.1353C221.577 19.3214 221.75 18.6645 222.096 18.1646C222.449 17.6583 222.949 17.261 223.596 16.9726C224.25 16.6842 225.035 16.4887 225.951 16.3862C226.868 16.2836 227.851 16.2067 228.902 16.1554V15.8767C228.902 15.4665 228.829 15.1268 228.681 14.8577C228.54 14.5885 228.335 14.377 228.066 14.2232C227.81 14.0758 227.502 13.9765 227.143 13.9252C226.784 13.8739 226.409 13.8483 226.018 13.8483C225.544 13.8483 225.015 13.9124 224.432 14.0405C223.849 14.1623 223.247 14.3418 222.625 14.5789H222.529V12.7428C222.881 12.6466 223.391 12.5409 224.057 12.4255C224.724 12.3102 225.381 12.2525 226.028 12.2525C226.784 12.2525 227.441 12.3166 227.999 12.4447C228.563 12.5665 229.05 12.778 229.46 13.0792C229.864 13.374 230.171 13.7553 230.383 14.2232C230.594 14.691 230.7 15.271 230.7 15.9632V23.25ZM228.902 20.6064V17.6167C228.351 17.6487 227.701 17.6968 226.951 17.7609C226.208 17.8249 225.618 17.9179 225.182 18.0396C224.663 18.187 224.243 18.4178 223.923 18.7318C223.602 19.0394 223.442 19.4656 223.442 20.0103C223.442 20.6256 223.628 21.0902 224 21.4043C224.371 21.7119 224.939 21.8657 225.701 21.8657C226.336 21.8657 226.916 21.7439 227.441 21.5004C227.967 21.2505 228.454 20.9524 228.902 20.6064Z" fill="black"/>
</svg>
