<svg width="259" height="32" viewBox="0 0 259 32" fill="none" xmlns="http://www.w3.org/2000/svg">
<rect width="258.999" height="31.5" rx="13.1238" fill="#28A899" fill-opacity="0.31"/>
<path d="M27.9994 12.4686C27.9994 18.2984 19.2492 18.2984 19.2492 12.4686H21.4368C21.4368 15.389 25.8118 15.389 25.8118 12.4686M32.3745 22.3126V25.5939H14.8741V22.3126C14.8741 19.3922 20.7039 17.9375 23.6243 17.9375C26.5447 17.9375 32.3745 19.3922 32.3745 22.3126ZM30.2963 22.3126C30.2963 21.6126 26.8728 20.0157 23.6243 20.0157C20.3758 20.0157 16.9523 21.6126 16.9523 22.3126V23.5157H30.2963M24.1712 4.81226C24.4774 4.81226 24.7181 5.05289 24.7181 5.35914V8.64045H25.8118V5.90603C26.5859 6.26426 27.2344 6.84688 27.6733 7.57827C28.1121 8.30967 28.321 9.15608 28.2728 10.0077C28.2728 10.0077 29.0385 10.1608 29.0932 11.3749H18.1555C18.1555 10.1608 18.9758 10.0077 18.9758 10.0077C18.9276 9.15608 19.1365 8.30967 19.5753 7.57827C20.0142 6.84688 20.6627 6.26426 21.4368 5.90603V8.64045H22.5305V5.35914C22.5305 5.05289 22.7712 4.81226 23.0774 4.81226" fill="black"/>
<path d="M57.3276 23.25H47.897V8.93593H57.3276V10.6279H49.8004V14.55H57.3276V16.242H49.8004V21.5581H57.3276V23.25ZM75.8811 23.25H74.0738V17.136C74.0738 16.6746 74.0514 16.2292 74.0065 15.7998C73.9681 15.3704 73.8815 15.0275 73.747 14.7711C73.5996 14.4956 73.3881 14.2873 73.1125 14.1463C72.8369 14.0053 72.4396 13.9348 71.9204 13.9348C71.4141 13.9348 70.9079 14.063 70.4016 14.3193C69.8953 14.5693 69.389 14.8897 68.8827 15.2806C68.9019 15.428 68.9179 15.6011 68.9307 15.7998C68.9436 15.992 68.95 16.1843 68.95 16.3766V23.25H67.1427V17.136C67.1427 16.6617 67.1202 16.2131 67.0754 15.7901C67.0369 15.3608 66.9504 15.0179 66.8158 14.7615C66.6684 14.486 66.4569 14.2809 66.1814 14.1463C65.9058 14.0053 65.5084 13.9348 64.9893 13.9348C64.4958 13.9348 63.9992 14.0566 63.4993 14.3001C63.0058 14.5436 62.5123 14.8545 62.0188 15.2326V23.25H60.2115V12.512H62.0188V13.7041C62.5828 13.2362 63.1436 12.8709 63.7011 12.6082C64.2651 12.3454 64.8643 12.214 65.4988 12.214C66.2294 12.214 66.8479 12.3678 67.3542 12.6755C67.8669 12.9831 68.2482 13.4093 68.4981 13.954C69.2287 13.3388 69.8953 12.8966 70.4977 12.6274C71.1001 12.3518 71.7442 12.214 72.4299 12.214C73.6092 12.214 74.4776 12.5729 75.0351 13.2907C75.5991 14.0021 75.8811 14.9987 75.8811 16.2804V23.25ZM88.8109 17.7512C88.8109 18.6228 88.6859 19.4207 88.4359 20.1449C88.186 20.8627 87.8335 21.4716 87.3785 21.9714C86.9555 22.4457 86.4556 22.8142 85.8788 23.077C85.3084 23.3333 84.7028 23.4615 84.0619 23.4615C83.5044 23.4615 82.9981 23.4006 82.543 23.2788C82.0944 23.1571 81.6362 22.968 81.1684 22.7117V27.2106H79.3611V12.512H81.1684V13.6368C81.649 13.233 82.1874 12.8966 82.7834 12.6274C83.3858 12.3518 84.0267 12.214 84.706 12.214C86.0006 12.214 87.0068 12.7043 87.7246 13.6849C88.4488 14.659 88.8109 16.0145 88.8109 17.7512ZM86.9459 17.7993C86.9459 16.5047 86.7248 15.537 86.2826 14.8961C85.8404 14.2552 85.161 13.9348 84.2446 13.9348C83.7255 13.9348 83.2032 14.047 82.6776 14.2713C82.1521 14.4956 81.649 14.7904 81.1684 15.1557V21.2408C81.6811 21.4716 82.1201 21.6286 82.4854 21.7119C82.8571 21.7952 83.2769 21.8369 83.7447 21.8369C84.7509 21.8369 85.536 21.4972 86.0999 20.8179C86.6639 20.1385 86.9459 19.1323 86.9459 17.7993ZM98.3279 14.4827H98.2318C97.9626 14.4187 97.6999 14.3738 97.4435 14.3482C97.1936 14.3161 96.8956 14.3001 96.5495 14.3001C95.9919 14.3001 95.4536 14.4251 94.9345 14.675C94.4154 14.9185 93.9155 15.2358 93.4348 15.6267V23.25H91.6275V12.512H93.4348V14.0982C94.1526 13.5214 94.7839 13.1145 95.3286 12.8773C95.8798 12.6338 96.4405 12.512 97.0109 12.512C97.325 12.512 97.5525 12.5217 97.6935 12.5409C97.8345 12.5537 98.046 12.5825 98.3279 12.6274V14.4827ZM109.018 18.0685H101.106C101.106 18.7286 101.205 19.3054 101.404 19.7989C101.603 20.2859 101.875 20.6865 102.221 21.0005C102.555 21.3081 102.949 21.5388 103.404 21.6927C103.865 21.8465 104.371 21.9234 104.923 21.9234C105.653 21.9234 106.387 21.7792 107.124 21.4908C107.867 21.196 108.396 20.9076 108.71 20.6256H108.806V22.5963C108.198 22.8527 107.576 23.0673 106.941 23.2404C106.307 23.4134 105.64 23.4999 104.942 23.4999C103.16 23.4999 101.769 23.0193 100.77 22.058C99.7699 21.0902 99.27 19.7187 99.27 17.9435C99.27 16.1875 99.7475 14.7936 100.702 13.7618C101.664 12.7299 102.926 12.214 104.49 12.214C105.938 12.214 107.054 12.637 107.835 13.483C108.624 14.3289 109.018 15.5306 109.018 17.0879V18.0685ZM107.259 16.6842C107.252 15.7357 107.012 15.0019 106.538 14.4827C106.07 13.9636 105.355 13.7041 104.394 13.7041C103.426 13.7041 102.654 13.9893 102.077 14.5597C101.507 15.13 101.183 15.8382 101.106 16.6842H107.259ZM119.429 20.1545C119.429 21.1351 119.022 21.9394 118.208 22.5675C117.401 23.1955 116.295 23.5096 114.892 23.5096C114.097 23.5096 113.366 23.4166 112.7 23.2308C112.04 23.0385 111.485 22.8302 111.037 22.6059V20.5775H111.133C111.703 21.0069 112.338 21.3498 113.036 21.6061C113.735 21.8561 114.404 21.9811 115.045 21.9811C115.84 21.9811 116.462 21.8529 116.91 21.5965C117.359 21.3402 117.583 20.9364 117.583 20.3853C117.583 19.9623 117.461 19.6418 117.218 19.4239C116.974 19.206 116.507 19.0202 115.814 18.8664C115.558 18.8087 115.222 18.7414 114.805 18.6645C114.395 18.5876 114.02 18.5043 113.68 18.4146C112.738 18.1646 112.068 17.7993 111.671 17.3186C111.28 16.8316 111.085 16.2356 111.085 15.5306C111.085 15.0884 111.174 14.6718 111.354 14.2809C111.54 13.8899 111.818 13.5407 112.19 13.233C112.549 12.9318 113.004 12.6947 113.555 12.5217C114.113 12.3422 114.734 12.2525 115.42 12.2525C116.061 12.2525 116.708 12.3326 117.362 12.4928C118.022 12.6466 118.57 12.8357 119.006 13.06V14.9922H118.91C118.448 14.6526 117.888 14.3674 117.228 14.1367C116.567 13.8995 115.92 13.781 115.286 13.781C114.626 13.781 114.068 13.9092 113.613 14.1655C113.158 14.4155 112.93 14.7904 112.93 15.2903C112.93 15.7325 113.068 16.0657 113.344 16.29C113.613 16.5143 114.049 16.697 114.651 16.838C114.984 16.9149 115.356 16.9918 115.766 17.0687C116.183 17.1456 116.529 17.2161 116.805 17.2802C117.644 17.4725 118.291 17.8025 118.746 18.2704C119.201 18.7446 119.429 19.3727 119.429 20.1545ZM130.369 23.25H128.571V22.106C128.411 22.215 128.193 22.3688 127.917 22.5675C127.648 22.7597 127.385 22.9135 127.129 23.0289C126.828 23.1763 126.482 23.2981 126.091 23.3942C125.7 23.4967 125.242 23.548 124.716 23.548C123.748 23.548 122.928 23.2276 122.255 22.5867C121.582 21.9458 121.246 21.1287 121.246 20.1353C121.246 19.3214 121.419 18.6645 121.765 18.1646C122.117 17.6583 122.617 17.261 123.265 16.9726C123.918 16.6842 124.703 16.4887 125.62 16.3862C126.536 16.2836 127.52 16.2067 128.571 16.1554V15.8767C128.571 15.4665 128.497 15.1268 128.35 14.8577C128.209 14.5885 128.004 14.377 127.735 14.2232C127.478 14.0758 127.171 13.9765 126.812 13.9252C126.453 13.8739 126.078 13.8483 125.687 13.8483C125.213 13.8483 124.684 13.9124 124.101 14.0405C123.518 14.1623 122.915 14.3418 122.294 14.5789H122.198V12.7428C122.55 12.6466 123.06 12.5409 123.726 12.4255C124.393 12.3102 125.049 12.2525 125.697 12.2525C126.453 12.2525 127.11 12.3166 127.667 12.4447C128.231 12.5665 128.719 12.778 129.129 13.0792C129.532 13.374 129.84 13.7553 130.052 14.2232C130.263 14.691 130.369 15.271 130.369 15.9632V23.25ZM128.571 20.6064V17.6167C128.02 17.6487 127.369 17.6968 126.62 17.7609C125.876 17.8249 125.287 17.9179 124.851 18.0396C124.332 18.187 123.912 18.4178 123.591 18.7318C123.271 19.0394 123.111 19.4656 123.111 20.0103C123.111 20.6256 123.297 21.0902 123.668 21.4043C124.04 21.7119 124.607 21.8657 125.37 21.8657C126.004 21.8657 126.584 21.7439 127.11 21.5004C127.635 21.2505 128.122 20.9524 128.571 20.6064ZM147.471 14.4827H147.375C147.105 14.4187 146.843 14.3738 146.586 14.3482C146.336 14.3161 146.038 14.3001 145.692 14.3001C145.135 14.3001 144.596 14.4251 144.077 14.675C143.558 14.9185 143.058 15.2358 142.578 15.6267V23.25H140.77V12.512H142.578V14.0982C143.295 13.5214 143.927 13.1145 144.471 12.8773C145.023 12.6338 145.583 12.512 146.154 12.512C146.468 12.512 146.695 12.5217 146.836 12.5409C146.977 12.5537 147.189 12.5825 147.471 12.6274V14.4827ZM158.161 18.0685H150.249C150.249 18.7286 150.348 19.3054 150.547 19.7989C150.746 20.2859 151.018 20.6865 151.364 21.0005C151.697 21.3081 152.091 21.5388 152.546 21.6927C153.008 21.8465 153.514 21.9234 154.065 21.9234C154.796 21.9234 155.53 21.7792 156.267 21.4908C157.01 21.196 157.539 20.9076 157.853 20.6256H157.949V22.5963C157.34 22.8527 156.719 23.0673 156.084 23.2404C155.45 23.4134 154.783 23.4999 154.085 23.4999C152.303 23.4999 150.912 23.0193 149.912 22.058C148.913 21.0902 148.413 19.7187 148.413 17.9435C148.413 16.1875 148.89 14.7936 149.845 13.7618C150.806 12.7299 152.069 12.214 153.633 12.214C155.081 12.214 156.196 12.637 156.978 13.483C157.766 14.3289 158.161 15.5306 158.161 17.0879V18.0685ZM156.401 16.6842C156.395 15.7357 156.155 15.0019 155.68 14.4827C155.213 13.9636 154.498 13.7041 153.537 13.7041C152.569 13.7041 151.797 13.9893 151.22 14.5597C150.649 15.13 150.326 15.8382 150.249 16.6842H156.401ZM169.245 23.25H167.447V22.106C167.287 22.215 167.069 22.3688 166.793 22.5675C166.524 22.7597 166.261 22.9135 166.005 23.0289C165.704 23.1763 165.358 23.2981 164.967 23.3942C164.576 23.4967 164.118 23.548 163.592 23.548C162.624 23.548 161.804 23.2276 161.131 22.5867C160.458 21.9458 160.122 21.1287 160.122 20.1353C160.122 19.3214 160.295 18.6645 160.641 18.1646C160.993 17.6583 161.493 17.261 162.14 16.9726C162.794 16.6842 163.579 16.4887 164.496 16.3862C165.412 16.2836 166.396 16.2067 167.447 16.1554V15.8767C167.447 15.4665 167.373 15.1268 167.226 14.8577C167.085 14.5885 166.88 14.377 166.611 14.2232C166.354 14.0758 166.047 13.9765 165.688 13.9252C165.329 13.8739 164.954 13.8483 164.563 13.8483C164.089 13.8483 163.56 13.9124 162.977 14.0405C162.394 14.1623 161.791 14.3418 161.17 14.5789H161.073V12.7428C161.426 12.6466 161.935 12.5409 162.602 12.4255C163.268 12.3102 163.925 12.2525 164.573 12.2525C165.329 12.2525 165.986 12.3166 166.543 12.4447C167.107 12.5665 167.594 12.778 168.005 13.0792C168.408 13.374 168.716 13.7553 168.927 14.2232C169.139 14.691 169.245 15.271 169.245 15.9632V23.25ZM167.447 20.6064V17.6167C166.896 17.6487 166.245 17.6968 165.495 17.7609C164.752 17.8249 164.162 17.9179 163.727 18.0396C163.208 18.187 162.788 18.4178 162.467 18.7318C162.147 19.0394 161.987 19.4656 161.987 20.0103C161.987 20.6256 162.172 21.0902 162.544 21.4043C162.916 21.7119 163.483 21.8657 164.246 21.8657C164.88 21.8657 165.46 21.7439 165.986 21.5004C166.511 21.2505 166.998 20.9524 167.447 20.6064ZM174.551 23.25H172.744V8.29184H174.551V23.25ZM180.069 10.7144H178.031V8.83979H180.069V10.7144ZM179.954 23.25H178.146V12.512H179.954V23.25ZM191.317 23.25H182.645V21.9138L188.904 14.0213H182.78V12.512H191.153V13.8002L184.866 21.7215H191.317V23.25ZM202.218 23.25H200.42V22.106C200.26 22.215 200.042 22.3688 199.767 22.5675C199.497 22.7597 199.235 22.9135 198.978 23.0289C198.677 23.1763 198.331 23.2981 197.94 23.3942C197.549 23.4967 197.091 23.548 196.565 23.548C195.598 23.548 194.777 23.2276 194.104 22.5867C193.431 21.9458 193.095 21.1287 193.095 20.1353C193.095 19.3214 193.268 18.6645 193.614 18.1646C193.967 17.6583 194.466 17.261 195.114 16.9726C195.767 16.6842 196.553 16.4887 197.469 16.3862C198.385 16.2836 199.369 16.2067 200.42 16.1554V15.8767C200.42 15.4665 200.347 15.1268 200.199 14.8577C200.058 14.5885 199.853 14.377 199.584 14.2232C199.328 14.0758 199.02 13.9765 198.661 13.9252C198.302 13.8739 197.927 13.8483 197.536 13.8483C197.062 13.8483 196.533 13.9124 195.95 14.0405C195.367 14.1623 194.764 14.3418 194.143 14.5789H194.047V12.7428C194.399 12.6466 194.909 12.5409 195.575 12.4255C196.242 12.3102 196.899 12.2525 197.546 12.2525C198.302 12.2525 198.959 12.3166 199.517 12.4447C200.081 12.5665 200.568 12.778 200.978 13.0792C201.382 13.374 201.689 13.7553 201.901 14.2232C202.112 14.691 202.218 15.271 202.218 15.9632V23.25ZM200.42 20.6064V17.6167C199.869 17.6487 199.219 17.6968 198.469 17.7609C197.725 17.8249 197.136 17.9179 196.7 18.0396C196.181 18.187 195.761 18.4178 195.441 18.7318C195.12 19.0394 194.96 19.4656 194.96 20.0103C194.96 20.6256 195.146 21.0902 195.518 21.4043C195.889 21.7119 196.456 21.8657 197.219 21.8657C197.854 21.8657 198.434 21.7439 198.959 21.5004C199.485 21.2505 199.972 20.9524 200.42 20.6064ZM214.407 23.25H212.6V22.1253C212.081 22.5739 211.54 22.9232 210.976 23.1731C210.412 23.423 209.8 23.548 209.139 23.548C207.858 23.548 206.839 23.0545 206.082 22.0676C205.333 21.0806 204.958 19.7123 204.958 17.9627C204.958 17.0527 205.086 16.242 205.342 15.5306C205.605 14.8192 205.957 14.2136 206.4 13.7137C206.835 13.2266 207.342 12.8549 207.919 12.5986C208.502 12.3422 209.104 12.214 209.726 12.214C210.29 12.214 210.79 12.2749 211.226 12.3967C211.661 12.512 212.12 12.6947 212.6 12.9446V8.29184H214.407V23.25ZM212.6 20.6064V14.4443C212.113 14.2264 211.677 14.0758 211.293 13.9925C210.908 13.9092 210.489 13.8675 210.033 13.8675C209.021 13.8675 208.233 14.22 207.669 14.925C207.105 15.6299 206.823 16.6297 206.823 17.9243C206.823 19.1996 207.041 20.1706 207.476 20.8371C207.912 21.4972 208.611 21.8272 209.572 21.8272C210.085 21.8272 210.604 21.7151 211.129 21.4908C211.655 21.2601 212.145 20.9653 212.6 20.6064ZM227.116 17.8858C227.116 19.6354 226.668 21.0165 225.77 22.0291C224.873 23.0417 223.671 23.548 222.165 23.548C220.646 23.548 219.438 23.0417 218.541 22.0291C217.65 21.0165 217.205 19.6354 217.205 17.8858C217.205 16.1362 217.65 14.7551 218.541 13.7425C219.438 12.7235 220.646 12.214 222.165 12.214C223.671 12.214 224.873 12.7235 225.77 13.7425C226.668 14.7551 227.116 16.1362 227.116 17.8858ZM225.251 17.8858C225.251 16.4951 224.979 15.4633 224.434 14.7904C223.889 14.111 223.133 13.7714 222.165 13.7714C221.185 13.7714 220.422 14.111 219.877 14.7904C219.339 15.4633 219.07 16.4951 219.07 17.8858C219.07 19.2317 219.342 20.2539 219.887 20.9524C220.432 21.6446 221.191 21.9907 222.165 21.9907C223.127 21.9907 223.88 21.6478 224.424 20.9621C224.976 20.2699 225.251 19.2445 225.251 17.8858ZM236.624 14.4827H236.527C236.258 14.4187 235.996 14.3738 235.739 14.3482C235.489 14.3161 235.191 14.3001 234.845 14.3001C234.288 14.3001 233.749 14.4251 233.23 14.675C232.711 14.9185 232.211 15.2358 231.731 15.6267V23.25H229.923V12.512H231.731V14.0982C232.448 13.5214 233.08 13.1145 233.624 12.8773C234.175 12.6338 234.736 12.512 235.307 12.512C235.621 12.512 235.848 12.5217 235.989 12.5409C236.13 12.5537 236.342 12.5825 236.624 12.6274V14.4827ZM246.323 23.25H244.526V22.106C244.365 22.215 244.148 22.3688 243.872 22.5675C243.603 22.7597 243.34 22.9135 243.084 23.0289C242.782 23.1763 242.436 23.2981 242.045 23.3942C241.655 23.4967 241.196 23.548 240.671 23.548C239.703 23.548 238.883 23.2276 238.21 22.5867C237.537 21.9458 237.2 21.1287 237.2 20.1353C237.2 19.3214 237.373 18.6645 237.72 18.1646C238.072 17.6583 238.572 17.261 239.219 16.9726C239.873 16.6842 240.658 16.4887 241.574 16.3862C242.491 16.2836 243.475 16.2067 244.526 16.1554V15.8767C244.526 15.4665 244.452 15.1268 244.305 14.8577C244.164 14.5885 243.959 14.377 243.689 14.2232C243.433 14.0758 243.125 13.9765 242.766 13.9252C242.408 13.8739 242.033 13.8483 241.642 13.8483C241.167 13.8483 240.639 13.9124 240.056 14.0405C239.472 14.1623 238.87 14.3418 238.248 14.5789H238.152V12.7428C238.505 12.6466 239.014 12.5409 239.681 12.4255C240.347 12.3102 241.004 12.2525 241.651 12.2525C242.408 12.2525 243.064 12.3166 243.622 12.4447C244.186 12.5665 244.673 12.778 245.083 13.0792C245.487 13.374 245.795 13.7553 246.006 14.2232C246.218 14.691 246.323 15.271 246.323 15.9632V23.25ZM244.526 20.6064V17.6167C243.975 17.6487 243.324 17.6968 242.574 17.7609C241.831 17.8249 241.241 17.9179 240.805 18.0396C240.286 18.187 239.866 18.4178 239.546 18.7318C239.226 19.0394 239.065 19.4656 239.065 20.0103C239.065 20.6256 239.251 21.0902 239.623 21.4043C239.995 21.7119 240.562 21.8657 241.324 21.8657C241.959 21.8657 242.539 21.7439 243.064 21.5004C243.59 21.2505 244.077 20.9524 244.526 20.6064Z" fill="black"/>
</svg>
