<svg xmlns="http://www.w3.org/2000/svg" viewBox="0 0 180 51.29"><defs><style>.cls-1{fill:#617087;}.cls-2{fill:#ecf0f2;}</style></defs><g id="Layer_2" data-name="Layer 2"><g id="Camada_1" data-name="Camada 1"><path class="cls-1" d="M26.29,1.85A23.67,23.67,0,1,0,50,25.52,23.67,23.67,0,0,0,26.29,1.85M25.64,0A25.65,25.65,0,1,1,0,25.64,25.64,25.64,0,0,1,25.64,0"/><path class="cls-1" d="M28.52,5A20.69,20.69,0,1,0,49.2,25.65,20.69,20.69,0,0,0,28.52,5ZM24.58,36.89a4.6,4.6,0,0,1-3.53,1.49,4.88,4.88,0,0,1-4.86-4.83V17.28h4.86V31.89a.67.67,0,0,0,.21.54.71.71,0,0,0,.47.18l.11-.11c1.39-1.34,15.42-15.22,15.42-15.22h6.91Z"/><polygon class="cls-2" points="167.02 22.14 158.94 22.14 158.94 17.26 180 17.26 180 22.14 171.88 22.14 171.88 38.42 167.02 38.42 167.02 22.14"/><path class="cls-2" d="M138.11,38.38V23.79a6.52,6.52,0,0,1,6.5-6.5l12.78,0v4.88H144.61a1.66,1.66,0,0,0-1.14.5,1.56,1.56,0,0,0-.49,1.15v1.59h13.8v4.88H143v8.12Z"/><path class="cls-2" d="M134.68,19.19a6.36,6.36,0,0,0-4.59-1.93l-11.36,0a6.52,6.52,0,0,0-6.49,6.5v8.13a6.52,6.52,0,0,0,6.49,6.46h11.36a6.5,6.5,0,0,0,6.5-6.46V23.79A6.27,6.27,0,0,0,134.68,19.19Zm-3,12.73a1.56,1.56,0,0,1-.47,1.12,1.6,1.6,0,0,1-1.16.47H118.57a1.88,1.88,0,0,1-1-.55,1.5,1.5,0,0,1-.45-1.1v-8a1.22,1.22,0,0,1,.28-.77,1.93,1.93,0,0,1,.63-.55l.39-.21.32-.11h11.51a.39.39,0,0,0,.15,0,2,2,0,0,1,.9.57,1.36,1.36,0,0,1,.43,1Z"/><path class="cls-2" d="M104.08,30.26H92.85a6.52,6.52,0,0,1-6.49-6.48,6.5,6.5,0,0,1,6.49-6.49l17.85,0v4.88H92.85a1.7,1.7,0,0,0-1.14.5,1.55,1.55,0,0,0-.48,1.15,1.52,1.52,0,0,0,.5,1.14,1.55,1.55,0,0,0,1.12.49h11.23a6.23,6.23,0,0,1,4.59,1.91,6.32,6.32,0,0,1,1.9,4.62,6.49,6.49,0,0,1-6.49,6.47H86.32V33.51h17.76a1.43,1.43,0,0,0,1.15-.46,1.59,1.59,0,0,0,.47-1.15,1.62,1.62,0,0,0-1.62-1.64"/><path class="cls-2" d="M81.08,17.28H88L68.4,36.89a4.6,4.6,0,0,1-3.53,1.49A4.88,4.88,0,0,1,60,33.55V17.28h4.86V31.89a.67.67,0,0,0,.21.54.71.71,0,0,0,.47.18l.11-.11c1.4-1.34,15.42-15.22,15.42-15.22"/></g></g></svg>