<svg width="1349" height="955" viewBox="0 0 1349 955" fill="none" xmlns="http://www.w3.org/2000/svg">
<path d="M4.88526 638.5L30 595L55.1147 638.5H4.88526Z" stroke="white" stroke-opacity="0.69"/>
<path d="M30.0006 595.5L36.5006 627" stroke="white" stroke-opacity="0.69"/>
<path d="M5 638.5L36.5 627L55 638.5" stroke="white" stroke-opacity="0.69"/>
<circle cx="1004.5" cy="24.5" r="23" stroke="#22449B" stroke-width="3"/>
<circle cx="1344" cy="245" r="3.5" stroke="#22449B" stroke-width="3"/>
<circle cx="1284" cy="130" r="3.5" stroke="#22449B" stroke-width="3"/>
<circle cx="1284" cy="738" r="3.5" stroke="#22449B" stroke-width="3"/>
<circle cx="1162" cy="130" r="1.5" stroke="#22449B" stroke-width="3"/>
<ellipse cx="78.0977" cy="387" rx="18" ry="17" fill="url(#paint0_linear_206_772)"/>
<path d="M1275.57 578.515L1291.71 592.767" stroke="#F24E29" stroke-opacity="0.38" stroke-width="6" stroke-linecap="round"/>
<path d="M1290.77 577.572L1276.51 593.71" stroke="#F24E29" stroke-opacity="0.38" stroke-width="6" stroke-linecap="round"/>
<circle cx="50" cy="147" r="8.5" stroke="#22449B" stroke-width="3"/>
<circle cx="50" cy="755" r="8.5" stroke="#22449B" stroke-width="3"/>
<circle cx="1344" cy="853" r="3.5" stroke="#22449B" stroke-width="3"/>
<ellipse cx="32" cy="930" rx="18" ry="17" fill="url(#paint1_linear_206_772)"/>
<ellipse cx="229" cy="897.5" rx="4" ry="4.5" fill="#FE17B5"/>
<path d="M1293.89 939.5L1319 896L1344.11 939.5H1293.89Z" stroke="white"/>
<path d="M1319 896.5L1325.5 928" stroke="white"/>
<path d="M1294 939.5L1325.5 928L1344 939.5" stroke="white"/>
<defs>
<linearGradient id="paint0_linear_206_772" x1="78.0977" y1="370" x2="78.0977" y2="404" gradientUnits="userSpaceOnUse">
<stop stop-color="#FE17B5" stop-opacity="0.65"/>
<stop offset="1" stop-color="#FE17B5" stop-opacity="0"/>
</linearGradient>
<linearGradient id="paint1_linear_206_772" x1="32" y1="913" x2="32" y2="947" gradientUnits="userSpaceOnUse">
<stop stop-color="#FE17B5" stop-opacity="0.65"/>
<stop offset="1" stop-color="#FE17B5" stop-opacity="0"/>
</linearGradient>
</defs>
</svg>
